AnekDevanagari-Thin.ufo
<glyph name="parenleft" format="2">
  <advance width="535"/>
  <unicode hex="0028"/>
  <outline>
    <contour>
      <point x="213" y="644" type="line" smooth="yes"/>
      <point x="213" y="953"/>
      <point x="288" y="1155"/>
      <point x="445" y="1350" type="curve"/>
      <point x="400" y="1350" type="line"/>
      <point x="250" y="1160"/>
      <point x="175" y="960"/>
      <point x="175" y="647" type="curve" smooth="yes"/>
      <point x="175" y="467" type="line" smooth="yes"/>
      <point x="175" y="154"/>
      <point x="250" y="-46"/>
      <point x="400" y="-236" type="curve"/>
      <point x="445" y="-236" type="line"/>
      <point x="288" y="-40"/>
      <point x="213" y="161"/>
      <point x="213" y="470" type="curve" smooth="yes"/>
    </contour>
  </outline>
</glyph>
<glyph name="hyphen" format="2">
  <advance width="872"/>
  <unicode hex="002D"/>
  <outline>
    <contour>
      <point x="718" y="517" type="line"/>
      <point x="718" y="551" type="line"/>
      <point x="155" y="551" type="line"/>
      <point x="155" y="517" type="line"/>
    </contour>
  </outline>
</glyph>
<glyph name="C" format="2">
  <advance width="995"/>
  <unicode hex="0043"/>
  <anchor x="520" y="0" name="bottom"/>
  <anchor x="520" y="1278" name="top"/>
  <outline>
    <contour>
      <point x="551" y="-18" type="curve" smooth="yes"/>
      <point x="710" y="-18"/>
      <point x="824" y="45"/>
      <point x="887" y="101" type="curve"/>
      <point x="892" y="145" type="line"/>
      <point x="810" y="75"/>
      <point x="702" y="19"/>
      <point x="551" y="19" type="curve" smooth="yes"/>
      <point x="295" y="19"/>
      <point x="166" y="176"/>
      <point x="166" y="453" type="curve" smooth="yes"/>
      <point x="166" y="826" type="line" smooth="yes"/>
      <point x="166" y="1105"/>
      <point x="294" y="1260"/>
      <point x="541" y="1260" type="curve" smooth="yes"/>
      <point x="691" y="1260"/>
      <point x="802" y="1200"/>
      <point x="882" y="1134" type="curve"/>
      <point x="876" y="1178" type="line"/>
      <point x="814" y="1232"/>
      <point x="699" y="1296"/>
      <point x="541" y="1296" type="curve" smooth="yes"/>
      <point x="269" y="1296"/>
      <point x="127" y="1126"/>
      <point x="127" y="826" type="curve" smooth="yes"/>
      <point x="127" y="453" type="line" smooth="yes"/>
      <point x="127" y="154"/>
      <point x="269" y="-18"/>
    </contour>
  </outline>
</glyph>
<glyph name="D" format="2">
  <advance width="1137"/>
  <unicode hex="0044"/>
  <anchor x="564" y="0" name="bottom"/>
  <anchor x="577" y="639" name="center"/>
  <anchor x="564" y="1278" name="top"/>
  <outline>
    <contour>
      <point x="543" y="0" type="line" smooth="yes"/>
      <point x="844" y="0"/>
      <point x="1009" y="173"/>
      <point x="1009" y="483" type="curve" smooth="yes"/>
      <point x="1009" y="795" type="line" smooth="yes"/>
      <point x="1009" y="1106"/>
      <point x="844" y="1278"/>
      <point x="543" y="1278" type="curve" smooth="yes"/>
      <point x="203" y="1278" type="line"/>
      <point x="203" y="1243" type="line"/>
      <point x="542" y="1243" type="line" smooth="yes"/>
      <point x="822" y="1243"/>
      <point x="970" y="1085"/>
      <point x="970" y="794" type="curve" smooth="yes"/>
      <point x="970" y="484" type="line" smooth="yes"/>
      <point x="970" y="194"/>
      <point x="822" y="35"/>
      <point x="542" y="35" type="curve" smooth="yes"/>
      <point x="205" y="35" type="line"/>
      <point x="205" y="0" type="line"/>
    </contour>
    <contour>
      <point x="224" y="0" type="line"/>
      <point x="224" y="1278" type="line"/>
      <point x="185" y="1278" type="line"/>
      <point x="185" y="0" type="line"/>
    </contour>
  </outline>
</glyph>
<glyph name="P" format="2">
  <advance width="1073"/>
  <unicode hex="0050"/>
  <anchor x="534" y="0" name="bottom"/>
  <anchor x="534" y="1278" name="top"/>
  <outline>
    <contour>
      <point x="604" y="480" type="line" smooth="yes"/>
      <point x="856" y="480"/>
      <point x="963" y="622"/>
      <point x="963" y="836" type="curve" smooth="yes"/>
      <point x="963" y="928" type="line" smooth="yes"/>
      <point x="963" y="1139"/>
      <point x="857" y="1278"/>
      <point x="607" y="1278" type="curve" smooth="yes"/>
      <point x="203" y="1278" type="line"/>
      <point x="203" y="1244" type="line"/>
      <point x="605" y="1244" type="line" smooth="yes"/>
      <point x="834" y="1244"/>
      <point x="924" y="1120"/>
      <point x="924" y="926" type="curve" smooth="yes"/>
      <point x="924" y="838" type="line" smooth="yes"/>
      <point x="924" y="641"/>
      <point x="833" y="515"/>
      <point x="602" y="515" type="curve" smooth="yes"/>
      <point x="205" y="515" type="line"/>
      <point x="205" y="480" type="line"/>
    </contour>
    <contour>
      <point x="224" y="0" type="line"/>
      <point x="224" y="489" type="line"/>
      <point x="224" y="505" type="line"/>
      <point x="224" y="1278" type="line"/>
      <point x="185" y="1278" type="line"/>
      <point x="185" y="0" type="line"/>
    </contour>
  </outline>
</glyph>
<glyph name="f" format="2">
  <advance width="753"/>
  <unicode hex="0066"/>
  <anchor x="377" y="0" name="bottom"/>
  <anchor x="377" y="1313" name="top"/>
  <outline>
    <contour>
      <point x="471" y="1350" type="curve" smooth="yes"/>
      <point x="267" y="1350"/>
      <point x="182" y="1255"/>
      <point x="182" y="1106" type="curve" smooth="yes"/>
      <point x="182" y="1101" type="line" smooth="yes"/>
      <point x="182" y="1035"/>
      <point x="203" y="975"/>
      <point x="217" y="935" type="curve"/>
      <point x="217" y="928" type="line"/>
      <point x="250" y="933" type="line"/>
      <point x="235" y="978"/>
      <point x="219" y="1034"/>
      <point x="219" y="1098" type="curve" smooth="yes"/>
      <point x="219" y="1104" type="line" smooth="yes"/>
      <point x="219" y="1237"/>
      <point x="289" y="1316"/>
      <point x="471" y="1316" type="curve" smooth="yes"/>
      <point x="562" y="1316"/>
      <point x="628" y="1296"/>
      <point x="704" y="1267" type="curve"/>
      <point x="699" y="1302" type="line"/>
      <point x="632" y="1330"/>
      <point x="567" y="1350"/>
    </contour>
    <contour>
      <point x="251" y="0" type="line"/>
      <point x="251" y="920" type="line"/>
      <point x="214" y="920" type="line"/>
      <point x="214" y="0" type="line"/>
    </contour>
    <contour>
      <point x="691" y="910" type="line"/>
      <point x="696" y="942" type="line"/>
      <point x="240" y="942" type="line"/>
      <point x="228" y="942" type="line"/>
      <point x="28" y="942" type="line"/>
      <point x="28" y="910" type="line"/>
    </contour>
  </outline>
</glyph>
<glyph name="g" format="2">
  <advance width="987"/>
  <unicode hex="0067"/>
  <anchor x="499" y="-344" name="bottom"/>
  <anchor x="497" y="971" name="top"/>
  <outline>
    <contour>
      <point x="496" y="276" type="curve" smooth="yes"/>
      <point x="733" y="276"/>
      <point x="858" y="385"/>
      <point x="858" y="601" type="curve" smooth="yes"/>
      <point x="858" y="660" type="line" smooth="yes"/>
      <point x="858" y="824"/>
      <point x="788" y="947"/>
      <point x="571" y="970" type="curve"/>
      <point x="572" y="965" type="line"/>
      <point x="946" y="961" type="line"/>
      <point x="946" y="996" type="line"/>
      <point x="487" y="987" type="line" smooth="yes"/>
      <point x="233" y="982"/>
      <point x="131" y="847"/>
      <point x="131" y="658" type="curve" smooth="yes"/>
      <point x="131" y="604" type="line" smooth="yes"/>
      <point x="131" y="388"/>
      <point x="261" y="276"/>
    </contour>
    <contour>
      <point x="491" y="-336" type="line" smooth="yes"/>
      <point x="279" y="-336"/>
      <point x="128" y="-293"/>
      <point x="128" y="-151" type="curve" smooth="yes"/>
      <point x="128" y="-148" type="line" smooth="yes"/>
      <point x="128" y="-22"/>
      <point x="245" y="29"/>
      <point x="414" y="49" type="curve"/>
      <point x="381" y="48" type="line"/>
      <point x="636" y="28" type="line" smooth="yes"/>
      <point x="809" y="14"/>
      <point x="877" y="-46"/>
      <point x="877" y="-147" type="curve" smooth="yes"/>
      <point x="877" y="-151" type="line" smooth="yes"/>
      <point x="877" y="-289"/>
      <point x="723" y="-336"/>
      <point x="508" y="-336" type="curve" smooth="yes"/>
    </contour>
    <contour>
      <point x="508" y="-370" type="line" smooth="yes"/>
      <point x="747" y="-370"/>
      <point x="914" y="-312"/>
      <point x="914" y="-149" type="curve" smooth="yes"/>
      <point x="914" y="-145" type="line" smooth="yes"/>
      <point x="914" y="-31"/>
      <point x="835" y="42"/>
      <point x="641" y="59" type="curve" smooth="yes"/>
      <point x="410" y="79" type="line" smooth="yes"/>
      <point x="244" y="93"/>
      <point x="186" y="126"/>
      <point x="186" y="189" type="curve"/>
      <point x="186" y="190" type="line"/>
      <point x="186" y="250"/>
      <point x="231" y="280"/>
      <point x="367" y="282" type="curve"/>
      <point x="444" y="282" type="line"/>
      <point x="333" y="316" type="line"/>
      <point x="333" y="303" type="line"/>
      <point x="202" y="302"/>
      <point x="151" y="259"/>
      <point x="151" y="188" type="curve"/>
      <point x="151" y="187" type="line"/>
      <point x="151" y="111"/>
      <point x="215" y="67"/>
      <point x="370" y="55" type="curve"/>
      <point x="372" y="61" type="line"/>
      <point x="221" y="48"/>
      <point x="91" y="-7"/>
      <point x="91" y="-149" type="curve" smooth="yes"/>
      <point x="91" y="-153" type="line" smooth="yes"/>
      <point x="91" y="-318"/>
      <point x="255" y="-370"/>
      <point x="491" y="-370" type="curve" smooth="yes"/>
    </contour>
    <contour>
      <point x="496" y="309" type="curve" smooth="yes"/>
      <point x="278" y="309"/>
      <point x="168" y="411"/>
      <point x="168" y="604" type="curve" smooth="yes"/>
      <point x="168" y="658" type="line" smooth="yes"/>
      <point x="168" y="830"/>
      <point x="261" y="954"/>
      <point x="494" y="954" type="curve" smooth="yes"/>
      <point x="504" y="954" type="line" smooth="yes"/>
      <point x="712" y="954"/>
      <point x="821" y="846"/>
      <point x="821" y="660" type="curve" smooth="yes"/>
      <point x="821" y="601" type="line" smooth="yes"/>
      <point x="821" y="410"/>
      <point x="709" y="309"/>
    </contour>
  </outline>
</glyph>
<glyph name="dieresis" format="2">
  <advance width="564"/>
  <unicode hex="00A8"/>
  <anchor x="282" y="971" name="_top"/>
  <anchor x="282" y="1300" name="top"/>
  <outline>
    <contour>
      <point x="149" y="1182" type="curve" smooth="yes"/>
      <point x="178" y="1182"/>
      <point x="192" y="1200"/>
      <point x="192" y="1237" type="curve" smooth="yes"/>
      <point x="192" y="1243" type="line" smooth="yes"/>
      <point x="192" y="1278"/>
      <point x="178" y="1296"/>
      <point x="149" y="1296" type="curve" smooth="yes"/>
      <point x="120" y="1296"/>
      <point x="106" y="1278"/>
      <point x="106" y="1243" type="curve" smooth="yes"/>
      <point x="106" y="1237" type="line" smooth="yes"/>
      <point x="106" y="1200"/>
      <point x="120" y="1182"/>
    </contour>
    <contour>
      <point x="416" y="1182" type="curve" smooth="yes"/>
      <point x="444" y="1182"/>
      <point x="458" y="1200"/>
      <point x="458" y="1237" type="curve" smooth="yes"/>
      <point x="458" y="1243" type="line" smooth="yes"/>
      <point x="458" y="1278"/>
      <point x="444" y="1296"/>
      <point x="416" y="1296" type="curve" smooth="yes"/>
      <point x="387" y="1296"/>
      <point x="373" y="1278"/>
      <point x="373" y="1243" type="curve" smooth="yes"/>
      <point x="373" y="1237" type="line" smooth="yes"/>
      <point x="373" y="1200"/>
      <point x="387" y="1182"/>
    </contour>
  </outline>
</glyph>
<glyph name="acute" format="2">
  <advance width="472"/>
  <unicode hex="00B4"/>
  <anchor x="121" y="971" name="_top"/>
  <anchor x="126" y="1295" name="top"/>
  <outline>
    <contour>
      <point x="104" y="1112" type="line"/>
      <point x="104" y="1111" type="line"/>
      <point x="143" y="1111" type="line"/>
      <point x="364" y="1358" type="line"/>
      <point x="364" y="1360" type="line"/>
      <point x="316" y="1360" type="line"/>
    </contour>
  </outline>
</glyph>
<glyph name="threequarters" format="2">
  <advance width="1493"/>
  <unicode hex="00BE"/>
  <outline>
    <contour>
      <point x="289" y="590" type="curve" smooth="yes"/>
      <point x="470" y="590"/>
      <point x="539" y="675"/>
      <point x="539" y="776" type="curve" smooth="yes"/>
      <point x="539" y="791" type="line" smooth="yes"/>
      <point x="539" y="884"/>
      <point x="488" y="947"/>
      <point x="355" y="953" type="curve"/>
      <point x="349" y="950" type="line"/>
      <point x="355" y="950" type="line"/>
      <point x="486" y="953"/>
      <point x="532" y="1028"/>
      <point x="532" y="1104" type="curve" smooth="yes"/>
      <point x="532" y="1118" type="line" smooth="yes"/>
      <point x="532" y="1224"/>
      <point x="461" y="1287"/>
      <point x="299" y="1287" type="curve" smooth="yes"/>
      <point x="190" y="1287"/>
      <point x="111" y="1258"/>
      <point x="69" y="1232" type="curve"/>
      <point x="65" y="1197" type="line"/>
      <point x="119" y="1227"/>
      <point x="193" y="1255"/>
      <point x="296" y="1255" type="curve" smooth="yes"/>
      <point x="434" y="1255"/>
      <point x="496" y="1203"/>
      <point x="496" y="1116" type="curve" smooth="yes"/>
      <point x="496" y="1104" type="line" smooth="yes"/>
      <point x="496" y="1022"/>
      <point x="441" y="966"/>
      <point x="305" y="965" type="curve" smooth="yes"/>
      <point x="170" y="964" type="line"/>
      <point x="170" y="935" type="line"/>
      <point x="309" y="934" type="line" smooth="yes"/>
      <point x="445" y="933"/>
      <point x="503" y="887"/>
      <point x="503" y="792" type="curve" smooth="yes"/>
      <point x="503" y="779" type="line" smooth="yes"/>
      <point x="503" y="687"/>
      <point x="440" y="622"/>
      <point x="291" y="622" type="curve" smooth="yes"/>
      <point x="197" y="622"/>
      <point x="112" y="649"/>
      <point x="60" y="676" type="curve"/>
      <point x="64" y="640" type="line"/>
      <point x="103" y="620"/>
      <point x="181" y="590"/>
    </contour>
    <contour>
      <point x="424" y="0" type="line"/>
      <point x="1253" y="1278" type="line"/>
      <point x="1212" y="1278" type="line"/>
      <point x="383" y="0" type="line"/>
    </contour>
    <contour>
      <point x="1355" y="0" type="line"/>
      <point x="1355" y="678" type="line"/>
      <point x="1281" y="678" type="line"/>
      <point x="925" y="183" type="line"/>
      <point x="925" y="143" type="line"/>
      <point x="1471" y="143" type="line"/>
      <point x="1471" y="173" type="line"/>
      <point x="945" y="173" type="line"/>
      <point x="961" y="156" type="line"/>
      <point x="961" y="178" type="line"/>
      <point x="1301" y="650" type="line"/>
      <point x="1323" y="650" type="line"/>
      <point x="1321" y="508" type="line"/>
      <point x="1321" y="0" type="line"/>
    </contour>
  </outline>
</glyph>
<glyph name="Acircumflex" format="2">
  <advance width="1097"/>
  <unicode hex="00C2"/>
  <anchor x="549" y="0" name="bottom"/>
  <anchor x="1071" y="0" name="ogonek"/>
  <anchor x="551" y="1585" name="top"/>
  <outline>
    <contour>
      <point x="117" y="0" type="line"/>
      <point x="534" y="1246" type="line"/>
      <point x="561" y="1246" type="line"/>
      <point x="980" y="0" type="line"/>
      <point x="1021" y="0" type="line"/>
      <point x="589" y="1278" type="line"/>
      <point x="506" y="1278" type="line"/>
      <point x="76" y="0" type="line"/>
    </contour>
    <contour>
      <point x="842" y="452" type="line"/>
      <point x="842" y="487" type="line"/>
      <point x="254" y="487" type="line"/>
      <point x="254" y="452" type="line"/>
    </contour>
    <contour>
      <point x="285" y="1419" type="line"/>
      <point x="285" y="1418" type="line"/>
      <point x="327" y="1418" type="line"/>
      <point x="546" y="1616" type="line"/>
      <point x="552" y="1616" type="line"/>
      <point x="771" y="1418" type="line"/>
      <point x="813" y="1418" type="line"/>
      <point x="813" y="1419" type="line"/>
      <point x="573" y="1647" type="line"/>
      <point x="525" y="1647" type="line"/>
    </contour>
  </outline>
</glyph>
<glyph name="Edieresis" format="2">
  <advance width="1014"/>
  <unicode hex="00CB"/>
  <anchor x="548" y="0" name="bottom"/>
  <anchor x="950" y="0" name="ogonek"/>
  <anchor x="548" y="1570" name="top"/>
  <anchor x="26" y="1278" name="topleft"/>
  <outline>
    <contour>
      <point x="224" y="0" type="line"/>
      <point x="224" y="1278" type="line"/>
      <point x="185" y="1278" type="line"/>
      <point x="185" y="0" type="line"/>
    </contour>
    <contour>
      <point x="898" y="0" type="line"/>
      <point x="898" y="35" type="line"/>
      <point x="198" y="35" type="line"/>
      <point x="198" y="0" type="line"/>
    </contour>
    <contour>
      <point x="879" y="638" type="line"/>
      <point x="879" y="673" type="line"/>
      <point x="205" y="673" type="line"/>
      <point x="205" y="638" type="line"/>
    </contour>
    <contour>
      <point x="893" y="1243" type="line"/>
      <point x="893" y="1278" type="line"/>
      <point x="196" y="1278" type="line"/>
      <point x="196" y="1243" type="line"/>
    </contour>
    <contour>
      <point x="415" y="1477" type="curve" smooth="yes"/>
      <point x="444" y="1477"/>
      <point x="458" y="1495"/>
      <point x="458" y="1532" type="curve" smooth="yes"/>
      <point x="458" y="1538" type="line" smooth="yes"/>
      <point x="458" y="1573"/>
      <point x="444" y="1591"/>
      <point x="415" y="1591" type="curve" smooth="yes"/>
      <point x="386" y="1591"/>
      <point x="372" y="1573"/>
      <point x="372" y="1538" type="curve" smooth="yes"/>
      <point x="372" y="1532" type="line" smooth="yes"/>
      <point x="372" y="1495"/>
      <point x="386" y="1477"/>
    </contour>
    <contour>
      <point x="682" y="1477" type="curve" smooth="yes"/>
      <point x="710" y="1477"/>
      <point x="724" y="1495"/>
      <point x="724" y="1532" type="curve" smooth="yes"/>
      <point x="724" y="1538" type="line" smooth="yes"/>
      <point x="724" y="1573"/>
      <point x="710" y="1591"/>
      <point x="682" y="1591" type="curve" smooth="yes"/>
      <point x="653" y="1591"/>
      <point x="639" y="1573"/>
      <point x="639" y="1538" type="curve" smooth="yes"/>
      <point x="639" y="1532" type="line" smooth="yes"/>
      <point x="639" y="1495"/>
      <point x="653" y="1477"/>
    </contour>
  </outline>
</glyph>
<glyph name="Igrave" format="2">
  <advance width="415"/>
  <unicode hex="00CC"/>
  <anchor x="208" y="0" name="bottom"/>
  <anchor x="279" y="0" name="ogonek"/>
  <anchor x="93" y="1585" name="top"/>
  <anchor x="26" y="1278" name="topleft"/>
  <outline>
    <contour>
      <point x="227" y="1278" type="line"/>
      <point x="188" y="1278" type="line"/>
      <point x="188" y="0" type="line"/>
      <point x="227" y="0" type="line"/>
    </contour>
    <contour>
      <point x="-81" y="1647" type="line"/>
      <point x="-81" y="1645" type="line"/>
      <point x="186" y="1418" type="line"/>
      <point x="231" y="1418" type="line"/>
      <point x="231" y="1419" type="line"/>
      <point x="-29" y="1647" type="line"/>
    </contour>
  </outline>
</glyph>
<glyph name="Idieresis" format="2">
  <advance width="415"/>
  <unicode hex="00CF"/>
  <anchor x="208" y="0" name="bottom"/>
  <anchor x="279" y="0" name="ogonek"/>
  <anchor x="208" y="1570" name="top"/>
  <anchor x="26" y="1278" name="topleft"/>
  <outline>
    <contour>
      <point x="227" y="1278" type="line"/>
      <point x="188" y="1278" type="line"/>
      <point x="188" y="0" type="line"/>
      <point x="227" y="0" type="line"/>
    </contour>
    <contour>
      <point x="75" y="1477" type="curve" smooth="yes"/>
      <point x="104" y="1477"/>
      <point x="118" y="1495"/>
      <point x="118" y="1532" type="curve" smooth="yes"/>
      <point x="118" y="1538" type="line" smooth="yes"/>
      <point x="118" y="1573"/>
      <point x="104" y="1591"/>
      <point x="75" y="1591" type="curve" smooth="yes"/>
      <point x="46" y="1591"/>
      <point x="32" y="1573"/>
      <point x="32" y="1538" type="curve" smooth="yes"/>
      <point x="32" y="1532" type="line" smooth="yes"/>
      <point x="32" y="1495"/>
      <point x="46" y="1477"/>
    </contour>
    <contour>
      <point x="342" y="1477" type="curve" smooth="yes"/>
      <point x="370" y="1477"/>
      <point x="384" y="1495"/>
      <point x="384" y="1532" type="curve" smooth="yes"/>
      <point x="384" y="1538" type="line" smooth="yes"/>
      <point x="384" y="1573"/>
      <point x="370" y="1591"/>
      <point x="342" y="1591" type="curve" smooth="yes"/>
      <point x="313" y="1591"/>
      <point x="299" y="1573"/>
      <point x="299" y="1538" type="curve" smooth="yes"/>
      <point x="299" y="1532" type="line" smooth="yes"/>
      <point x="299" y="1495"/>
      <point x="313" y="1477"/>
    </contour>
  </outline>
</glyph>
<glyph name="Ntilde" format="2">
  <advance width="1189"/>
  <unicode hex="00D1"/>
  <anchor x="595" y="0" name="bottom"/>
  <anchor x="595" y="1582" name="top"/>
  <outline>
    <contour>
      <point x="185" y="1278" type="line"/>
      <point x="185" y="0" type="line"/>
      <point x="224" y="0" type="line"/>
      <point x="224" y="626" type="line"/>
      <point x="222" y="1246" type="line"/>
      <point x="236" y="1246" type="line"/>
      <point x="929" y="0" type="line"/>
      <point x="1004" y="0" type="line"/>
      <point x="1004" y="1278" type="line"/>
      <point x="965" y="1278" type="line"/>
      <point x="965" y="611" type="line"/>
      <point x="967" y="33" type="line"/>
      <point x="953" y="33" type="line"/>
      <point x="260" y="1278" type="line"/>
    </contour>
    <contour>
      <point x="736" y="1448" type="curve" smooth="yes"/>
      <point x="815" y="1448"/>
      <point x="839" y="1499"/>
      <point x="839" y="1569" type="curve" smooth="yes"/>
      <point x="839" y="1601" type="line"/>
      <point x="807" y="1601" type="line"/>
      <point x="807" y="1571" type="line" smooth="yes"/>
      <point x="807" y="1513"/>
      <point x="788" y="1481"/>
      <point x="737" y="1481" type="curve" smooth="yes"/>
      <point x="643" y="1481"/>
      <point x="561" y="1593"/>
      <point x="453" y="1593" type="curve" smooth="yes"/>
      <point x="374" y="1593"/>
      <point x="350" y="1541"/>
      <point x="350" y="1471" type="curve" smooth="yes"/>
      <point x="350" y="1439" type="line"/>
      <point x="382" y="1439" type="line"/>
      <point x="382" y="1470" type="line" smooth="yes"/>
      <point x="382" y="1528"/>
      <point x="401" y="1560"/>
      <point x="452" y="1560" type="curve" smooth="yes"/>
      <point x="545" y="1560"/>
      <point x="626" y="1448"/>
    </contour>
  </outline>
</glyph>
<glyph name="Odieresis" format="2">
  <advance width="1133"/>
  <unicode hex="00D6"/>
  <anchor x="567" y="0" name="bottom"/>
  <anchor x="567" y="639" name="center"/>
  <anchor x="759" y="5" name="ogonek"/>
  <anchor x="567" y="1570" name="top"/>
  <anchor x="7" y="1278" name="topleft"/>
  <anchor x="896" y="1278" name="topright"/>
  <outline>
    <contour>
      <point x="566" y="-18" type="curve" smooth="yes"/>
      <point x="850" y="-18"/>
      <point x="1006" y="156"/>
      <point x="1006" y="465" type="curve" smooth="yes"/>
      <point x="1006" y="813" type="line" smooth="yes"/>
      <point x="1006" y="1122"/>
      <point x="850" y="1296"/>
      <point x="566" y="1296" type="curve" smooth="yes"/>
      <point x="282" y="1296"/>
      <point x="127" y="1122"/>
      <point x="127" y="813" type="curve" smooth="yes"/>
      <point x="127" y="465" type="line" smooth="yes"/>
      <point x="127" y="156"/>
      <point x="282" y="-18"/>
    </contour>
    <contour>
      <point x="566" y="18" type="curve" smooth="yes"/>
      <point x="304" y="18"/>
      <point x="166" y="180"/>
      <point x="166" y="465" type="curve" smooth="yes"/>
      <point x="166" y="814" type="line" smooth="yes"/>
      <point x="166" y="1099"/>
      <point x="304" y="1260"/>
      <point x="566" y="1260" type="curve" smooth="yes"/>
      <point x="829" y="1260"/>
      <point x="967" y="1099"/>
      <point x="967" y="814" type="curve" smooth="yes"/>
      <point x="967" y="465" type="line" smooth="yes"/>
      <point x="967" y="180"/>
      <point x="829" y="18"/>
    </contour>
    <contour>
      <point x="434" y="1477" type="curve" smooth="yes"/>
      <point x="463" y="1477"/>
      <point x="477" y="1495"/>
      <point x="477" y="1532" type="curve" smooth="yes"/>
      <point x="477" y="1538" type="line" smooth="yes"/>
      <point x="477" y="1573"/>
      <point x="463" y="1591"/>
      <point x="434" y="1591" type="curve" smooth="yes"/>
      <point x="405" y="1591"/>
      <point x="391" y="1573"/>
      <point x="391" y="1538" type="curve" smooth="yes"/>
      <point x="391" y="1532" type="line" smooth="yes"/>
      <point x="391" y="1495"/>
      <point x="405" y="1477"/>
    </contour>
    <contour>
      <point x="701" y="1477" type="curve" smooth="yes"/>
      <point x="729" y="1477"/>
      <point x="743" y="1495"/>
      <point x="743" y="1532" type="curve" smooth="yes"/>
      <point x="743" y="1538" type="line" smooth="yes"/>
      <point x="743" y="1573"/>
      <point x="729" y="1591"/>
      <point x="701" y="1591" type="curve" smooth="yes"/>
      <point x="672" y="1591"/>
      <point x="658" y="1573"/>
      <point x="658" y="1538" type="curve" smooth="yes"/>
      <point x="658" y="1532" type="line" smooth="yes"/>
      <point x="658" y="1495"/>
      <point x="672" y="1477"/>
    </contour>
  </outline>
</glyph>
<glyph name="Ucircumflex" format="2">
  <advance width="1170"/>
  <unicode hex="00DB"/>
  <anchor x="585" y="0" name="bottom"/>
  <anchor x="779" y="5" name="ogonek"/>
  <anchor x="587" y="1585" name="top"/>
  <anchor x="1129" y="1278" name="topright"/>
  <outline>
    <contour>
      <point x="585" y="-18" type="curve" smooth="yes"/>
      <point x="860" y="-18"/>
      <point x="996" y="145"/>
      <point x="996" y="435" type="curve" smooth="yes"/>
      <point x="996" y="1278" type="line"/>
      <point x="957" y="1278" type="line"/>
      <point x="957" y="435" type="line" smooth="yes"/>
      <point x="957" y="169"/>
      <point x="839" y="18"/>
      <point x="585" y="18" type="curve" smooth="yes"/>
      <point x="331" y="18"/>
      <point x="213" y="169"/>
      <point x="213" y="435" type="curve" smooth="yes"/>
      <point x="213" y="1278" type="line"/>
      <point x="174" y="1278" type="line"/>
      <point x="174" y="435" type="line" smooth="yes"/>
      <point x="174" y="145"/>
      <point x="309" y="-18"/>
    </contour>
    <contour>
      <point x="321" y="1419" type="line"/>
      <point x="321" y="1418" type="line"/>
      <point x="363" y="1418" type="line"/>
      <point x="582" y="1616" type="line"/>
      <point x="588" y="1616" type="line"/>
      <point x="807" y="1418" type="line"/>
      <point x="849" y="1418" type="line"/>
      <point x="849" y="1419" type="line"/>
      <point x="609" y="1647" type="line"/>
      <point x="561" y="1647" type="line"/>
    </contour>
  </outline>
</glyph>
<glyph name="Yacute" format="2">
  <advance width="1039"/>
  <unicode hex="00DD"/>
  <anchor x="520" y="0" name="bottom"/>
  <anchor x="520" y="1585" name="top"/>
  <anchor x="26" y="1278" name="topleft"/>
  <outline>
    <contour>
      <point x="537" y="427" type="line"/>
      <point x="973" y="1278" type="line"/>
      <point x="930" y="1278" type="line"/>
      <point x="636" y="702" type="line"/>
      <point x="525" y="485" type="line"/>
      <point x="514" y="485" type="line"/>
      <point x="403" y="702" type="line"/>
      <point x="109" y="1278" type="line"/>
      <point x="66" y="1278" type="line"/>
      <point x="502" y="427" type="line"/>
    </contour>
    <contour>
      <point x="539" y="0" type="line"/>
      <point x="539" y="471" type="line"/>
      <point x="500" y="471" type="line"/>
      <point x="500" y="0" type="line"/>
    </contour>
    <contour>
      <point x="502" y="1419" type="line"/>
      <point x="502" y="1418" type="line"/>
      <point x="547" y="1418" type="line"/>
      <point x="814" y="1645" type="line"/>
      <point x="814" y="1647" type="line"/>
      <point x="762" y="1647" type="line"/>
    </contour>
  </outline>
</glyph>
<glyph name="atilde" format="2">
  <advance width="938"/>
  <unicode hex="00E3"/>
  <anchor x="457" y="0" name="bottom"/>
  <anchor x="839" y="0" name="ogonek"/>
  <anchor x="457" y="1290" name="top"/>
  <outline>
    <contour>
      <point x="792" y="0" type="line"/>
      <point x="792" y="670" type="line" smooth="yes"/>
      <point x="792" y="873"/>
      <point x="688" y="990"/>
      <point x="467" y="990" type="curve" smooth="yes"/>
      <point x="306" y="990"/>
      <point x="194" y="930"/>
      <point x="132" y="882" type="curve"/>
      <point x="127" y="840" type="line"/>
      <point x="206" y="900"/>
      <point x="321" y="956"/>
      <point x="467" y="956" type="curve" smooth="yes"/>
      <point x="663" y="956"/>
      <point x="755" y="855"/>
      <point x="755" y="669" type="curve" smooth="yes"/>
      <point x="755" y="584" type="line"/>
      <point x="755" y="263" type="line"/>
      <point x="758" y="256" type="line"/>
      <point x="754" y="0" type="line"/>
    </contour>
    <contour>
      <point x="400" y="-19" type="curve" smooth="yes"/>
      <point x="628" y="-19"/>
      <point x="751" y="125"/>
      <point x="768" y="284" type="curve"/>
      <point x="780" y="284" type="line"/>
      <point x="761" y="321" type="line"/>
      <point x="734" y="146"/>
      <point x="613" y="14"/>
      <point x="405" y="14" type="curve" smooth="yes"/>
      <point x="230" y="14"/>
      <point x="135" y="94"/>
      <point x="135" y="248" type="curve" smooth="yes"/>
      <point x="135" y="271" type="line" smooth="yes"/>
      <point x="135" y="410"/>
      <point x="218" y="476"/>
      <point x="418" y="505" type="curve" smooth="yes"/>
      <point x="774" y="557" type="line"/>
      <point x="773" y="591" type="line"/>
      <point x="411" y="537" type="line" smooth="yes"/>
      <point x="185" y="503"/>
      <point x="98" y="424"/>
      <point x="98" y="269" type="curve" smooth="yes"/>
      <point x="98" y="246" type="line" smooth="yes"/>
      <point x="98" y="72"/>
      <point x="206" y="-19"/>
    </contour>
    <contour>
      <point x="589" y="1151" type="curve" smooth="yes"/>
      <point x="658" y="1151"/>
      <point x="689" y="1193"/>
      <point x="689" y="1278" type="curve" smooth="yes"/>
      <point x="689" y="1307" type="line"/>
      <point x="657" y="1307" type="line"/>
      <point x="657" y="1280" type="line" smooth="yes"/>
      <point x="657" y="1213"/>
      <point x="637" y="1184"/>
      <point x="589" y="1184" type="curve" smooth="yes"/>
      <point x="508" y="1184"/>
      <point x="430" y="1299"/>
      <point x="334" y="1299" type="curve" smooth="yes"/>
      <point x="265" y="1299"/>
      <point x="234" y="1256"/>
      <point x="234" y="1171" type="curve" smooth="yes"/>
      <point x="234" y="1142" type="line"/>
      <point x="265" y="1142" type="line"/>
      <point x="265" y="1170" type="line" smooth="yes"/>
      <point x="265" y="1237"/>
      <point x="286" y="1266"/>
      <point x="334" y="1266" type="curve" smooth="yes"/>
      <point x="414" y="1266"/>
      <point x="491" y="1151"/>
    </contour>
  </outline>
</glyph>
<glyph name="edieresis" format="2">
  <advance width="950"/>
  <unicode hex="00EB"/>
  <anchor x="489" y="0" name="bottom"/>
  <anchor x="713" y="5" name="ogonek"/>
  <anchor x="482" y="1300" name="top"/>
  <outline>
    <contour>
      <point x="503" y="-19" type="curve" smooth="yes"/>
      <point x="633" y="-19"/>
      <point x="745" y="22"/>
      <point x="824" y="86" type="curve"/>
      <point x="829" y="130" type="line"/>
      <point x="736" y="56"/>
      <point x="630" y="16"/>
      <point x="504" y="16" type="curve" smooth="yes"/>
      <point x="284" y="16"/>
      <point x="155" y="144"/>
      <point x="155" y="362" type="curve" smooth="yes"/>
      <point x="155" y="479" type="line"/>
      <point x="155" y="487" type="line"/>
      <point x="155" y="585" type="line" smooth="yes"/>
      <point x="155" y="830"/>
      <point x="269" y="961"/>
      <point x="483" y="961" type="curve" smooth="yes"/>
      <point x="695" y="961"/>
      <point x="810" y="829"/>
      <point x="810" y="592" type="curve" smooth="yes"/>
      <point x="810" y="556"/>
      <point x="810" y="513"/>
      <point x="810" y="466" type="curve"/>
      <point x="844" y="466" type="line"/>
      <point x="847" y="502"/>
      <point x="847" y="529"/>
      <point x="847" y="559" type="curve" smooth="yes"/>
      <point x="847" y="593" type="line" smooth="yes"/>
      <point x="847" y="848"/>
      <point x="717" y="994"/>
      <point x="483" y="994" type="curve" smooth="yes"/>
      <point x="245" y="994"/>
      <point x="118" y="851"/>
      <point x="118" y="585" type="curve" smooth="yes"/>
      <point x="118" y="361" type="line" smooth="yes"/>
      <point x="118" y="120"/>
      <point x="259" y="-19"/>
    </contour>
    <contour>
      <point x="831" y="466" type="line"/>
      <point x="831" y="499" type="line"/>
      <point x="135" y="499" type="line"/>
      <point x="135" y="466" type="line"/>
    </contour>
    <contour>
      <point x="349" y="1182" type="curve" smooth="yes"/>
      <point x="378" y="1182"/>
      <point x="392" y="1200"/>
      <point x="392" y="1237" type="curve" smooth="yes"/>
      <point x="392" y="1243" type="line" smooth="yes"/>
      <point x="392" y="1278"/>
      <point x="378" y="1296"/>
      <point x="349" y="1296" type="curve" smooth="yes"/>
      <point x="320" y="1296"/>
      <point x="306" y="1278"/>
      <point x="306" y="1243" type="curve" smooth="yes"/>
      <point x="306" y="1237" type="line" smooth="yes"/>
      <point x="306" y="1200"/>
      <point x="320" y="1182"/>
    </contour>
    <contour>
      <point x="616" y="1182" type="curve" smooth="yes"/>
      <point x="644" y="1182"/>
      <point x="658" y="1200"/>
      <point x="658" y="1237" type="curve" smooth="yes"/>
      <point x="658" y="1243" type="line" smooth="yes"/>
      <point x="658" y="1278"/>
      <point x="644" y="1296"/>
      <point x="616" y="1296" type="curve" smooth="yes"/>
      <point x="587" y="1296"/>
      <point x="573" y="1278"/>
      <point x="573" y="1243" type="curve" smooth="yes"/>
      <point x="573" y="1237" type="line" smooth="yes"/>
      <point x="573" y="1200"/>
      <point x="587" y="1182"/>
    </contour>
  </outline>
</glyph>
<glyph name="icircumflex" format="2">
  <advance width="372"/>
  <unicode hex="00EE"/>
  <anchor x="186" y="0" name="bottom"/>
  <anchor x="252" y="0" name="ogonek"/>
  <anchor x="186" y="1295" name="top"/>
  <outline>
    <contour>
      <point x="205" y="0" type="line"/>
      <point x="205" y="971" type="line"/>
      <point x="167" y="971" type="line"/>
      <point x="167" y="0" type="line"/>
    </contour>
    <contour>
      <point x="-1" y="1111" type="line"/>
      <point x="-1" y="1111" type="line"/>
      <point x="35" y="1111" type="line"/>
      <point x="183" y="1328" type="line"/>
      <point x="189" y="1328" type="line"/>
      <point x="337" y="1111" type="line"/>
      <point x="373" y="1111" type="line"/>
      <point x="373" y="1111" type="line"/>
      <point x="210" y="1360" type="line"/>
      <point x="162" y="1360" type="line"/>
    </contour>
  </outline>
</glyph>
<glyph name="ntilde" format="2">
  <advance width="1016"/>
  <unicode hex="00F1"/>
  <anchor x="509" y="0" name="bottom"/>
  <anchor x="509" y="1290" name="top"/>
  <outline>
    <contour>
      <point x="869" y="0" type="line"/>
      <point x="869" y="622" type="line" smooth="yes"/>
      <point x="869" y="850"/>
      <point x="783" y="990"/>
      <point x="542" y="990" type="curve" smooth="yes"/>
      <point x="327" y="990"/>
      <point x="203" y="851"/>
      <point x="185" y="688" type="curve"/>
      <point x="174" y="688" type="line"/>
      <point x="192" y="650" type="line"/>
      <point x="219" y="828"/>
      <point x="341" y="957"/>
      <point x="540" y="957" type="curve" smooth="yes"/>
      <point x="754" y="957"/>
      <point x="832" y="831"/>
      <point x="832" y="620" type="curve" smooth="yes"/>
      <point x="832" y="0" type="line"/>
    </contour>
    <contour>
      <point x="199" y="0" type="line"/>
      <point x="199" y="717" type="line"/>
      <point x="195" y="717" type="line"/>
      <point x="199" y="971" type="line"/>
      <point x="162" y="971" type="line"/>
      <point x="162" y="0" type="line"/>
    </contour>
    <contour>
      <point x="641" y="1151" type="curve" smooth="yes"/>
      <point x="710" y="1151"/>
      <point x="741" y="1193"/>
      <point x="741" y="1278" type="curve" smooth="yes"/>
      <point x="741" y="1307" type="line"/>
      <point x="709" y="1307" type="line"/>
      <point x="709" y="1280" type="line" smooth="yes"/>
      <point x="709" y="1213"/>
      <point x="689" y="1184"/>
      <point x="641" y="1184" type="curve" smooth="yes"/>
      <point x="560" y="1184"/>
      <point x="482" y="1299"/>
      <point x="386" y="1299" type="curve" smooth="yes"/>
      <point x="317" y="1299"/>
      <point x="286" y="1256"/>
      <point x="286" y="1171" type="curve" smooth="yes"/>
      <point x="286" y="1142" type="line"/>
      <point x="317" y="1142" type="line"/>
      <point x="317" y="1170" type="line" smooth="yes"/>
      <point x="317" y="1237"/>
      <point x="338" y="1266"/>
      <point x="386" y="1266" type="curve" smooth="yes"/>
      <point x="466" y="1266"/>
      <point x="543" y="1151"/>
    </contour>
  </outline>
</glyph>
<glyph name="ograve" format="2">
  <advance width="998"/>
  <unicode hex="00F2"/>
  <anchor x="499" y="0" name="bottom"/>
  <anchor x="508" y="307" name="center"/>
  <anchor x="691" y="0" name="ogonek"/>
  <anchor x="384" y="1295" name="top"/>
  <anchor x="823" y="971" name="topright"/>
  <outline>
    <contour>
      <point x="499" y="-23" type="curve" smooth="yes"/>
      <point x="747" y="-23"/>
      <point x="880" y="125"/>
      <point x="880" y="395" type="curve" smooth="yes"/>
      <point x="880" y="578" type="line" smooth="yes"/>
      <point x="880" y="847"/>
      <point x="747" y="994"/>
      <point x="499" y="994" type="curve" smooth="yes"/>
      <point x="251" y="994"/>
      <point x="118" y="847"/>
      <point x="118" y="578" type="curve" smooth="yes"/>
      <point x="118" y="395" type="line" smooth="yes"/>
      <point x="118" y="126"/>
      <point x="250" y="-23"/>
    </contour>
    <contour>
      <point x="499" y="10" type="curve" smooth="yes"/>
      <point x="275" y="10"/>
      <point x="155" y="145"/>
      <point x="155" y="395" type="curve" smooth="yes"/>
      <point x="155" y="578" type="line" smooth="yes"/>
      <point x="155" y="826"/>
      <point x="275" y="961"/>
      <point x="499" y="961" type="curve" smooth="yes"/>
      <point x="723" y="961"/>
      <point x="843" y="826"/>
      <point x="843" y="578" type="curve" smooth="yes"/>
      <point x="843" y="395" type="line" smooth="yes"/>
      <point x="843" y="145"/>
      <point x="722" y="10"/>
    </contour>
    <contour>
      <point x="257" y="1360" type="line"/>
      <point x="257" y="1358" type="line"/>
      <point x="478" y="1111" type="line"/>
      <point x="517" y="1111" type="line"/>
      <point x="517" y="1112" type="line"/>
      <point x="305" y="1360" type="line"/>
    </contour>
  </outline>
</glyph>
<glyph name="yacute" format="2">
  <advance width="939"/>
  <unicode hex="00FD"/>
  <anchor x="639" y="-5" name="bottom"/>
  <anchor x="474" y="1295" name="top"/>
  <outline>
    <contour>
      <point x="458" y="71" type="line"/>
      <point x="110" y="971" type="line"/>
      <point x="69" y="971" type="line"/>
      <point x="432" y="38" type="line"/>
      <point x="483" y="38" type="line"/>
      <point x="473" y="53" type="line"/>
      <point x="320" y="-344" type="line"/>
      <point x="361" y="-344" type="line"/>
      <point x="870" y="971" type="line"/>
      <point x="829" y="971" type="line"/>
      <point x="476" y="62" type="line"/>
      <point x="493" y="71" type="line"/>
    </contour>
    <contour>
      <point x="452" y="1112" type="line"/>
      <point x="452" y="1111" type="line"/>
      <point x="491" y="1111" type="line"/>
      <point x="712" y="1358" type="line"/>
      <point x="712" y="1360" type="line"/>
      <point x="664" y="1360" type="line"/>
    </contour>
  </outline>
</glyph>
<glyph name="ringcomb" format="2">
  <advance width="525"/>
  <unicode hex="030A"/>
  <anchor x="262" y="971" name="_top"/>
  <anchor x="263" y="1357" name="top"/>
  <outline>
    <contour>
      <point x="111" y="1253" type="line"/>
      <point x="111" y="1164"/>
      <point x="169" y="1108"/>
      <point x="263" y="1108" type="curve" smooth="yes"/>
      <point x="356" y="1108"/>
      <point x="414" y="1164"/>
      <point x="414" y="1253" type="curve"/>
      <point x="414" y="1255" type="line"/>
      <point x="414" y="1346"/>
      <point x="356" y="1401"/>
      <point x="263" y="1401" type="curve" smooth="yes"/>
      <point x="169" y="1401"/>
      <point x="111" y="1346"/>
      <point x="111" y="1255" type="curve"/>
    </contour>
    <contour>
      <point x="144" y="1255" type="line"/>
      <point x="144" y="1328"/>
      <point x="187" y="1371"/>
      <point x="263" y="1371" type="curve" smooth="yes"/>
      <point x="339" y="1371"/>
      <point x="382" y="1328"/>
      <point x="382" y="1255" type="curve"/>
      <point x="382" y="1253" type="line"/>
      <point x="382" y="1181"/>
      <point x="339" y="1139"/>
      <point x="263" y="1139" type="curve" smooth="yes"/>
      <point x="187" y="1139"/>
      <point x="144" y="1181"/>
      <point x="144" y="1253" type="curve"/>
    </contour>
  </outline>
</glyph>
<glyph name="uni0900" format="2">
  <unicode hex="0900"/>
  <anchor x="-243" y="1241.5" name="_top"/>
  <outline>
    <contour>
      <point x="-245.5" y="1561" type="curve" smooth="yes"/>
      <point x="-214.5" y="1561"/>
      <point x="-200" y="1538.5"/>
      <point x="-200" y="1500.5" type="curve" smooth="yes"/>
      <point x="-200" y="1492" type="line" smooth="yes"/>
      <point x="-200" y="1454.5"/>
      <point x="-214.5" y="1432.5"/>
      <point x="-245.5" y="1432.5" type="curve" smooth="yes"/>
      <point x="-276.5" y="1432.5"/>
      <point x="-290.5" y="1454.5"/>
      <point x="-290.5" y="1492" type="curve" smooth="yes"/>
      <point x="-290.5" y="1500.5" type="line" smooth="yes"/>
      <point x="-290.5" y="1538.5"/>
      <point x="-276.5" y="1561"/>
    </contour>
    <contour>
      <point x="-517" y="1506.5" type="line"/>
      <point x="-517" y="1520.5"/>
      <point x="-517" y="1528.5"/>
      <point x="-517" y="1538" type="curve" smooth="yes"/>
      <point x="-517" y="1720"/>
      <point x="-423.5" y="1803.5"/>
      <point x="-245" y="1803.5" type="curve" smooth="yes"/>
      <point x="-70.5" y="1803.5"/>
      <point x="24" y="1720"/>
      <point x="24" y="1538" type="curve" smooth="yes"/>
      <point x="24" y="1528.5"/>
      <point x="24" y="1520.5"/>
      <point x="24" y="1506.5" type="curve"/>
      <point x="-10.5" y="1506.5" type="line"/>
      <point x="-10.5" y="1535.5" type="line" smooth="yes"/>
      <point x="-10.5" y="1700.5"/>
      <point x="-93" y="1772"/>
      <point x="-245" y="1772" type="curve" smooth="yes"/>
      <point x="-401" y="1772"/>
      <point x="-482.5" y="1700.5"/>
      <point x="-482.5" y="1535.5" type="curve" smooth="yes"/>
      <point x="-482.5" y="1506.5" type="line"/>
    </contour>
  </outline>
  <guideline angle="90" x="-169" y="0"/>
  <guideline angle="0" x="0" y="1262"/>
</glyph>
<glyph name="Bindu.dv" format="2">
  <unicode hex="0902"/>
  <anchor x="-243" y="1241.5" name="_top"/>
  <outline>
    <contour>
      <point x="-243.013" y="1510.5" type="curve" smooth="yes"/>
      <point x="-279.294" y="1510.5"/>
      <point x="-294.5" y="1533"/>
      <point x="-294.5" y="1574" type="curve" smooth="yes"/>
      <point x="-294.5" y="1579" type="line" smooth="yes"/>
      <point x="-294.5" y="1622"/>
      <point x="-279.294" y="1642.5"/>
      <point x="-243.013" y="1642.5" type="curve" smooth="yes"/>
      <point x="-207.187" y="1642.5"/>
      <point x="-191" y="1622"/>
      <point x="-191" y="1579" type="curve" smooth="yes"/>
      <point x="-191" y="1574" type="line" smooth="yes"/>
      <point x="-191" y="1533"/>
      <point x="-206.66" y="1510.5"/>
    </contour>
  </outline>
  <guideline angle="90" x="-169" y="0"/>
  <guideline angle="0" x="0" y="1262"/>
</glyph>
<glyph name="Visarga.dv" format="2">
  <advance width="353"/>
  <unicode hex="0903"/>
  <outline>
    <contour>
      <point x="-27" y="1221" type="line"/>
      <point x="-33.5" y="1250.5" type="line"/>
      <point x="380" y="1250.5" type="line"/>
      <point x="386" y="1221" type="line"/>
    </contour>
    <contour>
      <point x="169.975" y="772.162" type="curve" smooth="yes"/>
      <point x="205.675" y="772.162"/>
      <point x="220.9" y="795.787"/>
      <point x="220.9" y="837.787" type="curve" smooth="yes"/>
      <point x="220.9" y="847.762" type="line" smooth="yes"/>
      <point x="220.9" y="887.662"/>
      <point x="206.2" y="912.337"/>
      <point x="171.025" y="912.337" type="curve" smooth="yes"/>
      <point x="135.325" y="912.337"/>
      <point x="120.1" y="888.712"/>
      <point x="120.1" y="847.762" type="curve" smooth="yes"/>
      <point x="120.1" y="837.787" type="line" smooth="yes"/>
      <point x="120.1" y="795.787"/>
      <point x="135.325" y="772.162"/>
    </contour>
    <contour>
      <point x="169.975" y="235.675" type="curve" smooth="yes"/>
      <point x="205.675" y="235.675"/>
      <point x="220.9" y="259.3"/>
      <point x="220.9" y="301.3" type="curve" smooth="yes"/>
      <point x="220.9" y="310.75" type="line" smooth="yes"/>
      <point x="220.9" y="350.65"/>
      <point x="206.2" y="375.325"/>
      <point x="171.025" y="375.325" type="curve" smooth="yes"/>
      <point x="135.325" y="375.325"/>
      <point x="120.1" y="351.7"/>
      <point x="120.1" y="310.75" type="curve" smooth="yes"/>
      <point x="120.1" y="301.3" type="line" smooth="yes"/>
      <point x="120.1" y="259.3"/>
      <point x="135.325" y="235.675"/>
    </contour>
  </outline>
</glyph>
<glyph name="vowelU.dv" format="2">
  <advance width="949"/>
  <unicode hex="0909"/>
  <anchor x="791" y="9" name="bottom3"/>
  <anchor x="450.5" y="30" name="bottom5"/>
  <anchor x="498" y="1241.5" name="top"/>
  <outline>
    <contour>
      <point x="-34" y="1221" type="line"/>
      <point x="-40" y="1251" type="line"/>
      <point x="976" y="1251" type="line"/>
      <point x="982" y="1221" type="line"/>
    </contour>
    <contour>
      <point x="671" y="1230" type="line"/>
      <point x="736" y="1178.41"/>
      <point x="769" y="1095.04"/>
      <point x="769" y="982" type="curve" smooth="yes"/>
      <point x="769" y="971" type="line" smooth="yes"/>
      <point x="769" y="793.26"/>
      <point x="690" y="690.521"/>
      <point x="481" y="671" type="curve"/>
      <point x="481" y="668" type="line"/>
      <point x="690" y="655.067"/>
      <point x="796" y="562.558"/>
      <point x="796" y="357" type="curve" smooth="yes"/>
      <point x="796" y="333" type="line" smooth="yes"/>
      <point x="796" y="105.329"/>
      <point x="663.363" y="5"/>
      <point x="425" y="5" type="curve" smooth="yes"/>
      <point x="276.583" y="5"/>
      <point x="161.244" y="40"/>
      <point x="76" y="96" type="curve"/>
      <point x="72" y="140" type="line"/>
      <point x="168.265" y="74"/>
      <point x="284.595" y="39"/>
      <point x="424" y="39" type="curve" smooth="yes"/>
      <point x="636.372" y="39"/>
      <point x="760" y="126.205"/>
      <point x="760" y="333" type="curve" smooth="yes"/>
      <point x="760" y="356" type="line" smooth="yes"/>
      <point x="760" y="563.513"/>
      <point x="659.981" y="646.686"/>
      <point x="358" y="651" type="curve" smooth="yes"/>
      <point x="218" y="653" type="line"/>
      <point x="218" y="685" type="line"/>
      <point x="359" y="687" type="line" smooth="yes"/>
      <point x="661.998" y="691.298"/>
      <point x="733" y="802.246"/>
      <point x="733" y="971" type="curve" smooth="yes"/>
      <point x="733" y="981" type="line" smooth="yes"/>
      <point x="733" y="1089.1"/>
      <point x="707" y="1170.47"/>
      <point x="625" y="1230" type="curve"/>
    </contour>
  </outline>
  <guideline angle="90" x="692" y="0"/>
</glyph>
<glyph name="vowelUu.dv" format="2">
  <advance width="1471"/>
  <unicode hex="090A"/>
  <anchor x="791" y="9" name="bottom3"/>
  <anchor x="450.5" y="30" name="bottom5"/>
  <anchor x="498" y="1241.5" name="top"/>
  <outline>
    <contour>
      <point x="861" y="1221" type="line"/>
      <point x="854.5" y="1250.5" type="line"/>
      <point x="1499.5" y="1250.5" type="line"/>
      <point x="1506.5" y="1221" type="line"/>
    </contour>
    <contour>
      <point x="1150.5" y="12" type="line"/>
      <point x="1272.23" y="107.186"/>
      <point x="1312.5" y="224.122"/>
      <point x="1312.5" y="362.055" type="curve" smooth="yes"/>
      <point x="1312.5" y="379.598" type="line" smooth="yes"/>
      <point x="1312.5" y="553.251"/>
      <point x="1240.36" y="671.5"/>
      <point x="1070.78" y="671.5" type="curve" smooth="yes"/>
      <point x="924.642" y="671.5"/>
      <point x="821.285" y="589.5"/>
      <point x="785.5" y="419.5" type="curve"/>
      <point x="769" y="466.5" type="line"/>
      <point x="799.986" y="608.5"/>
      <point x="902.409" y="705"/>
      <point x="1069.28" y="705" type="curve" smooth="yes"/>
      <point x="1265.21" y="705"/>
      <point x="1349" y="572.81"/>
      <point x="1349" y="379.785" type="curve" smooth="yes"/>
      <point x="1349" y="362.233" type="line" smooth="yes"/>
      <point x="1349" y="216.049"/>
      <point x="1307.01" y="101.301"/>
      <point x="1203" y="12" type="curve"/>
    </contour>
    <contour>
      <point x="-34" y="1221" type="line"/>
      <point x="-40" y="1251" type="line"/>
      <point x="976" y="1251" type="line"/>
      <point x="982" y="1221" type="line"/>
    </contour>
    <contour>
      <point x="671" y="1230" type="line"/>
      <point x="736" y="1178.41"/>
      <point x="769" y="1095.04"/>
      <point x="769" y="982" type="curve" smooth="yes"/>
      <point x="769" y="971" type="line" smooth="yes"/>
      <point x="769" y="793.26"/>
      <point x="690" y="690.521"/>
      <point x="481" y="671" type="curve"/>
      <point x="481" y="668" type="line"/>
      <point x="690" y="655.067"/>
      <point x="796" y="562.558"/>
      <point x="796" y="357" type="curve" smooth="yes"/>
      <point x="796" y="333" type="line" smooth="yes"/>
      <point x="796" y="105.329"/>
      <point x="663.363" y="5"/>
      <point x="425" y="5" type="curve" smooth="yes"/>
      <point x="276.583" y="5"/>
      <point x="161.244" y="40"/>
      <point x="76" y="96" type="curve"/>
      <point x="72" y="140" type="line"/>
      <point x="168.265" y="74"/>
      <point x="284.595" y="39"/>
      <point x="424" y="39" type="curve" smooth="yes"/>
      <point x="636.372" y="39"/>
      <point x="760" y="126.205"/>
      <point x="760" y="333" type="curve" smooth="yes"/>
      <point x="760" y="356" type="line" smooth="yes"/>
      <point x="760" y="563.513"/>
      <point x="659.981" y="646.686"/>
      <point x="358" y="651" type="curve" smooth="yes"/>
      <point x="218" y="653" type="line"/>
      <point x="218" y="685" type="line"/>
      <point x="359" y="687" type="line" smooth="yes"/>
      <point x="661.998" y="691.298"/>
      <point x="733" y="802.246"/>
      <point x="733" y="971" type="curve" smooth="yes"/>
      <point x="733" y="981" type="line" smooth="yes"/>
      <point x="733" y="1089.1"/>
      <point x="707" y="1170.47"/>
      <point x="625" y="1230" type="curve"/>
    </contour>
  </outline>
  <guideline angle="0" x="0" y="504"/>
  <guideline angle="0" x="0" y="74"/>
  <guideline angle="0" x="0" y="430"/>
  <guideline angle="90" x="-181" y="0"/>
  <guideline angle="90" x="692" y="0"/>
</glyph>
<glyph name="vowelAi.dv" format="2">
  <advance width="1093"/>
  <unicode hex="0910"/>
  <anchor x="927.5" y="9" name="bottom3"/>
  <anchor x="827.5" y="1241.5" name="top"/>
  <outline>
    <contour>
      <point x="-28.5" y="1221" type="line"/>
      <point x="-34.5" y="1250.5" type="line"/>
      <point x="1119.5" y="1250.5" type="line"/>
      <point x="1126" y="1221" type="line"/>
    </contour>
    <contour>
      <point x="245" y="552.5" type="line" smooth="yes"/>
      <point x="245" y="185.107"/>
      <point x="392.207" y="39.5"/>
      <point x="667" y="39.5" type="curve" smooth="yes"/>
      <point x="743.812" y="39.5"/>
      <point x="812.994" y="51.5"/>
      <point x="878.5" y="81.5" type="curve"/>
      <point x="873" y="44" type="line"/>
      <point x="817.135" y="18.3514"/>
      <point x="744.372" y="6"/>
      <point x="667" y="6" type="curve" smooth="yes"/>
      <point x="374.649" y="6"/>
      <point x="209.5" y="158.161"/>
      <point x="209.5" y="547.5" type="curve" smooth="yes"/>
      <point x="209.5" y="1229" type="line"/>
      <point x="245" y="1229" type="line"/>
    </contour>
    <contour>
      <point x="898.5" y="821.5" type="line" smooth="yes"/>
      <point x="898.5" y="551.5"/>
      <point x="813" y="444"/>
      <point x="614.5" y="444" type="curve" smooth="yes"/>
      <point x="605.5" y="444"/>
      <point x="601" y="444"/>
      <point x="592" y="444" type="curve"/>
      <point x="592" y="477" type="line"/>
      <point x="594.711" y="477"/>
      <point x="607.783" y="477"/>
      <point x="611" y="477" type="curve" smooth="yes"/>
      <point x="792" y="477"/>
      <point x="864" y="573.5"/>
      <point x="864" y="826" type="curve" smooth="yes"/>
      <point x="864" y="1231" type="line"/>
      <point x="898.5" y="1232" type="line"/>
    </contour>
    <contour>
      <point x="249.5" y="1772" type="line"/>
      <point x="295.5" y="1772" type="line"/>
      <point x="415.24" y="1667.8"/>
      <point x="783.134" y="1347.65"/>
      <point x="896.5" y="1249" type="curve"/>
      <point x="896.5" y="1241.5" type="line"/>
      <point x="859" y="1241.5" type="line"/>
      <point x="859" y="1248" type="line"/>
      <point x="750.5" y="1334.5"/>
      <point x="650.099" y="1419.93"/>
      <point x="536" y="1518.5" type="curve" smooth="yes"/>
      <point x="249.5" y="1766" type="line"/>
    </contour>
  </outline>
  <guideline angle="90" x="149" y="0"/>
  <guideline angle="90" x="548" y="0"/>
  <guideline angle="90" x="518" y="0"/>
  <guideline angle="90" x="535" y="0"/>
  <guideline angle="0" x="0" y="1262"/>
  <guideline angle="90" x="692" y="0"/>
  <guideline angle="90" x="692" y="0"/>
</glyph>
<glyph name="vowelShortO.dv" format="2">
  <advance width="1872"/>
  <unicode hex="0912"/>
  <anchor x="1708" y="1241.5" name="top"/>
  <outline>
    <contour>
      <point x="992" y="1767.5" type="curve" smooth="yes"/>
      <point x="992" y="1634"/>
      <point x="1048.47" y="1566.98"/>
      <point x="1211" y="1566" type="curve" smooth="yes"/>
      <point x="1377.5" y="1565" type="line" smooth="yes"/>
      <point x="1573.54" y="1563.82"/>
      <point x="1646" y="1473"/>
      <point x="1646" y="1302.5" type="curve" smooth="yes"/>
      <point x="1646" y="1241" type="line"/>
      <point x="1612.5" y="1241" type="line"/>
      <point x="1612.5" y="1302.5" type="line" smooth="yes"/>
      <point x="1612.5" y="1454.5"/>
      <point x="1550.53" y="1530.96"/>
      <point x="1375.5" y="1532" type="curve" smooth="yes"/>
      <point x="1208" y="1533" type="line" smooth="yes"/>
      <point x="1027.46" y="1534.08"/>
      <point x="959" y="1617"/>
      <point x="959" y="1755.5" type="curve" smooth="yes"/>
      <point x="959" y="1772"/>
      <point x="960" y="1785.5"/>
      <point x="962.5" y="1801.5" type="curve"/>
      <point x="992" y="1801.5" type="line"/>
      <point x="992" y="1798.71"/>
      <point x="992" y="1770.36"/>
    </contour>
    <contour>
      <point x="1434" y="1221" type="line"/>
      <point x="905" y="1221" type="line"/>
      <point x="899" y="1251" type="line"/>
      <point x="1428" y="1251" type="line"/>
    </contour>
    <contour>
      <point x="1140" y="0" type="line"/>
      <point x="1140" y="1232" type="line"/>
      <point x="1176" y="1232" type="line"/>
      <point x="1176" y="0" type="line"/>
    </contour>
    <contour>
      <point x="58" y="169" type="line"/>
      <point x="157" y="98"/>
      <point x="267.011" y="63"/>
      <point x="399.687" y="63" type="curve" smooth="yes"/>
      <point x="605.007" y="63"/>
      <point x="717" y="149.479"/>
      <point x="717" y="354.826" type="curve" smooth="yes"/>
      <point x="717" y="379" type="line" smooth="yes"/>
      <point x="717" y="567.54"/>
      <point x="605.314" y="647.071"/>
      <point x="382.875" y="650" type="curve" smooth="yes"/>
      <point x="231" y="652" type="line"/>
      <point x="231" y="684" type="line"/>
      <point x="377.894" y="686" type="line" smooth="yes"/>
      <point x="603.133" y="689.067"/>
      <point x="704" y="768.328"/>
      <point x="704" y="951" type="curve" smooth="yes"/>
      <point x="704" y="967" type="line" smooth="yes"/>
      <point x="704" y="1133.83"/>
      <point x="615.892" y="1231"/>
      <point x="416.735" y="1231" type="curve" smooth="yes"/>
      <point x="308.138" y="1231"/>
      <point x="210.044" y="1205"/>
      <point x="111" y="1144" type="curve"/>
      <point x="115" y="1187" type="line"/>
      <point x="201.146" y="1238"/>
      <point x="301.337" y="1265"/>
      <point x="416.921" y="1265" type="curve" smooth="yes"/>
      <point x="637.981" y="1265"/>
      <point x="740" y="1155"/>
      <point x="740" y="968" type="curve" smooth="yes"/>
      <point x="740" y="950" type="line" smooth="yes"/>
      <point x="740" y="768.358"/>
      <point x="640" y="680.03"/>
      <point x="464" y="670" type="curve"/>
      <point x="464" y="662" type="line"/>
      <point x="653" y="649.242"/>
      <point x="753" y="560.782"/>
      <point x="753" y="378" type="curve" smooth="yes"/>
      <point x="753" y="352.837" type="line" smooth="yes"/>
      <point x="753" y="130.515"/>
      <point x="631.033" y="29"/>
      <point x="400.869" y="29" type="curve" smooth="yes"/>
      <point x="262.131" y="29"/>
      <point x="151" y="63"/>
      <point x="63" y="125" type="curve"/>
    </contour>
    <contour>
      <point x="456" y="674" type="line"/>
      <point x="495" y="676" type="line"/>
      <point x="495" y="673" type="line"/>
      <point x="605" y="676"/>
      <point x="701" y="677"/>
      <point x="812" y="677" type="curve" smooth="yes"/>
      <point x="1159" y="677" type="line"/>
      <point x="1159" y="645" type="line"/>
      <point x="812" y="645" type="line" smooth="yes"/>
      <point x="704" y="645"/>
      <point x="615" y="646"/>
      <point x="518" y="653" type="curve"/>
      <point x="518" y="650" type="line"/>
      <point x="456" y="656" type="line"/>
    </contour>
    <contour>
      <point x="1645.25" y="0" type="line"/>
      <point x="1610.75" y="0" type="line"/>
      <point x="1610.75" y="1230" type="line"/>
      <point x="1645.25" y="1230" type="line"/>
    </contour>
    <contour>
      <point x="1904.75" y="1221" type="line"/>
      <point x="1358.75" y="1221" type="line"/>
      <point x="1352.25" y="1250.5" type="line"/>
      <point x="1898.25" y="1250.5" type="line"/>
    </contour>
  </outline>
  <guideline angle="90" x="1014" y="0"/>
  <guideline angle="90" x="677" y="0"/>
  <guideline angle="90" x="1032" y="0"/>
  <guideline angle="90" x="1160.66" y="0"/>
  <guideline angle="90" x="42.6911" y="0"/>
</glyph>
<glyph name="vowelO.dv" format="2">
  <advance width="1872"/>
  <unicode hex="0913"/>
  <anchor x="1591.5" y="1241.5" name="top"/>
  <outline>
    <contour>
      <point x="996.194" y="1772.5" type="line"/>
      <point x="1042.19" y="1772.5" type="line"/>
      <point x="1161.93" y="1668.3"/>
      <point x="1529.83" y="1348.15"/>
      <point x="1643.19" y="1249.5" type="curve"/>
      <point x="1643.19" y="1242" type="line"/>
      <point x="1605.69" y="1242" type="line"/>
      <point x="1605.69" y="1248.5" type="line"/>
      <point x="1497.19" y="1335"/>
      <point x="1396.79" y="1420.43"/>
      <point x="1282.69" y="1519" type="curve" smooth="yes"/>
      <point x="996.194" y="1766.5" type="line"/>
    </contour>
    <contour>
      <point x="1645.25" y="0" type="line"/>
      <point x="1610.75" y="0" type="line"/>
      <point x="1610.75" y="1230" type="line"/>
      <point x="1645.25" y="1230" type="line"/>
    </contour>
    <contour>
      <point x="1904.75" y="1221" type="line"/>
      <point x="1358.75" y="1221" type="line"/>
      <point x="1352.25" y="1250.5" type="line"/>
      <point x="1898.25" y="1250.5" type="line"/>
    </contour>
    <contour>
      <point x="1434" y="1221" type="line"/>
      <point x="905" y="1221" type="line"/>
      <point x="899" y="1251" type="line"/>
      <point x="1428" y="1251" type="line"/>
    </contour>
    <contour>
      <point x="1140" y="0" type="line"/>
      <point x="1140" y="1232" type="line"/>
      <point x="1176" y="1232" type="line"/>
      <point x="1176" y="0" type="line"/>
    </contour>
    <contour>
      <point x="58" y="169" type="line"/>
      <point x="157" y="98"/>
      <point x="267.011" y="63"/>
      <point x="399.687" y="63" type="curve" smooth="yes"/>
      <point x="605.007" y="63"/>
      <point x="717" y="149.479"/>
      <point x="717" y="354.826" type="curve" smooth="yes"/>
      <point x="717" y="379" type="line" smooth="yes"/>
      <point x="717" y="567.54"/>
      <point x="605.314" y="647.071"/>
      <point x="382.875" y="650" type="curve" smooth="yes"/>
      <point x="231" y="652" type="line"/>
      <point x="231" y="684" type="line"/>
      <point x="377.894" y="686" type="line" smooth="yes"/>
      <point x="603.133" y="689.067"/>
      <point x="704" y="768.328"/>
      <point x="704" y="951" type="curve" smooth="yes"/>
      <point x="704" y="967" type="line" smooth="yes"/>
      <point x="704" y="1133.83"/>
      <point x="615.892" y="1231"/>
      <point x="416.735" y="1231" type="curve" smooth="yes"/>
      <point x="308.138" y="1231"/>
      <point x="210.044" y="1205"/>
      <point x="111" y="1144" type="curve"/>
      <point x="115" y="1187" type="line"/>
      <point x="201.146" y="1238"/>
      <point x="301.337" y="1265"/>
      <point x="416.921" y="1265" type="curve" smooth="yes"/>
      <point x="637.981" y="1265"/>
      <point x="740" y="1155"/>
      <point x="740" y="968" type="curve" smooth="yes"/>
      <point x="740" y="950" type="line" smooth="yes"/>
      <point x="740" y="768.358"/>
      <point x="640" y="680.03"/>
      <point x="464" y="670" type="curve"/>
      <point x="464" y="662" type="line"/>
      <point x="653" y="649.242"/>
      <point x="753" y="560.782"/>
      <point x="753" y="378" type="curve" smooth="yes"/>
      <point x="753" y="352.837" type="line" smooth="yes"/>
      <point x="753" y="130.515"/>
      <point x="631.033" y="29"/>
      <point x="400.869" y="29" type="curve" smooth="yes"/>
      <point x="262.131" y="29"/>
      <point x="151" y="63"/>
      <point x="63" y="125" type="curve"/>
    </contour>
    <contour>
      <point x="456" y="674" type="line"/>
      <point x="495" y="676" type="line"/>
      <point x="495" y="673" type="line"/>
      <point x="605" y="676"/>
      <point x="701" y="677"/>
      <point x="812" y="677" type="curve" smooth="yes"/>
      <point x="1159" y="677" type="line"/>
      <point x="1159" y="645" type="line"/>
      <point x="812" y="645" type="line" smooth="yes"/>
      <point x="704" y="645"/>
      <point x="615" y="646"/>
      <point x="518" y="653" type="curve"/>
      <point x="518" y="650" type="line"/>
      <point x="456" y="656" type="line"/>
    </contour>
  </outline>
  <guideline angle="90" x="628" y="0"/>
  <guideline angle="90" x="1027" y="0"/>
  <guideline angle="90" x="997" y="0"/>
  <guideline angle="90" x="1014" y="0"/>
  <guideline angle="0" x="0" y="1262"/>
  <guideline angle="90" x="1160.66" y="0"/>
</glyph>
<glyph name="Ddha.dv" format="2">
  <advance width="1115"/>
  <unicode hex="0922"/>
  <anchor x="639.5" y="4.5" name="bottom"/>
  <anchor x="524" y="4.5" name="bottom2"/>
  <anchor x="962.5" y="4.5" name="bottom3"/>
  <anchor x="586" y="25.5" name="bottom5"/>
  <anchor x="886.537" y="1241.5" name="top"/>
  <outline>
    <contour>
      <point x="737.537" y="1221" type="line"/>
      <point x="731.037" y="1250.5" type="line"/>
      <point x="1106.54" y="1250.5" type="line"/>
      <point x="1113.04" y="1221" type="line"/>
    </contour>
    <contour>
      <point x="903.537" y="1230.5" type="line"/>
      <point x="903.537" y="974.5" type="line"/>
      <point x="869.537" y="974" type="line"/>
      <point x="869.537" y="1230.5" type="line"/>
    </contour>
    <contour>
      <point x="-20" y="1221" type="line"/>
      <point x="-27" y="1251" type="line"/>
      <point x="1159" y="1251" type="line"/>
      <point x="1165" y="1221" type="line"/>
    </contour>
    <contour>
      <point x="870" y="1233" type="line"/>
      <point x="905" y="1233" type="line"/>
      <point x="905" y="863" type="line"/>
      <point x="870" y="881" type="line"/>
    </contour>
    <contour>
      <point x="143" y="495.371" type="line" smooth="yes"/>
      <point x="143" y="789.499"/>
      <point x="281.202" y="924"/>
      <point x="612.218" y="924" type="curve" smooth="yes"/>
      <point x="712.795" y="924"/>
      <point x="806.579" y="916"/>
      <point x="905" y="896" type="curve"/>
      <point x="905" y="863" type="line"/>
      <point x="804.015" y="883"/>
      <point x="712.462" y="891"/>
      <point x="613.044" y="891" type="curve" smooth="yes"/>
      <point x="303.452" y="891"/>
      <point x="180" y="766.592"/>
      <point x="180" y="493.368" type="curve" smooth="yes"/>
      <point x="180" y="434.607" type="line" smooth="yes"/>
      <point x="180" y="158.345"/>
      <point x="316.064" y="28"/>
      <point x="601.514" y="28" type="curve" smooth="yes"/>
      <point x="843.25" y="28"/>
      <point x="959" y="123"/>
      <point x="959" y="302" type="curve" smooth="yes"/>
      <point x="959" y="315" type="line" smooth="yes"/>
      <point x="959" y="465.362"/>
      <point x="899" y="533"/>
      <point x="756" y="533" type="curve" smooth="yes"/>
      <point x="619" y="533"/>
      <point x="547" y="467.127"/>
      <point x="547" y="322" type="curve" smooth="yes"/>
      <point x="547" y="306" type="line" smooth="yes"/>
      <point x="547" y="164.37"/>
      <point x="601.627" y="85.194"/>
      <point x="739" y="33" type="curve"/>
      <point x="697" y="23" type="line"/>
      <point x="697" y="27" type="line"/>
      <point x="581.172" y="67.1471"/>
      <point x="512" y="153.354"/>
      <point x="512" y="304" type="curve" smooth="yes"/>
      <point x="512" y="324" type="line" smooth="yes"/>
      <point x="512" y="489.075"/>
      <point x="598" y="566"/>
      <point x="756" y="566" type="curve" smooth="yes"/>
      <point x="921" y="566"/>
      <point x="994" y="485.333"/>
      <point x="994" y="318" type="curve" smooth="yes"/>
      <point x="994" y="301" type="line" smooth="yes"/>
      <point x="994" y="103"/>
      <point x="864.2" y="-5"/>
      <point x="600.47" y="-5" type="curve" smooth="yes"/>
      <point x="296.13" y="-5"/>
      <point x="143" y="138.438"/>
      <point x="143" y="433.603" type="curve" smooth="yes"/>
    </contour>
  </outline>
  <guideline angle="0" x="0" y="9"/>
  <guideline angle="0" x="0" y="30"/>
  <guideline angle="90" x="812.037" y="0"/>
</glyph>
<glyph name="Da.dv" format="2">
  <advance width="1068"/>
  <unicode hex="0926"/>
  <anchor x="910" y="-121.5" name="bottom"/>
  <anchor x="590" y="-121.5" name="bottom2"/>
  <anchor x="932" y="-121.5" name="bottom3"/>
  <anchor x="266" y="60.5" name="bottom4"/>
  <anchor x="576" y="-106" name="bottom5"/>
  <anchor x="843.496" y="1241.5" name="top"/>
  <outline>
    <contour>
      <point x="694.496" y="1221" type="line"/>
      <point x="687.996" y="1250.5" type="line"/>
      <point x="1063.5" y="1250.5" type="line"/>
      <point x="1070" y="1221" type="line"/>
    </contour>
    <contour>
      <point x="860.496" y="1230.5" type="line"/>
      <point x="860.496" y="974.5" type="line"/>
      <point x="826.496" y="974" type="line"/>
      <point x="826.496" y="1230.5" type="line"/>
    </contour>
    <contour>
      <point x="-22" y="1221" type="line"/>
      <point x="-28.5" y="1250.5" type="line"/>
      <point x="1100" y="1250.5" type="line"/>
      <point x="1106.5" y="1221" type="line"/>
    </contour>
    <contour>
      <point x="827" y="895" type="line"/>
      <point x="827" y="1231.5" type="line"/>
      <point x="862" y="1231.5" type="line"/>
      <point x="862" y="876" type="line"/>
    </contour>
    <contour>
      <point x="874.5" y="550.5" type="line"/>
      <point x="874.5" y="238.5" type="line"/>
      <point x="929.5" y="-135.5" type="line"/>
      <point x="894" y="-135.5" type="line"/>
      <point x="842" y="232" type="line"/>
      <point x="839" y="235" type="line"/>
      <point x="839" y="550.5" type="line"/>
    </contour>
    <contour>
      <point x="535.143" y="147.5" type="curve" smooth="yes"/>
      <point x="664.922" y="147.5"/>
      <point x="770.556" y="186"/>
      <point x="844.5" y="261" type="curve"/>
      <point x="847.5" y="221.5" type="line"/>
      <point x="781.627" y="155"/>
      <point x="673.011" y="113"/>
      <point x="536.236" y="113" type="curve" smooth="yes"/>
      <point x="280.789" y="113"/>
      <point x="141.5" y="252.905"/>
      <point x="141.5" y="506.803" type="curve" smooth="yes"/>
      <point x="141.5" y="547" type="line" smooth="yes"/>
      <point x="141.5" y="800.528"/>
      <point x="275.134" y="933.5"/>
      <point x="570.867" y="933.5" type="curve" smooth="yes"/>
      <point x="674.637" y="933.5"/>
      <point x="763.761" y="925.208"/>
      <point x="862" y="908.5" type="curve"/>
      <point x="862" y="876" type="line"/>
      <point x="761.678" y="893"/>
      <point x="668.521" y="901"/>
      <point x="572.288" y="901" type="curve" smooth="yes"/>
      <point x="298.604" y="901"/>
      <point x="178" y="778.517"/>
      <point x="178" y="545" type="curve" smooth="yes"/>
      <point x="178" y="508.305" type="line" smooth="yes"/>
      <point x="178" y="276.988"/>
      <point x="301.24" y="147.5"/>
    </contour>
  </outline>
  <guideline angle="90" x="-161" y="0"/>
  <guideline angle="0" x="0" y="-129"/>
  <guideline angle="0" x="0" y="-108"/>
  <guideline angle="90" x="768.996" y="0"/>
</glyph>
<glyph name="Na.dv" format="2">
  <advance width="1084"/>
  <unicode hex="0928"/>
  <anchor x="840.5" y="9" name="bottom"/>
  <anchor x="834.5" y="9" name="bottom2"/>
  <anchor x="857.5" y="9" name="bottom3"/>
  <anchor x="839.5" y="30" name="bottom5"/>
  <anchor x="839" y="1241.5" name="top"/>
  <outline>
    <contour>
      <point x="857" y="1230" type="line"/>
      <point x="857" y="0" type="line"/>
      <point x="822.5" y="0" type="line"/>
      <point x="822.5" y="1230" type="line"/>
    </contour>
    <contour>
      <point x="684.5" y="1221" type="line"/>
      <point x="678" y="1250.5" type="line"/>
      <point x="1110" y="1250.5" type="line"/>
      <point x="1116.5" y="1221" type="line"/>
    </contour>
    <contour>
      <point x="1011.5" y="1221" type="line"/>
      <point x="-24" y="1221" type="line"/>
      <point x="-30.5" y="1250.5" type="line"/>
      <point x="1005" y="1250.5" type="line"/>
    </contour>
    <contour>
      <point x="837" y="774.5" type="line"/>
      <point x="837" y="743" type="line"/>
      <point x="209" y="743" type="line"/>
      <point x="209" y="774.5" type="line"/>
    </contour>
    <contour>
      <point x="187.5" y="305.5" type="line"/>
      <point x="170.535" y="473.005"/>
      <point x="160.965" y="567.495"/>
      <point x="144" y="735" type="curve"/>
      <point x="191.973" y="774.5" type="line"/>
      <point x="235" y="774.5" type="line"/>
      <point x="235" y="305.5" type="line"/>
    </contour>
  </outline>
  <guideline angle="90" x="759.5" y="0"/>
  <guideline angle="0" x="0" y="9"/>
  <guideline angle="90" x="764.5" y="0"/>
  <guideline angle="90" x="747.5" y="0"/>
  <guideline angle="0" x="0" y="1262"/>
  <guideline angle="90" x="782.5" y="0"/>
  <guideline angle="0" x="0" y="30"/>
</glyph>
<glyph name="RaNukta.dv" format="2">
  <advance width="749"/>
  <unicode hex="0931"/>
  <anchor x="349" y="9" name="bottom2"/>
  <anchor x="765" y="9" name="bottom3"/>
  <anchor x="390" y="30" name="bottom5"/>
  <anchor x="442" y="1241.5" name="top"/>
  <outline>
    <contour>
      <point x="791" y="1221" type="line"/>
      <point x="-28" y="1221" type="line"/>
      <point x="-34" y="1251" type="line"/>
      <point x="785" y="1251" type="line"/>
    </contour>
    <contour>
      <point x="579" y="0" type="line"/>
      <point x="538" y="0" type="line"/>
      <point x="162.844" y="567" type="line"/>
      <point x="56" y="571" type="line"/>
      <point x="56" y="603" type="line"/>
      <point x="192" y="598" type="line"/>
      <point x="192" y="583" type="line"/>
      <point x="246.525" y="502"/>
      <point x="297.948" y="426.419"/>
      <point x="350" y="348" type="curve" smooth="yes"/>
      <point x="579" y="3" type="line"/>
    </contour>
    <contour>
      <point x="469" y="1229" type="line"/>
      <point x="538" y="1172.12"/>
      <point x="586" y="1078.89"/>
      <point x="586" y="934" type="curve" smooth="yes"/>
      <point x="586" y="918" type="line" smooth="yes"/>
      <point x="586" y="684"/>
      <point x="460.304" y="571"/>
      <point x="170.23" y="571" type="curve" smooth="yes"/>
      <point x="113.032" y="571" type="line"/>
      <point x="56" y="603" type="line"/>
      <point x="170.103" y="603" type="line" smooth="yes"/>
      <point x="430.362" y="603"/>
      <point x="550" y="701"/>
      <point x="550" y="920" type="curve" smooth="yes"/>
      <point x="550" y="934" type="line" smooth="yes"/>
      <point x="550" y="1078.85"/>
      <point x="505" y="1165.1"/>
      <point x="421" y="1229" type="curve"/>
    </contour>
    <contour>
      <point x="130" y="-132" type="curve" smooth="yes"/>
      <point x="95.5" y="-132"/>
      <point x="81.5" y="-109"/>
      <point x="81.5" y="-71" type="curve"/>
      <point x="81.5" y="-69.0114"/>
      <point x="81.5" y="-63.7226"/>
      <point x="81.5" y="-62" type="curve"/>
      <point x="81.5" y="-22"/>
      <point x="95.5" y="0"/>
      <point x="130" y="0" type="curve" smooth="yes"/>
      <point x="163.5" y="0"/>
      <point x="177.5" y="-22"/>
      <point x="177.5" y="-62" type="curve"/>
      <point x="177.5" y="-63.9886"/>
      <point x="177.5" y="-69.2774"/>
      <point x="177.5" y="-71" type="curve"/>
      <point x="177.5" y="-109.5"/>
      <point x="163.5" y="-132"/>
    </contour>
  </outline>
  <guideline angle="90" x="261" y="0"/>
  <guideline angle="90" x="205" y="0"/>
  <guideline angle="0" x="0" y="1262"/>
  <guideline angle="0" x="0" y="-60"/>
</glyph>
<glyph name="Lla.dv" format="2">
  <advance width="1456"/>
  <unicode hex="0933"/>
  <anchor x="1042.5" y="34.5" name="bottom"/>
  <anchor x="899" y="34.5" name="bottom2"/>
  <anchor x="1090" y="34.5" name="bottom3"/>
  <anchor x="739.5" y="55.5" name="bottom5"/>
  <anchor x="1048.49" y="1241.5" name="top"/>
  <outline>
    <contour>
      <point x="899.493" y="1221" type="line"/>
      <point x="892.993" y="1250.5" type="line"/>
      <point x="1268.49" y="1250.5" type="line"/>
      <point x="1274.99" y="1221" type="line"/>
    </contour>
    <contour>
      <point x="1065.49" y="1230.5" type="line"/>
      <point x="1065.49" y="974.5" type="line"/>
      <point x="1031.49" y="974" type="line"/>
      <point x="1031.49" y="1230.5" type="line"/>
    </contour>
    <contour>
      <point x="1490" y="1221" type="line"/>
      <point x="-28" y="1221" type="line"/>
      <point x="-34.5" y="1250.5" type="line"/>
      <point x="1483.5" y="1250.5" type="line"/>
    </contour>
    <contour>
      <point x="1067" y="885.5" type="line"/>
      <point x="1032" y="885.5" type="line"/>
      <point x="1032" y="1236.5" type="line"/>
      <point x="1067" y="1236.5" type="line"/>
    </contour>
    <contour>
      <point x="1316" y="406" type="line" smooth="yes"/>
      <point x="1316" y="136.744"/>
      <point x="1211.52" y="25.5"/>
      <point x="1008.48" y="25.5" type="curve" smooth="yes"/>
      <point x="834.642" y="25.5"/>
      <point x="741.845" y="120.5"/>
      <point x="708.5" y="224.5" type="curve"/>
      <point x="704" y="224.5" type="line"/>
      <point x="709.5" y="278" type="line"/>
      <point x="721" y="277.5" type="line"/>
      <point x="751.198" y="152.5"/>
      <point x="848.915" y="60"/>
      <point x="1008.54" y="60" type="curve" smooth="yes"/>
      <point x="1189.51" y="60"/>
      <point x="1279.5" y="164.227"/>
      <point x="1279.5" y="408" type="curve" smooth="yes"/>
      <point x="1279.5" y="530" type="line" smooth="yes"/>
      <point x="1279.5" y="776.765"/>
      <point x="1175.55" y="866"/>
      <point x="1022.93" y="866" type="curve" smooth="yes"/>
      <point x="859.057" y="866"/>
      <point x="772.279" y="786.977"/>
      <point x="755.05" y="603.021" type="curve" smooth="yes"/>
      <point x="722.222" y="252.5" type="line"/>
      <point x="714.232" y="246" type="line"/>
      <point x="694.259" y="109"/>
      <point x="616.801" y="25.5"/>
      <point x="447.801" y="25.5" type="curve" smooth="yes"/>
      <point x="257.173" y="25.5"/>
      <point x="143.5" y="132.5"/>
      <point x="143.5" y="401" type="curve" smooth="yes"/>
      <point x="143.5" y="530.5" type="line" smooth="yes"/>
      <point x="143.5" y="791"/>
      <point x="264.655" y="898.5"/>
      <point x="459.206" y="898.5" type="curve" smooth="yes"/>
      <point x="625.268" y="898.5"/>
      <point x="709.056" y="812"/>
      <point x="742.5" y="699.5" type="curve"/>
      <point x="748.5" y="699.5" type="line"/>
      <point x="741" y="645" type="line"/>
      <point x="729" y="645" type="line"/>
      <point x="698.749" y="779.5"/>
      <point x="618.2" y="865"/>
      <point x="459.144" y="865" type="curve" smooth="yes"/>
      <point x="281.598" y="865"/>
      <point x="180" y="767.5"/>
      <point x="180" y="526.5" type="curve" smooth="yes"/>
      <point x="180" y="401.5" type="line" smooth="yes"/>
      <point x="180" y="159"/>
      <point x="274.086" y="60"/>
      <point x="447.667" y="60" type="curve" smooth="yes"/>
      <point x="604.435" y="60"/>
      <point x="676.635" y="128.604"/>
      <point x="694.062" y="315.34" type="curve" smooth="yes"/>
      <point x="728" y="679" type="line"/>
      <point x="737" y="681.5" type="line"/>
      <point x="759.808" y="813"/>
      <point x="854.124" y="900"/>
      <point x="1023.01" y="900" type="curve" smooth="yes"/>
      <point x="1203.69" y="900"/>
      <point x="1316" y="791.723"/>
      <point x="1316" y="530" type="curve" smooth="yes"/>
    </contour>
  </outline>
  <guideline angle="0" x="0" y="519"/>
  <guideline angle="0" x="0" y="42"/>
  <guideline angle="90" x="556" y="0"/>
  <guideline angle="90" x="620" y="0"/>
  <guideline angle="0" x="0" y="63"/>
  <guideline angle="90" x="973.993" y="0"/>
</glyph>
<glyph name="Sa.dv" format="2">
  <advance width="1278"/>
  <unicode hex="0938"/>
  <anchor x="1035" y="9" name="bottom"/>
  <anchor x="1029" y="9" name="bottom2"/>
  <anchor x="1052" y="9" name="bottom3"/>
  <anchor x="1034" y="30" name="bottom5"/>
  <anchor x="1033.5" y="1241.5" name="top"/>
  <outline>
    <contour>
      <point x="1051.5" y="1230" type="line"/>
      <point x="1051.5" y="0" type="line"/>
      <point x="1017" y="0" type="line"/>
      <point x="1017" y="1230" type="line"/>
    </contour>
    <contour>
      <point x="879" y="1221" type="line"/>
      <point x="872.5" y="1250.5" type="line"/>
      <point x="1304.5" y="1250.5" type="line"/>
      <point x="1311" y="1221" type="line"/>
    </contour>
    <contour>
      <point x="1210" y="1221" type="line"/>
      <point x="-27" y="1221" type="line"/>
      <point x="-34" y="1251" type="line"/>
      <point x="1204" y="1251" type="line"/>
    </contour>
    <contour>
      <point x="375" y="623" type="line"/>
      <point x="1034" y="623" type="line"/>
      <point x="1034" y="591" type="line"/>
      <point x="386" y="591" type="line"/>
    </contour>
    <contour>
      <point x="563" y="0" type="line"/>
      <point x="522" y="0" type="line"/>
      <point x="163" y="567" type="line"/>
      <point x="56" y="571" type="line"/>
      <point x="56" y="603" type="line"/>
      <point x="190" y="594" type="line"/>
      <point x="190" y="585" type="line"/>
      <point x="242.651" y="506"/>
      <point x="278.878" y="449.477"/>
      <point x="346" y="344" type="curve" smooth="yes"/>
      <point x="563" y="3" type="line"/>
    </contour>
    <contour>
      <point x="416" y="1229" type="line"/>
      <point x="487" y="1172.12"/>
      <point x="526" y="1078.89"/>
      <point x="526" y="934" type="curve" smooth="yes"/>
      <point x="526" y="924" type="line" smooth="yes"/>
      <point x="526" y="671.89"/>
      <point x="415" y="571"/>
      <point x="143" y="571" type="curve" smooth="yes"/>
      <point x="87" y="571" type="line"/>
      <point x="56" y="603" type="line"/>
      <point x="140" y="603" type="line" smooth="yes"/>
      <point x="385" y="603"/>
      <point x="490" y="689.84"/>
      <point x="490" y="926" type="curve" smooth="yes"/>
      <point x="490" y="934" type="line" smooth="yes"/>
      <point x="490" y="1077.85"/>
      <point x="453" y="1165.1"/>
      <point x="369" y="1229" type="curve"/>
    </contour>
  </outline>
  <guideline angle="0" x="0" y="337"/>
  <guideline angle="90" x="53" y="0"/>
  <guideline angle="90" x="526" y="0"/>
  <guideline angle="90" x="954" y="0"/>
  <guideline angle="0" x="0" y="9"/>
  <guideline angle="90" x="959" y="0"/>
  <guideline angle="90" x="942" y="0"/>
  <guideline angle="0" x="0" y="1262"/>
  <guideline angle="90" x="977" y="0"/>
  <guideline angle="0" x="0" y="30"/>
</glyph>
<glyph name="matraIi.dv" format="2">
  <advance width="486"/>
  <unicode hex="0940"/>
  <outline>
    <contour>
      <point x="259.5" y="0" type="line"/>
      <point x="225" y="0" type="line"/>
      <point x="225" y="1230" type="line"/>
      <point x="259.5" y="1230" type="line"/>
    </contour>
    <contour>
      <point x="519" y="1221" type="line"/>
      <point x="-27" y="1221" type="line"/>
      <point x="-33.5" y="1250.5" type="line"/>
      <point x="512.5" y="1250.5" type="line"/>
    </contour>
    <contour>
      <point x="-6" y="1761" type="curve" smooth="yes"/>
      <point x="163.5" y="1761"/>
      <point x="259.5" y="1672"/>
      <point x="259.5" y="1450.5" type="curve" smooth="yes"/>
      <point x="259.5" y="1243.5" type="line"/>
      <point x="225" y="1243.5" type="line"/>
      <point x="225" y="1447.5" type="line" smooth="yes"/>
      <point x="225" y="1649.5"/>
      <point x="143.5" y="1727.5"/>
      <point x="-6" y="1727.5" type="curve" smooth="yes"/>
      <point x="-151" y="1727.5"/>
      <point x="-230" y="1650"/>
      <point x="-230" y="1492.5" type="curve" smooth="yes"/>
      <point x="-230" y="1366" type="line"/>
      <point x="-259" y="1374.5" type="line"/>
      <point x="-262.5" y="1425.5"/>
      <point x="-265" y="1468.5"/>
      <point x="-265" y="1506" type="curve" smooth="yes"/>
      <point x="-265" y="1668"/>
      <point x="-171.5" y="1761"/>
    </contour>
  </outline>
</glyph>
<glyph name="Chandra.dv" format="2">
  <unicode hex="0945"/>
  <anchor x="-243" y="1241.5" name="_top"/>
  <outline>
    <contour>
      <point x="16.5" y="1741" type="line"/>
      <point x="16.5" y="1726.5"/>
      <point x="16.5" y="1717"/>
      <point x="16.5" y="1707.5" type="curve" smooth="yes"/>
      <point x="16.5" y="1525.5"/>
      <point x="-72.5" y="1442"/>
      <point x="-243" y="1442" type="curve" smooth="yes"/>
      <point x="-412.5" y="1442"/>
      <point x="-501" y="1525.5"/>
      <point x="-501" y="1707.5" type="curve" smooth="yes"/>
      <point x="-501" y="1717"/>
      <point x="-501" y="1726.5"/>
      <point x="-501" y="1741" type="curve"/>
      <point x="-467" y="1741" type="line"/>
      <point x="-467" y="1737.41"/>
      <point x="-467" y="1712.08"/>
      <point x="-467" y="1710" type="curve" smooth="yes"/>
      <point x="-467" y="1545"/>
      <point x="-390" y="1473.5"/>
      <point x="-243" y="1473.5" type="curve" smooth="yes"/>
      <point x="-94.5" y="1473.5"/>
      <point x="-18" y="1545"/>
      <point x="-18" y="1710" type="curve" smooth="yes"/>
      <point x="-18" y="1712.28"/>
      <point x="-18" y="1738.21"/>
      <point x="-18" y="1741" type="curve"/>
    </contour>
  </outline>
  <guideline angle="90" x="-88" y="0"/>
  <guideline angle="0" x="0" y="1424"/>
  <guideline angle="90" x="-169" y="0"/>
  <guideline angle="0" x="0" y="1262"/>
</glyph>
<glyph name="matraAi.dv" format="2">
  <unicode hex="0948"/>
  <anchor x="-243" y="1241.5" name="_top"/>
  <outline>
    <contour>
      <point x="-876.5" y="1604" type="line"/>
      <point x="-270" y="1274.5" type="line"/>
      <point x="-268" y="1277" type="line"/>
      <point x="-358.5" y="1410.13"/>
      <point x="-422.014" y="1508.08"/>
      <point x="-495" y="1626.5" type="curve" smooth="yes"/>
      <point x="-650" y="1878" type="line"/>
      <point x="-650" y="1883" type="line"/>
      <point x="-611.5" y="1883" type="line"/>
      <point x="-226" y="1249" type="line"/>
      <point x="-226" y="1241.5" type="line"/>
      <point x="-263.5" y="1241.5" type="line"/>
      <point x="-263.5" y="1249.5" type="line"/>
      <point x="-401" y="1312"/>
      <point x="-513.75" y="1370.55"/>
      <point x="-652" y="1444.5" type="curve" smooth="yes"/>
      <point x="-931.5" y="1594" type="line"/>
      <point x="-931.5" y="1604" type="line"/>
    </contour>
  </outline>
  <guideline angle="90" x="-169" y="0"/>
  <guideline angle="0" x="0" y="1262"/>
</glyph>
<glyph name="matraShortO.dv" format="2">
  <advance width="486"/>
  <unicode hex="094A"/>
  <outline>
    <contour>
      <point x="-394" y="1767" type="curve" smooth="yes"/>
      <point x="-394" y="1633.5"/>
      <point x="-337.535" y="1566.48"/>
      <point x="-175" y="1565.5" type="curve" smooth="yes"/>
      <point x="-8.5" y="1564.5" type="line" smooth="yes"/>
      <point x="187.537" y="1563.32"/>
      <point x="260" y="1472.5"/>
      <point x="260" y="1302" type="curve" smooth="yes"/>
      <point x="260" y="1240.5" type="line"/>
      <point x="226.5" y="1240.5" type="line"/>
      <point x="226.5" y="1302" type="line" smooth="yes"/>
      <point x="226.5" y="1454"/>
      <point x="164.532" y="1530.46"/>
      <point x="-10.5" y="1531.5" type="curve" smooth="yes"/>
      <point x="-178" y="1532.5" type="line" smooth="yes"/>
      <point x="-358.541" y="1533.58"/>
      <point x="-427" y="1616.5"/>
      <point x="-427" y="1755" type="curve" smooth="yes"/>
      <point x="-427" y="1771.5"/>
      <point x="-426" y="1785"/>
      <point x="-423.5" y="1801" type="curve"/>
      <point x="-394" y="1801" type="line"/>
      <point x="-394" y="1798.21"/>
      <point x="-394" y="1769.86"/>
    </contour>
    <contour>
      <point x="259.5" y="0" type="line"/>
      <point x="225" y="0" type="line"/>
      <point x="225" y="1230" type="line"/>
      <point x="259.5" y="1230" type="line"/>
    </contour>
    <contour>
      <point x="519" y="1221" type="line"/>
      <point x="-27" y="1221" type="line"/>
      <point x="-33.5" y="1250.5" type="line"/>
      <point x="512.5" y="1250.5" type="line"/>
    </contour>
  </outline>
  <guideline angle="90" x="150" y="0"/>
</glyph>
<glyph name="matraO.dv" format="2">
  <advance width="486"/>
  <unicode hex="094B"/>
  <outline>
    <contour>
      <point x="259.5" y="0" type="line"/>
      <point x="225" y="0" type="line"/>
      <point x="225" y="1230" type="line"/>
      <point x="259.5" y="1230" type="line"/>
    </contour>
    <contour>
      <point x="519" y="1221" type="line"/>
      <point x="-27" y="1221" type="line"/>
      <point x="-33.5" y="1250.5" type="line"/>
      <point x="512.5" y="1250.5" type="line"/>
    </contour>
    <contour>
      <point x="-388" y="1772" type="line"/>
      <point x="-342" y="1772" type="line"/>
      <point x="-222.26" y="1667.8"/>
      <point x="145.634" y="1347.65"/>
      <point x="259" y="1249" type="curve"/>
      <point x="259" y="1241.5" type="line"/>
      <point x="221.5" y="1241.5" type="line"/>
      <point x="221.5" y="1248" type="line"/>
      <point x="113" y="1334.5"/>
      <point x="12.5995" y="1419.93"/>
      <point x="-101.5" y="1518.5" type="curve" smooth="yes"/>
      <point x="-388" y="1766" type="line"/>
    </contour>
  </outline>
  <guideline angle="90" x="133" y="0"/>
</glyph>
<glyph name="Halant.dv" format="2">
  <unicode hex="094D"/>
  <anchor x="-248" y="9" name="_bottom2"/>
  <outline>
    <contour>
      <point x="-267" y="-133.5" type="line"/>
      <point x="-226" y="-133.5" type="line"/>
      <point x="84" y="-549.5" type="line"/>
      <point x="84" y="-553.5" type="line"/>
      <point x="46.5" y="-553.5" type="line"/>
      <point x="-267" y="-138" type="line"/>
    </contour>
  </outline>
  <guideline angle="90" x="-169" y="0"/>
  <guideline angle="90" x="-45" y="0"/>
  <guideline angle="90" x="-174" y="0"/>
  <guideline angle="0" x="0" y="9"/>
</glyph>
<glyph name="Om.dv" format="2">
  <advance width="1666"/>
  <unicode hex="0950"/>
  <outline>
    <contour>
      <point x="1111" y="1442.5" type="curve" smooth="yes"/>
      <point x="1080" y="1442.5"/>
      <point x="1065.5" y="1465"/>
      <point x="1065.5" y="1503" type="curve" smooth="yes"/>
      <point x="1065.5" y="1511.5" type="line" smooth="yes"/>
      <point x="1065.5" y="1549"/>
      <point x="1080" y="1571"/>
      <point x="1111" y="1571" type="curve" smooth="yes"/>
      <point x="1142" y="1571"/>
      <point x="1156" y="1549"/>
      <point x="1156" y="1511.5" type="curve" smooth="yes"/>
      <point x="1156" y="1503" type="line" smooth="yes"/>
      <point x="1156" y="1465"/>
      <point x="1142" y="1442.5"/>
    </contour>
    <contour>
      <point x="1382.5" y="1497" type="line"/>
      <point x="1382.5" y="1483"/>
      <point x="1382.5" y="1475"/>
      <point x="1382.5" y="1465.5" type="curve" smooth="yes"/>
      <point x="1382.5" y="1283.5"/>
      <point x="1289" y="1200"/>
      <point x="1110.5" y="1200" type="curve" smooth="yes"/>
      <point x="936" y="1200"/>
      <point x="841.5" y="1283.5"/>
      <point x="841.5" y="1465.5" type="curve" smooth="yes"/>
      <point x="841.5" y="1475"/>
      <point x="841.5" y="1483"/>
      <point x="841.5" y="1497" type="curve"/>
      <point x="876" y="1497" type="line"/>
      <point x="876" y="1468" type="line" smooth="yes"/>
      <point x="876" y="1303"/>
      <point x="958.5" y="1231.5"/>
      <point x="1110.5" y="1231.5" type="curve" smooth="yes"/>
      <point x="1266.5" y="1231.5"/>
      <point x="1348" y="1303"/>
      <point x="1348" y="1468" type="curve" smooth="yes"/>
      <point x="1348" y="1497" type="line"/>
    </contour>
    <contour>
      <point x="1005.5" y="289.5" type="line"/>
      <point x="1070" y="244.5"/>
      <point x="1138" y="220"/>
      <point x="1227" y="220" type="curve" smooth="yes"/>
      <point x="1390" y="220"/>
      <point x="1490.5" y="313"/>
      <point x="1490.5" y="549.5" type="curve" smooth="yes"/>
      <point x="1490.5" y="653.5" type="line" smooth="yes"/>
      <point x="1490.5" y="864.5"/>
      <point x="1423" y="972.5"/>
      <point x="1263.5" y="972.5" type="curve" smooth="yes"/>
      <point x="1134" y="972.5"/>
      <point x="1065.42" y="919.766"/>
      <point x="1013" y="772.5" type="curve" smooth="yes"/>
      <point x="992" y="713.5" type="line" smooth="yes"/>
      <point x="946.546" y="585.797"/>
      <point x="891" y="550"/>
      <point x="790" y="550" type="curve" smooth="yes"/>
      <point x="721" y="550"/>
      <point x="665" y="578"/>
      <point x="607" y="618.5" type="curve"/>
      <point x="603.5" y="637.5" type="line"/>
      <point x="654.283" y="615.904"/>
      <point x="707.585" y="579.5"/>
      <point x="781" y="579.5" type="curve" smooth="yes"/>
      <point x="871.5" y="579.5"/>
      <point x="916.978" y="610.819"/>
      <point x="958.5" y="725.5" type="curve" smooth="yes"/>
      <point x="979.5" y="783.5" type="line" smooth="yes"/>
      <point x="1038" y="945.08"/>
      <point x="1119.5" y="1006.5"/>
      <point x="1263" y="1006.5" type="curve" smooth="yes"/>
      <point x="1443.5" y="1006.5"/>
      <point x="1527" y="889"/>
      <point x="1527" y="655" type="curve" smooth="yes"/>
      <point x="1527" y="548.5" type="line" smooth="yes"/>
      <point x="1527" y="296"/>
      <point x="1419.5" y="185.5"/>
      <point x="1229" y="185.5" type="curve" smooth="yes"/>
      <point x="1136" y="185.5"/>
      <point x="1065" y="209"/>
      <point x="1010" y="246.5" type="curve"/>
    </contour>
    <contour>
      <point x="58" y="169" type="line"/>
      <point x="158" y="97"/>
      <point x="268" y="63"/>
      <point x="401" y="63" type="curve" smooth="yes"/>
      <point x="613" y="63"/>
      <point x="727" y="149.479"/>
      <point x="727" y="351.826" type="curve" smooth="yes"/>
      <point x="727" y="356.355"/>
      <point x="727" y="374.471"/>
      <point x="727" y="379" type="curve" smooth="yes"/>
      <point x="727" y="567.54"/>
      <point x="613.016" y="647.071"/>
      <point x="386" y="650" type="curve" smooth="yes"/>
      <point x="231" y="652" type="line"/>
      <point x="231" y="684" type="line"/>
      <point x="381" y="686" type="line" smooth="yes"/>
      <point x="611" y="689.067"/>
      <point x="714" y="769.328"/>
      <point x="714" y="943" type="curve"/>
      <point x="714" y="943"/>
      <point x="714" y="967"/>
      <point x="714" y="967" type="curve"/>
      <point x="714" y="1134.83"/>
      <point x="629.088" y="1231"/>
      <point x="421" y="1231" type="curve" smooth="yes"/>
      <point x="310.144" y="1231"/>
      <point x="210.044" y="1206"/>
      <point x="111" y="1144" type="curve"/>
      <point x="115" y="1187" type="line"/>
      <point x="201.146" y="1239"/>
      <point x="303.215" y="1265"/>
      <point x="421" y="1265" type="curve" smooth="yes"/>
      <point x="651.069" y="1265"/>
      <point x="750" y="1157.86"/>
      <point x="750" y="968" type="curve" smooth="yes"/>
      <point x="750" y="965.636"/>
      <point x="750" y="944.364"/>
      <point x="750" y="942" type="curve" smooth="yes"/>
      <point x="750" y="765.712"/>
      <point x="650" y="679.067"/>
      <point x="474" y="669" type="curve"/>
      <point x="474" y="666" type="line"/>
      <point x="661" y="652.048"/>
      <point x="763" y="563.356"/>
      <point x="763" y="378" type="curve" smooth="yes"/>
      <point x="763" y="373.977"/>
      <point x="763" y="353.86"/>
      <point x="763" y="349.837" type="curve" smooth="yes"/>
      <point x="763" y="127.515"/>
      <point x="639" y="29"/>
      <point x="402" y="29" type="curve" smooth="yes"/>
      <point x="264" y="29"/>
      <point x="150" y="63"/>
      <point x="63" y="125" type="curve"/>
    </contour>
  </outline>
</glyph>
<glyph name="Anudatta.dv" format="2">
  <unicode hex="0952"/>
  <anchor x="-225" y="9" name="_bottom3"/>
  <outline>
    <contour>
      <point x="-932.5" y="-375.5" type="line"/>
      <point x="-940" y="-341.5" type="line"/>
      <point x="-228.5" y="-341.5" type="line"/>
      <point x="-222" y="-375.5" type="line"/>
    </contour>
  </outline>
  <guideline angle="90" x="-151" y="0"/>
  <guideline angle="0" x="0" y="9"/>
</glyph>
<glyph name="uni0957" format="2">
  <unicode hex="0957"/>
  <anchor x="-243" y="30" name="_bottom5"/>
  <outline>
    <contour>
      <point x="-248.251" y="-315.25" type="curve" smooth="yes"/>
      <point x="-383.374" y="-315.25"/>
      <point x="-509.65" y="-289.066"/>
      <point x="-601.25" y="-232.25" type="curve"/>
      <point x="-604.25" y="-193.25" type="line"/>
      <point x="-507.597" y="-254.75"/>
      <point x="-383.072" y="-280.75"/>
      <point x="-248.25" y="-280.75" type="curve" smooth="yes"/>
      <point x="-113.428" y="-280.75"/>
      <point x="10.0975" y="-254.75"/>
      <point x="107.75" y="-193.25" type="curve"/>
      <point x="104.75" y="-232.25" type="line"/>
      <point x="12.1502" y="-289.066"/>
      <point x="-113.128" y="-315.25"/>
    </contour>
    <contour>
      <point x="-248.251" y="-615.25" type="curve" smooth="yes"/>
      <point x="-383.374" y="-615.25"/>
      <point x="-509.65" y="-589.066"/>
      <point x="-601.25" y="-532.25" type="curve"/>
      <point x="-604.25" y="-493.25" type="line"/>
      <point x="-507.597" y="-554.75"/>
      <point x="-383.072" y="-580.75"/>
      <point x="-248.25" y="-580.75" type="curve" smooth="yes"/>
      <point x="-113.428" y="-580.75"/>
      <point x="10.0975" y="-554.75"/>
      <point x="107.75" y="-493.25" type="curve"/>
      <point x="104.75" y="-532.25" type="line"/>
      <point x="12.1502" y="-589.066"/>
      <point x="-113.128" y="-615.25"/>
    </contour>
  </outline>
  <guideline angle="90" x="-169" y="0"/>
  <guideline angle="0" x="0" y="9"/>
</glyph>
<glyph name="KhaNukta.dv" format="2">
  <advance width="1515"/>
  <unicode hex="0959"/>
  <anchor x="1271.5" y="9" name="bottom"/>
  <anchor x="1265.5" y="9" name="bottom2"/>
  <anchor x="1288.5" y="9" name="bottom3"/>
  <anchor x="1270.5" y="30" name="bottom5"/>
  <anchor x="1270" y="1241.5" name="top"/>
  <outline>
    <contour>
      <point x="1288" y="1230" type="line"/>
      <point x="1288" y="0" type="line"/>
      <point x="1253.5" y="0" type="line"/>
      <point x="1253.5" y="1230" type="line"/>
    </contour>
    <contour>
      <point x="1115.5" y="1221" type="line"/>
      <point x="1109" y="1250.5" type="line"/>
      <point x="1541" y="1250.5" type="line"/>
      <point x="1547.5" y="1221" type="line"/>
    </contour>
    <contour>
      <point x="-26" y="1221" type="line"/>
      <point x="-32" y="1251" type="line"/>
      <point x="1441" y="1251" type="line"/>
      <point x="1447" y="1221" type="line"/>
    </contour>
    <contour>
      <point x="523" y="941" type="curve" smooth="yes"/>
      <point x="523" y="932" type="line" smooth="yes"/>
      <point x="523" y="699.067"/>
      <point x="403.724" y="602"/>
      <point x="146.147" y="602" type="curve" smooth="yes"/>
      <point x="105.101" y="602" type="line"/>
      <point x="58" y="635" type="line"/>
      <point x="140.145" y="635" type="line" smooth="yes"/>
      <point x="375.717" y="635"/>
      <point x="487" y="718.964"/>
      <point x="487" y="932" type="curve" smooth="yes"/>
      <point x="487" y="941" type="line" smooth="yes"/>
      <point x="487" y="1082.85"/>
      <point x="450" y="1166.97"/>
      <point x="365" y="1229" type="curve"/>
      <point x="411.704" y="1229" type="line"/>
      <point x="482.258" y="1174.91"/>
      <point x="523" y="1083.89"/>
    </contour>
    <contour>
      <point x="1230.26" y="148" type="line"/>
      <point x="1148.03" y="98"/>
      <point x="1020.34" y="62"/>
      <point x="870.666" y="62" type="curve" smooth="yes"/>
      <point x="546.034" y="62"/>
      <point x="364.213" y="193.289"/>
      <point x="216.635" y="500" type="curve" smooth="yes"/>
      <point x="169" y="599" type="line"/>
      <point x="58" y="603" type="line"/>
      <point x="58" y="635" type="line"/>
      <point x="201.406" y="618" type="line"/>
      <point x="250.891" y="514" type="line" smooth="yes"/>
      <point x="390.024" y="221.592"/>
      <point x="570.074" y="97"/>
      <point x="869.524" y="97" type="curve" smooth="yes"/>
      <point x="1016.21" y="97"/>
      <point x="1149.95" y="132"/>
      <point x="1258" y="201" type="curve"/>
      <point x="1258" y="195" type="line"/>
    </contour>
    <contour>
      <point x="1008.53" y="399" type="curve" smooth="yes"/>
      <point x="828.19" y="399"/>
      <point x="726" y="488.137"/>
      <point x="726" y="675.709" type="curve" smooth="yes"/>
      <point x="726" y="698.671" type="line" smooth="yes"/>
      <point x="726" y="882.465"/>
      <point x="817.906" y="975"/>
      <point x="997.675" y="975" type="curve" smooth="yes"/>
      <point x="1045.94" y="975"/>
      <point x="1089.42" y="969"/>
      <point x="1128" y="956" type="curve"/>
      <point x="1134" y="920" type="line"/>
      <point x="1087.77" y="936"/>
      <point x="1048.2" y="941"/>
      <point x="1000" y="941" type="curve" smooth="yes"/>
      <point x="841.633" y="941"/>
      <point x="763" y="861.477"/>
      <point x="763" y="698.65" type="curve" smooth="yes"/>
      <point x="763" y="677.809" type="line" smooth="yes"/>
      <point x="763" y="511.207"/>
      <point x="849.002" y="433"/>
      <point x="1009" y="433" type="curve" smooth="yes"/>
      <point x="1133" y="433"/>
      <point x="1222" y="481"/>
      <point x="1257" y="579" type="curve"/>
      <point x="1262" y="532" type="line"/>
      <point x="1259" y="532" type="line"/>
      <point x="1229.95" y="455.424"/>
      <point x="1141.78" y="399"/>
    </contour>
    <contour>
      <point x="152.5" y="-71" type="curve" smooth="yes"/>
      <point x="118" y="-71"/>
      <point x="104" y="-48"/>
      <point x="104" y="-10" type="curve"/>
      <point x="104" y="-8.0114"/>
      <point x="104" y="-2.72259"/>
      <point x="104" y="-1" type="curve"/>
      <point x="104" y="39"/>
      <point x="118" y="61"/>
      <point x="152.5" y="61" type="curve" smooth="yes"/>
      <point x="186" y="61"/>
      <point x="200" y="39"/>
      <point x="200" y="-1" type="curve"/>
      <point x="200" y="-2.9886"/>
      <point x="200" y="-8.27741"/>
      <point x="200" y="-10" type="curve"/>
      <point x="200" y="-48.5"/>
      <point x="186" y="-71"/>
    </contour>
  </outline>
  <guideline angle="0" x="0" y="-40"/>
  <guideline angle="90" x="55" y="0"/>
  <guideline angle="90" x="321" y="0"/>
  <guideline angle="90" x="890" y="0"/>
  <guideline angle="90" x="321" y="0"/>
  <guideline angle="90" x="156" y="0"/>
  <guideline angle="90" x="1190.5" y="0"/>
  <guideline angle="0" x="0" y="9"/>
  <guideline angle="90" x="1195.5" y="0"/>
  <guideline angle="90" x="1178.5" y="0"/>
  <guideline angle="0" x="0" y="1262"/>
  <guideline angle="90" x="1213.5" y="0"/>
  <guideline angle="0" x="0" y="30"/>
</glyph>
<glyph name="GaNukta.dv" format="2">
  <advance width="1131"/>
  <unicode hex="095A"/>
  <anchor x="887.5" y="9" name="bottom"/>
  <anchor x="881.5" y="9" name="bottom2"/>
  <anchor x="904.5" y="9" name="bottom3"/>
  <anchor x="886.5" y="30" name="bottom5"/>
  <anchor x="886" y="1241.5" name="top"/>
  <outline>
    <contour>
      <point x="1067.5" y="1221" type="line"/>
      <point x="-24" y="1221" type="line"/>
      <point x="-30.5" y="1250.5" type="line"/>
      <point x="1061" y="1250.5" type="line"/>
    </contour>
    <contour>
      <point x="251" y="1229" type="curve"/>
      <point x="296" y="1229" type="line"/>
      <point x="381" y="1155.93"/>
      <point x="437" y="1048.21"/>
      <point x="437" y="820.5" type="curve" smooth="yes"/>
      <point x="437" y="808" type="line" smooth="yes"/>
      <point x="437" y="520.627"/>
      <point x="339.427" y="418"/>
      <point x="167.5" y="418" type="curve" smooth="yes"/>
      <point x="129.804" y="418"/>
      <point x="91.9176" y="423.868"/>
      <point x="64" y="435.5" type="curve"/>
      <point x="59" y="472" type="line"/>
      <point x="95.1066" y="458.388"/>
      <point x="129.688" y="452"/>
      <point x="166" y="452" type="curve" smooth="yes"/>
      <point x="314.645" y="452"/>
      <point x="400.5" y="542.139"/>
      <point x="400.5" y="810.5" type="curve" smooth="yes"/>
      <point x="400.5" y="820" type="line" smooth="yes"/>
      <point x="400.5" y="1043.89"/>
      <point x="346.5" y="1151.14"/>
    </contour>
    <contour>
      <point x="904" y="1230" type="line"/>
      <point x="904" y="0" type="line"/>
      <point x="869.5" y="0" type="line"/>
      <point x="869.5" y="1230" type="line"/>
    </contour>
    <contour>
      <point x="731.5" y="1221" type="line"/>
      <point x="725" y="1250.5" type="line"/>
      <point x="1157" y="1250.5" type="line"/>
      <point x="1163.5" y="1221" type="line"/>
    </contour>
    <contour>
      <point x="234.5" y="8.5" type="curve" smooth="yes"/>
      <point x="200" y="8.5"/>
      <point x="186" y="31.5"/>
      <point x="186" y="69.5" type="curve"/>
      <point x="186" y="71.4886"/>
      <point x="186" y="76.7774"/>
      <point x="186" y="78.5" type="curve"/>
      <point x="186" y="118.5"/>
      <point x="200" y="140.5"/>
      <point x="234.5" y="140.5" type="curve" smooth="yes"/>
      <point x="268" y="140.5"/>
      <point x="282" y="118.5"/>
      <point x="282" y="78.5" type="curve"/>
      <point x="282" y="76.5114"/>
      <point x="282" y="71.2226"/>
      <point x="282" y="69.5" type="curve"/>
      <point x="282" y="31"/>
      <point x="268" y="8.5"/>
    </contour>
  </outline>
  <guideline angle="0" x="0" y="119"/>
  <guideline angle="90" x="806.5" y="0"/>
  <guideline angle="0" x="0" y="9"/>
  <guideline angle="90" x="811.5" y="0"/>
  <guideline angle="90" x="794.5" y="0"/>
  <guideline angle="0" x="0" y="1262"/>
  <guideline angle="90" x="829.5" y="0"/>
  <guideline angle="0" x="0" y="30"/>
</glyph>
<glyph name="vowelRuu.dv" format="2">
  <advance width="1575"/>
  <unicode hex="0960"/>
  <anchor x="1177" y="9" name="bottom3"/>
  <anchor x="813" y="30" name="bottom5"/>
  <anchor x="812.5" y="1241.5" name="top"/>
  <outline>
    <contour>
      <point x="831" y="0" type="line"/>
      <point x="796" y="0" type="line"/>
      <point x="796" y="1228" type="line"/>
      <point x="831" y="1228" type="line"/>
    </contour>
    <contour>
      <point x="809" y="450" type="line"/>
      <point x="106" y="111" type="line"/>
      <point x="106" y="151" type="line"/>
      <point x="366" y="276" type="line"/>
      <point x="386" y="281" type="line"/>
      <point x="432" y="308"/>
      <point x="476.042" y="327.889"/>
      <point x="544.429" y="360.659" type="curve" smooth="yes"/>
      <point x="806" y="486" type="line"/>
    </contour>
    <contour>
      <point x="378" y="267" type="line"/>
      <point x="334" y="258" type="line"/>
      <point x="434.706" y="344.217"/>
      <point x="478" y="435.691"/>
      <point x="478" y="613" type="curve" smooth="yes"/>
      <point x="478" y="636" type="line" smooth="yes"/>
      <point x="478" y="834.353"/>
      <point x="413.481" y="912"/>
      <point x="272.762" y="912" type="curve" smooth="yes"/>
      <point x="209.266" y="912"/>
      <point x="151.701" y="891.695"/>
      <point x="92" y="854" type="curve"/>
      <point x="95.9165" y="896" type="line"/>
      <point x="144.831" y="927.019"/>
      <point x="205.536" y="946"/>
      <point x="274.116" y="946" type="curve" smooth="yes"/>
      <point x="438.608" y="946"/>
      <point x="514" y="853.275"/>
      <point x="514" y="639" type="curve" smooth="yes"/>
      <point x="514" y="612" type="line" smooth="yes"/>
      <point x="514" y="427.245"/>
      <point x="459.6" y="331.601"/>
      <point x="378" y="272" type="curve"/>
    </contour>
    <contour>
      <point x="1608.5" y="1221" type="line"/>
      <point x="-27.5" y="1221" type="line"/>
      <point x="-33.5" y="1250.5" type="line"/>
      <point x="1602" y="1250.5" type="line"/>
    </contour>
    <contour>
      <point x="1256" y="696.5" type="line"/>
      <point x="1254" y="659" type="line"/>
      <point x="820.5" y="455.5" type="line"/>
      <point x="817" y="492" type="line"/>
    </contour>
    <contour>
      <point x="1257" y="965.5" type="line"/>
      <point x="1266.5" y="880"/>
      <point x="1273" y="831"/>
      <point x="1282.5" y="745.5" type="curve"/>
      <point x="1255" y="656" type="line"/>
      <point x="1221.5" y="647.5" type="line"/>
      <point x="1221.5" y="965.5" type="line"/>
    </contour>
    <contour>
      <point x="1370.5" y="-36" type="curve" smooth="yes"/>
      <point x="1229.12" y="-36"/>
      <point x="1139" y="41.3603"/>
      <point x="1139" y="196.5" type="curve" smooth="yes"/>
      <point x="1139" y="205" type="line" smooth="yes"/>
      <point x="1139" y="356.206"/>
      <point x="1227.22" y="441.025"/>
      <point x="1416" y="454.5" type="curve"/>
      <point x="1416" y="457" type="line"/>
      <point x="1340.08" y="503.798"/>
      <point x="1272.27" y="564.944"/>
      <point x="1220.5" y="656.5" type="curve"/>
      <point x="1253" y="669.5" type="line"/>
      <point x="1298.39" y="579.99"/>
      <point x="1366.55" y="523.152"/>
      <point x="1461.5" y="459" type="curve"/>
      <point x="1461.5" y="428.5" type="line"/>
      <point x="1257.24" y="417.988"/>
      <point x="1175.5" y="346.908"/>
      <point x="1175.5" y="205" type="curve" smooth="yes"/>
      <point x="1175.5" y="199" type="line" smooth="yes"/>
      <point x="1175.5" y="62.2792"/>
      <point x="1248.98" y="-2"/>
      <point x="1372.5" y="-2" type="curve" smooth="yes"/>
      <point x="1433.37" y="-2"/>
      <point x="1483.39" y="13"/>
      <point x="1525" y="40.5" type="curve"/>
      <point x="1520.42" y="1" type="line"/>
      <point x="1484.73" y="-22"/>
      <point x="1432.78" y="-36"/>
    </contour>
  </outline>
  <guideline angle="90" x="515" y="0"/>
</glyph>
<glyph name="matraLruu.dv" format="2">
  <unicode hex="0963"/>
  <outline>
    <contour>
      <point x="-81" y="-183" type="line"/>
      <point x="-81" y="-192.5" type="line" smooth="yes"/>
      <point x="-81" y="-274"/>
      <point x="-110.362" y="-323.028"/>
      <point x="-185.627" y="-385" type="curve" smooth="yes"/>
      <point x="-254.901" y="-442.039"/>
      <point x="-299" y="-475.5"/>
      <point x="-299" y="-537" type="curve" smooth="yes"/>
      <point x="-299" y="-593"/>
      <point x="-261.978" y="-623.5"/>
      <point x="-191.336" y="-623.5" type="curve" smooth="yes"/>
      <point x="-147.001" y="-623.5"/>
      <point x="-105.099" y="-612"/>
      <point x="-71" y="-585" type="curve"/>
      <point x="-72.9623" y="-619" type="line"/>
      <point x="-101.906" y="-641.5"/>
      <point x="-144.585" y="-653"/>
      <point x="-192.17" y="-653" type="curve" smooth="yes"/>
      <point x="-285.396" y="-653"/>
      <point x="-331" y="-600.039"/>
      <point x="-331" y="-536.466" type="curve" smooth="yes"/>
      <point x="-331" y="-465.84"/>
      <point x="-289.978" y="-428.498"/>
      <point x="-211.69" y="-364.5" type="curve" smooth="yes"/>
      <point x="-140.653" y="-306.429"/>
      <point x="-113.5" y="-264.201"/>
      <point x="-113.5" y="-192.871" type="curve" smooth="yes"/>
      <point x="-113.5" y="-185" type="line"/>
    </contour>
    <contour>
      <point x="-204" y="-650.5" type="line"/>
      <point x="-266.5" y="-664.5"/>
      <point x="-293.5" y="-696"/>
      <point x="-293.5" y="-745.5" type="curve" smooth="yes"/>
      <point x="-293.5" y="-809"/>
      <point x="-248.462" y="-837.5"/>
      <point x="-180.906" y="-837.5" type="curve" smooth="yes"/>
      <point x="-134.4" y="-837.5"/>
      <point x="-94.2573" y="-824.5"/>
      <point x="-59.5" y="-798.5" type="curve"/>
      <point x="-62.4631" y="-832.5" type="line"/>
      <point x="-89.9465" y="-854"/>
      <point x="-129.531" y="-866.5"/>
      <point x="-181.822" y="-866.5" type="curve" smooth="yes"/>
      <point x="-268.322" y="-866.5"/>
      <point x="-325.5" y="-824.5"/>
      <point x="-325.5" y="-747" type="curve" smooth="yes"/>
      <point x="-325.5" y="-691.5"/>
      <point x="-293.5" y="-653"/>
      <point x="-234" y="-641" type="curve"/>
      <point x="-233.5" y="-636" type="line"/>
    </contour>
    <contour>
      <point x="-446" y="-329.5" type="line"/>
      <point x="-447" y="-178" type="line" smooth="yes"/>
      <point x="-447.706" y="-70.992"/>
      <point x="-495.158" y="-20"/>
      <point x="-589.041" y="-20" type="curve" smooth="yes"/>
      <point x="-681.911" y="-20"/>
      <point x="-742.5" y="-78.0876"/>
      <point x="-742.5" y="-211" type="curve" smooth="yes"/>
      <point x="-742.5" y="-229" type="line" smooth="yes"/>
      <point x="-742.5" y="-350.259"/>
      <point x="-713.5" y="-426.551"/>
      <point x="-597.5" y="-518" type="curve"/>
      <point x="-646" y="-518" type="line"/>
      <point x="-744" y="-437.653"/>
      <point x="-778" y="-355.811"/>
      <point x="-778" y="-230" type="curve" smooth="yes"/>
      <point x="-778" y="-208.5" type="line" smooth="yes"/>
      <point x="-778" y="-60.5179"/>
      <point x="-704.441" y="11.5"/>
      <point x="-588.634" y="11.5" type="curve" smooth="yes"/>
      <point x="-489.708" y="11.5"/>
      <point x="-444" y="-35.5"/>
      <point x="-431" y="-113" type="curve"/>
      <point x="-428" y="-113" type="line"/>
      <point x="-415.154" y="-36"/>
      <point x="-356.492" y="10.5"/>
      <point x="-261.569" y="10.5" type="curve" smooth="yes"/>
      <point x="-147.147" y="10.5"/>
      <point x="-81" y="-57"/>
      <point x="-81" y="-182" type="curve" smooth="yes"/>
      <point x="-81" y="-189" type="line"/>
      <point x="-113.5" y="-191" type="line"/>
      <point x="-113.5" y="-184.5" type="line" smooth="yes"/>
      <point x="-113.5" y="-77.5"/>
      <point x="-165.764" y="-21"/>
      <point x="-259.453" y="-21" type="curve" smooth="yes"/>
      <point x="-353.683" y="-21"/>
      <point x="-410.758" y="-69.9857"/>
      <point x="-412.524" y="-178" type="curve" smooth="yes"/>
      <point x="-415" y="-329.5" type="line"/>
    </contour>
  </outline>
</glyph>
<glyph name="Danda.dv" format="2">
  <advance width="774"/>
  <unicode hex="0964"/>
  <outline>
    <contour>
      <point x="404.5" y="1291" type="line"/>
      <point x="404.5" y="-9" type="line"/>
      <point x="369.5" y="-9" type="line"/>
      <point x="369.5" y="1304" type="line"/>
    </contour>
  </outline>
</glyph>
<glyph name="Paach.dv" format="2">
  <advance width="1041"/>
  <unicode hex="096B"/>
  <outline>
    <contour>
      <point x="233.54" y="1239.7" type="curve"/>
      <point x="271.52" y="1239.7" type="line"/>
      <point x="213.38" y="1157.9"/>
      <point x="184.34" y="1055.56"/>
      <point x="184.34" y="900.26" type="curve" smooth="yes"/>
      <point x="184.34" y="860.84" type="line" smooth="yes"/>
      <point x="184.34" y="607.12"/>
      <point x="304.7" y="507.74"/>
      <point x="506.4" y="507.74" type="curve" smooth="yes"/>
      <point x="671.4" y="507.74"/>
      <point x="784.94" y="590.24"/>
      <point x="821.16" y="737.16" type="curve"/>
      <point x="825.9" y="678.24" type="line"/>
      <point x="822.06" y="678.24" type="line"/>
      <point x="793.28" y="565.44"/>
      <point x="684.92" y="474.18"/>
      <point x="507.32" y="474.18" type="curve" smooth="yes"/>
      <point x="281" y="474.18"/>
      <point x="146.7" y="585.809"/>
      <point x="146.7" y="861.02" type="curve" smooth="yes"/>
      <point x="146.7" y="902.45" type="line" smooth="yes"/>
      <point x="146.7" y="1059.56"/>
      <point x="176.9" y="1160.9"/>
    </contour>
    <contour>
      <point x="817.3" y="374.92" type="curve" smooth="yes"/>
      <point x="817.3" y="1071.28" type="line"/>
      <point x="851.78" y="1071.28" type="line"/>
      <point x="851.78" y="373.08" type="line" smooth="yes"/>
      <point x="851.78" y="106.56"/>
      <point x="728.5" y="0"/>
      <point x="513.708" y="0" type="curve" smooth="yes"/>
      <point x="405" y="0"/>
      <point x="322" y="26.5"/>
      <point x="258.5" y="69" type="curve"/>
      <point x="252.92" y="114.94" type="line"/>
      <point x="323" y="62.5"/>
      <point x="407.5" y="33.56"/>
      <point x="514.32" y="33.56" type="curve" smooth="yes"/>
      <point x="705.5" y="33.56"/>
      <point x="817.3" y="130.68"/>
    </contour>
  </outline>
  <guideline angle="0" x="0" y="-21"/>
</glyph>
<glyph name="Saha.dv" format="2">
  <advance width="987"/>
  <unicode hex="096C"/>
  <outline>
    <contour>
      <point x="513.138" y="15.5" type="curve" smooth="yes"/>
      <point x="280.683" y="15.5"/>
      <point x="145" y="125.5"/>
      <point x="145" y="350.5" type="curve" smooth="yes"/>
      <point x="145" y="371" type="line" smooth="yes"/>
      <point x="145" y="573.5"/>
      <point x="250.5" y="670.5"/>
      <point x="474" y="680.5" type="curve"/>
      <point x="474" y="684.5" type="line"/>
      <point x="257.074" y="696.5"/>
      <point x="170.5" y="791.5"/>
      <point x="170.5" y="955" type="curve" smooth="yes"/>
      <point x="170.5" y="965.5" type="line" smooth="yes"/>
      <point x="170.5" y="1151.5"/>
      <point x="292" y="1258.5"/>
      <point x="528.5" y="1258.5" type="curve" smooth="yes"/>
      <point x="652.5" y="1258.5"/>
      <point x="756" y="1235.5"/>
      <point x="837" y="1190.5" type="curve"/>
      <point x="841.5" y="1150.5" type="line"/>
      <point x="750.5" y="1202"/>
      <point x="646.5" y="1224"/>
      <point x="528" y="1224" type="curve" smooth="yes"/>
      <point x="320" y="1224"/>
      <point x="207" y="1135.5"/>
      <point x="207" y="966" type="curve" smooth="yes"/>
      <point x="207" y="958" type="line" smooth="yes"/>
      <point x="207" y="779.5"/>
      <point x="315.936" y="705.528"/>
      <point x="560.555" y="700.959" type="curve" smooth="yes"/>
      <point x="719" y="698" type="line"/>
      <point x="719" y="665" type="line"/>
      <point x="559.018" y="662.849" type="line" smooth="yes"/>
      <point x="304.494" y="659.427"/>
      <point x="181.5" y="582"/>
      <point x="181.5" y="371.5" type="curve" smooth="yes"/>
      <point x="181.5" y="351.5" type="line" smooth="yes"/>
      <point x="181.5" y="147.5"/>
      <point x="304.73" y="50"/>
      <point x="511.335" y="50" type="curve" smooth="yes"/>
      <point x="633.015" y="50"/>
      <point x="738.5" y="83.5"/>
      <point x="806" y="147" type="curve"/>
      <point x="810.5" y="108" type="line"/>
      <point x="742.5" y="51"/>
      <point x="638.887" y="15.5"/>
    </contour>
    <contour>
      <point x="835.84" y="373.3" type="line"/>
      <point x="835.84" y="130.92" type="line"/>
      <point x="896.39" y="-231.43" type="line"/>
      <point x="861" y="-231.5" type="line"/>
      <point x="804.32" y="112.8" type="line"/>
      <point x="800.54" y="114.69" type="line"/>
      <point x="800.54" y="373.3" type="line"/>
    </contour>
  </outline>
  <guideline angle="0" x="0" y="1249"/>
</glyph>
<glyph name="uni0975" format="2">
  <advance width="1887"/>
  <unicode hex="0975"/>
  <anchor x="1722" y="1241.5" name="top"/>
  <outline>
    <contour>
      <point x="969.5" y="1608" type="curve" smooth="yes"/>
      <point x="969.5" y="1620"/>
      <point x="969.5" y="1634"/>
      <point x="972.5" y="1649" type="curve"/>
      <point x="1002" y="1649" type="line"/>
      <point x="1002" y="1619.5" type="line" smooth="yes"/>
      <point x="1002" y="1510.5"/>
      <point x="1069.05" y="1481.73"/>
      <point x="1228" y="1467.5" type="curve" smooth="yes"/>
      <point x="1356.5" y="1456" type="line" smooth="yes"/>
      <point x="1535.85" y="1439.95"/>
      <point x="1596.63" y="1395.26"/>
      <point x="1630.5" y="1333" type="curve"/>
      <point x="1633.5" y="1333.5" type="line"/>
      <point x="1629.53" y="1499.5"/>
      <point x="1588.29" y="1584.45"/>
      <point x="1457.5" y="1630" type="curve" smooth="yes"/>
      <point x="1357" y="1665" type="line" smooth="yes"/>
      <point x="1233.69" y="1707.94"/>
      <point x="1187" y="1768"/>
      <point x="1187" y="1867" type="curve" smooth="yes"/>
      <point x="1187" y="1882"/>
      <point x="1188" y="1895"/>
      <point x="1190.5" y="1908" type="curve"/>
      <point x="1220" y="1908" type="line"/>
      <point x="1220" y="1888" type="line" smooth="yes"/>
      <point x="1220" y="1774"/>
      <point x="1264.15" y="1733.61"/>
      <point x="1371" y="1696" type="curve" smooth="yes"/>
      <point x="1469" y="1661.5" type="line" smooth="yes"/>
      <point x="1617.53" y="1609.21"/>
      <point x="1660" y="1527.5"/>
      <point x="1660" y="1323.5" type="curve" smooth="yes"/>
      <point x="1660" y="1239.5" type="line"/>
      <point x="1626.5" y="1239.5" type="line"/>
      <point x="1626.5" y="1262.5" type="line" smooth="yes"/>
      <point x="1626.5" y="1348.5"/>
      <point x="1549.79" y="1407.66"/>
      <point x="1354.5" y="1424" type="curve" smooth="yes"/>
      <point x="1223" y="1435" type="line" smooth="yes"/>
      <point x="1046.2" y="1449.79"/>
      <point x="969.5" y="1494"/>
    </contour>
    <contour>
      <point x="1660.5" y="0" type="line"/>
      <point x="1626" y="0" type="line"/>
      <point x="1626" y="1230" type="line"/>
      <point x="1660.5" y="1230" type="line"/>
    </contour>
    <contour>
      <point x="1920" y="1221" type="line"/>
      <point x="1374" y="1221" type="line"/>
      <point x="1367.5" y="1250.5" type="line"/>
      <point x="1913.5" y="1250.5" type="line"/>
    </contour>
    <contour>
      <point x="1434" y="1221" type="line"/>
      <point x="905" y="1221" type="line"/>
      <point x="899" y="1251" type="line"/>
      <point x="1428" y="1251" type="line"/>
    </contour>
    <contour>
      <point x="1140" y="0" type="line"/>
      <point x="1140" y="1232" type="line"/>
      <point x="1176" y="1232" type="line"/>
      <point x="1176" y="0" type="line"/>
    </contour>
    <contour>
      <point x="58" y="169" type="line"/>
      <point x="157" y="98"/>
      <point x="267.011" y="63"/>
      <point x="399.687" y="63" type="curve" smooth="yes"/>
      <point x="605.007" y="63"/>
      <point x="717" y="149.479"/>
      <point x="717" y="354.826" type="curve" smooth="yes"/>
      <point x="717" y="379" type="line" smooth="yes"/>
      <point x="717" y="567.54"/>
      <point x="605.314" y="647.071"/>
      <point x="382.875" y="650" type="curve" smooth="yes"/>
      <point x="231" y="652" type="line"/>
      <point x="231" y="684" type="line"/>
      <point x="377.894" y="686" type="line" smooth="yes"/>
      <point x="603.133" y="689.067"/>
      <point x="704" y="768.328"/>
      <point x="704" y="951" type="curve" smooth="yes"/>
      <point x="704" y="967" type="line" smooth="yes"/>
      <point x="704" y="1133.83"/>
      <point x="615.892" y="1231"/>
      <point x="416.735" y="1231" type="curve" smooth="yes"/>
      <point x="308.138" y="1231"/>
      <point x="210.044" y="1205"/>
      <point x="111" y="1144" type="curve"/>
      <point x="115" y="1187" type="line"/>
      <point x="201.146" y="1238"/>
      <point x="301.337" y="1265"/>
      <point x="416.921" y="1265" type="curve" smooth="yes"/>
      <point x="637.981" y="1265"/>
      <point x="740" y="1155"/>
      <point x="740" y="968" type="curve" smooth="yes"/>
      <point x="740" y="950" type="line" smooth="yes"/>
      <point x="740" y="768.358"/>
      <point x="640" y="680.03"/>
      <point x="464" y="670" type="curve"/>
      <point x="464" y="662" type="line"/>
      <point x="653" y="649.242"/>
      <point x="753" y="560.782"/>
      <point x="753" y="378" type="curve" smooth="yes"/>
      <point x="753" y="352.837" type="line" smooth="yes"/>
      <point x="753" y="130.515"/>
      <point x="631.033" y="29"/>
      <point x="400.869" y="29" type="curve" smooth="yes"/>
      <point x="262.131" y="29"/>
      <point x="151" y="63"/>
      <point x="63" y="125" type="curve"/>
    </contour>
    <contour>
      <point x="456" y="674" type="line"/>
      <point x="495" y="676" type="line"/>
      <point x="495" y="673" type="line"/>
      <point x="605" y="676"/>
      <point x="701" y="677"/>
      <point x="812" y="677" type="curve" smooth="yes"/>
      <point x="1159" y="677" type="line"/>
      <point x="1159" y="645" type="line"/>
      <point x="812" y="645" type="line" smooth="yes"/>
      <point x="704" y="645"/>
      <point x="615" y="646"/>
      <point x="518" y="653" type="curve"/>
      <point x="518" y="650" type="line"/>
      <point x="456" y="656" type="line"/>
    </contour>
  </outline>
  <guideline angle="90" x="1660" y="0"/>
</glyph>
<glyph name="quotedblright" format="2">
  <advance width="607"/>
  <unicode hex="201D"/>
  <outline>
    <contour>
      <point x="446" y="1329" type="line"/>
      <point x="451" y="1291"/>
      <point x="455" y="1253"/>
      <point x="455" y="1213" type="curve" smooth="yes"/>
      <point x="455" y="1079"/>
      <point x="425" y="973"/>
      <point x="352" y="875" type="curve"/>
      <point x="376" y="855" type="line"/>
      <point x="462" y="961"/>
      <point x="492" y="1075"/>
      <point x="492" y="1215" type="curve" smooth="yes"/>
      <point x="492" y="1264"/>
      <point x="487" y="1305"/>
      <point x="483" y="1329" type="curve"/>
    </contour>
    <contour>
      <point x="170" y="1329" type="line"/>
      <point x="175" y="1291"/>
      <point x="179" y="1253"/>
      <point x="179" y="1213" type="curve" smooth="yes"/>
      <point x="179" y="1079"/>
      <point x="149" y="973"/>
      <point x="76" y="875" type="curve"/>
      <point x="100" y="855" type="line"/>
      <point x="186" y="961"/>
      <point x="216" y="1075"/>
      <point x="216" y="1215" type="curve" smooth="yes"/>
      <point x="216" y="1264"/>
      <point x="211" y="1305"/>
      <point x="207" y="1329" type="curve"/>
    </contour>
  </outline>
</glyph>
<glyph name="ellipsis" format="2">
  <advance width="1019"/>
  <unicode hex="2026"/>
  <outline>
    <contour>
      <point x="864" y="-12" type="curve" smooth="yes"/>
      <point x="894" y="-12"/>
      <point x="909" y="7"/>
      <point x="909" y="45" type="curve" smooth="yes"/>
      <point x="909" y="55" type="line" smooth="yes"/>
      <point x="909" y="92"/>
      <point x="894" y="110"/>
      <point x="864" y="110" type="curve" smooth="yes"/>
      <point x="836" y="110"/>
      <point x="821" y="92"/>
      <point x="821" y="55" type="curve" smooth="yes"/>
      <point x="821" y="45" type="line" smooth="yes"/>
      <point x="821" y="7"/>
      <point x="836" y="-12"/>
    </contour>
    <contour>
      <point x="508" y="-12" type="curve" smooth="yes"/>
      <point x="538" y="-12"/>
      <point x="553" y="7"/>
      <point x="553" y="45" type="curve" smooth="yes"/>
      <point x="553" y="55" type="line" smooth="yes"/>
      <point x="553" y="92"/>
      <point x="538" y="110"/>
      <point x="508" y="110" type="curve" smooth="yes"/>
      <point x="480" y="110"/>
      <point x="465" y="92"/>
      <point x="465" y="55" type="curve" smooth="yes"/>
      <point x="465" y="45" type="line" smooth="yes"/>
      <point x="465" y="7"/>
      <point x="480" y="-12"/>
    </contour>
    <contour>
      <point x="153" y="-12" type="curve" smooth="yes"/>
      <point x="183" y="-12"/>
      <point x="198" y="7"/>
      <point x="198" y="45" type="curve" smooth="yes"/>
      <point x="198" y="55" type="line" smooth="yes"/>
      <point x="198" y="92"/>
      <point x="183" y="110"/>
      <point x="153" y="110" type="curve" smooth="yes"/>
      <point x="125" y="110"/>
      <point x="110" y="92"/>
      <point x="110" y="55" type="curve" smooth="yes"/>
      <point x="110" y="45" type="line" smooth="yes"/>
      <point x="110" y="7"/>
      <point x="125" y="-12"/>
    </contour>
  </outline>
</glyph>
<glyph name="eightinferior" format="2">
  <advance width="681"/>
  <unicode hex="2088"/>
  <outline>
    <contour>
      <point x="341" y="-214" type="curve" smooth="yes"/>
      <point x="518" y="-214"/>
      <point x="605" y="-146"/>
      <point x="605" y="-30" type="curve" smooth="yes"/>
      <point x="605" y="-17" type="line" smooth="yes"/>
      <point x="605" y="76"/>
      <point x="543" y="140"/>
      <point x="426" y="151" type="curve"/>
      <point x="426" y="150" type="line"/>
      <point x="530" y="160"/>
      <point x="595" y="210"/>
      <point x="595" y="306" type="curve" smooth="yes"/>
      <point x="595" y="315" type="line" smooth="yes"/>
      <point x="595" y="429"/>
      <point x="509" y="490"/>
      <point x="341" y="490" type="curve" smooth="yes"/>
      <point x="173" y="490"/>
      <point x="86" y="427"/>
      <point x="86" y="315" type="curve" smooth="yes"/>
      <point x="86" y="306" type="line" smooth="yes"/>
      <point x="86" y="225"/>
      <point x="142" y="161"/>
      <point x="255" y="150" type="curve"/>
      <point x="255" y="151" type="line"/>
      <point x="148" y="141"/>
      <point x="76" y="87"/>
      <point x="76" y="-17" type="curve" smooth="yes"/>
      <point x="76" y="-30" type="line" smooth="yes"/>
      <point x="76" y="-147"/>
      <point x="164" y="-214"/>
    </contour>
    <contour>
      <point x="341" y="-183" type="curve" smooth="yes"/>
      <point x="188" y="-183"/>
      <point x="112" y="-127"/>
      <point x="112" y="-30" type="curve" smooth="yes"/>
      <point x="112" y="-16" type="line" smooth="yes"/>
      <point x="112" y="83"/>
      <point x="190" y="135"/>
      <point x="341" y="135" type="curve" smooth="yes"/>
      <point x="491" y="135"/>
      <point x="569" y="83"/>
      <point x="569" y="-16" type="curve" smooth="yes"/>
      <point x="569" y="-30" type="line" smooth="yes"/>
      <point x="569" y="-129"/>
      <point x="492" y="-183"/>
    </contour>
    <contour>
      <point x="341" y="165" type="curve" smooth="yes"/>
      <point x="196" y="165"/>
      <point x="121" y="213"/>
      <point x="121" y="304" type="curve" smooth="yes"/>
      <point x="121" y="315" type="line" smooth="yes"/>
      <point x="121" y="405"/>
      <point x="192" y="460"/>
      <point x="341" y="460" type="curve" smooth="yes"/>
      <point x="486" y="460"/>
      <point x="560" y="410"/>
      <point x="560" y="315" type="curve" smooth="yes"/>
      <point x="560" y="304" type="line" smooth="yes"/>
      <point x="560" y="213"/>
      <point x="485" y="165"/>
    </contour>
  </outline>
</glyph>
<glyph name="uniA8FB" format="2">
  <advance width="758"/>
  <unicode hex="A8FB"/>
  <outline>
    <contour>
      <point x="791" y="1221" type="line"/>
      <point x="-27.5" y="1221" type="line"/>
      <point x="-33.5" y="1250.5" type="line"/>
      <point x="784.5" y="1250.5" type="line"/>
    </contour>
  </outline>
</glyph>
<glyph name="fi" format="2">
  <advance width="1118"/>
  <unicode hex="FB01"/>
  <anchor x="934" y="0" name="bottom"/>
  <anchor x="548" y="0" name="caret_1"/>
  <anchor x="999" y="0" name="ogonek"/>
  <anchor x="377" y="1313" name="top"/>
  <outline>
    <contour>
      <point x="471" y="1350" type="curve" smooth="yes"/>
      <point x="267" y="1350"/>
      <point x="182" y="1255"/>
      <point x="182" y="1106" type="curve" smooth="yes"/>
      <point x="182" y="1101" type="line" smooth="yes"/>
      <point x="182" y="1035"/>
      <point x="203" y="975"/>
      <point x="217" y="935" type="curve"/>
      <point x="217" y="928" type="line"/>
      <point x="250" y="933" type="line"/>
      <point x="235" y="978"/>
      <point x="219" y="1034"/>
      <point x="219" y="1098" type="curve" smooth="yes"/>
      <point x="219" y="1104" type="line" smooth="yes"/>
      <point x="219" y="1237"/>
      <point x="289" y="1316"/>
      <point x="471" y="1316" type="curve" smooth="yes"/>
      <point x="562" y="1316"/>
      <point x="628" y="1296"/>
      <point x="704" y="1267" type="curve"/>
      <point x="699" y="1302" type="line"/>
      <point x="632" y="1330"/>
      <point x="567" y="1350"/>
    </contour>
    <contour>
      <point x="251" y="0" type="line"/>
      <point x="251" y="920" type="line"/>
      <point x="214" y="920" type="line"/>
      <point x="214" y="0" type="line"/>
    </contour>
    <contour>
      <point x="691" y="910" type="line"/>
      <point x="696" y="942" type="line"/>
      <point x="240" y="942" type="line"/>
      <point x="228" y="942" type="line"/>
      <point x="28" y="942" type="line"/>
      <point x="28" y="910" type="line"/>
    </contour>
    <contour>
      <point x="952" y="0" type="line"/>
      <point x="952" y="971" type="line"/>
      <point x="915" y="971" type="line"/>
      <point x="915" y="0" type="line"/>
    </contour>
    <contour>
      <point x="934" y="1189" type="curve" smooth="yes"/>
      <point x="962" y="1189"/>
      <point x="976" y="1207"/>
      <point x="976" y="1244" type="curve" smooth="yes"/>
      <point x="976" y="1253" type="line" smooth="yes"/>
      <point x="976" y="1289"/>
      <point x="962" y="1307"/>
      <point x="934" y="1307" type="curve" smooth="yes"/>
      <point x="906" y="1307"/>
      <point x="891" y="1289"/>
      <point x="891" y="1253" type="curve" smooth="yes"/>
      <point x="891" y="1244" type="line" smooth="yes"/>
      <point x="891" y="1207"/>
      <point x="906" y="1189"/>
    </contour>
  </outline>
</glyph>
<glyph name="Aanth.dv" format="2">
  <advance width="1002"/>
  <outline>
    <contour>
      <point x="869.36" y="1014.62" type="line"/>
      <point x="869.12" y="983.78" type="line"/>
      <point x="446.3" y="983.78" type="line"/>
      <point x="299.76" y="981.97" type="line"/>
      <point x="88.54" y="981.97" type="line"/>
      <point x="88.98" y="1014.62" type="line"/>
    </contour>
    <contour>
      <point x="867" y="179.5" type="line"/>
      <point x="813.5" y="223"/>
      <point x="767.5" y="231"/>
      <point x="670.5" y="231" type="curve" smooth="yes"/>
      <point x="613.5" y="231" type="line" smooth="yes"/>
      <point x="287.5" y="231"/>
      <point x="176" y="336.5"/>
      <point x="176" y="607" type="curve" smooth="yes"/>
      <point x="176" y="639" type="line" smooth="yes"/>
      <point x="176" y="866.5"/>
      <point x="274.561" y="957.5"/>
      <point x="426" y="986" type="curve"/>
      <point x="426" y="1000" type="line"/>
      <point x="509" y="1000" type="line"/>
      <point x="509" y="985" type="line"/>
      <point x="320" y="946.5"/>
      <point x="212.5" y="880"/>
      <point x="212.5" y="641" type="curve" smooth="yes"/>
      <point x="212.5" y="609" type="line" smooth="yes"/>
      <point x="212.5" y="361.5"/>
      <point x="309.5" y="265"/>
      <point x="615.5" y="265" type="curve" smooth="yes"/>
      <point x="671" y="265" type="line" smooth="yes"/>
      <point x="772.5" y="265"/>
      <point x="819" y="256"/>
      <point x="867" y="219.5" type="curve"/>
    </contour>
  </outline>
</glyph>
<glyph name="BaBa.dv" format="2">
  <advance width="1866"/>
  <anchor x="1623" y="9" name="bottom"/>
  <anchor x="1617" y="9" name="bottom2"/>
  <anchor x="1640" y="9" name="bottom3"/>
  <anchor x="1622" y="30" name="bottom5"/>
  <anchor x="1621.5" y="1241.5" name="top"/>
  <outline>
    <contour>
      <point x="-22" y="1221" type="line"/>
      <point x="-28" y="1251" type="line"/>
      <point x="982" y="1251" type="line"/>
      <point x="988" y="1221" type="line"/>
    </contour>
    <contour>
      <point x="264" y="877" type="line"/>
      <point x="296" y="891" type="line"/>
      <point x="822" y="324" type="line"/>
      <point x="796" y="303" type="line"/>
    </contour>
    <contour>
      <point x="140" y="568" type="curve" smooth="yes"/>
      <point x="140" y="589" type="line" smooth="yes"/>
      <point x="140" y="836.765"/>
      <point x="267.358" y="963"/>
      <point x="524" y="963" type="curve" smooth="yes"/>
      <point x="610" y="963"/>
      <point x="690" y="951"/>
      <point x="750" y="930" type="curve"/>
      <point x="755" y="893" type="line"/>
      <point x="687.059" y="917"/>
      <point x="608.324" y="929"/>
      <point x="524" y="929" type="curve" smooth="yes"/>
      <point x="287.265" y="929"/>
      <point x="176" y="814.842"/>
      <point x="176" y="587" type="curve" smooth="yes"/>
      <point x="176" y="571" type="line" smooth="yes"/>
      <point x="176" y="342.022"/>
      <point x="304.716" y="235"/>
      <point x="532" y="235" type="curve" smooth="yes"/>
      <point x="720.314" y="235"/>
      <point x="830.512" y="302.968"/>
      <point x="879.971" y="432.234" type="curve"/>
      <point x="894.768" y="390.987" type="line"/>
      <point x="888.825" y="390.987" type="line"/>
      <point x="846.863" y="280.839"/>
      <point x="735.441" y="201"/>
      <point x="532" y="201" type="curve" smooth="yes"/>
      <point x="280.715" y="201"/>
      <point x="140" y="319.105"/>
    </contour>
    <contour>
      <point x="1639.5" y="1230" type="line"/>
      <point x="1639.5" y="0" type="line"/>
      <point x="1605" y="0" type="line"/>
      <point x="1605" y="1230" type="line"/>
    </contour>
    <contour>
      <point x="1467" y="1221" type="line"/>
      <point x="1460.5" y="1250.5" type="line"/>
      <point x="1892.5" y="1250.5" type="line"/>
      <point x="1899" y="1221" type="line"/>
    </contour>
    <contour>
      <point x="686.5" y="1221" type="line"/>
      <point x="680.5" y="1251" type="line"/>
      <point x="1790.5" y="1251" type="line"/>
      <point x="1796.5" y="1221" type="line"/>
    </contour>
    <contour>
      <point x="972.5" y="877" type="line"/>
      <point x="1004.5" y="891" type="line"/>
      <point x="1530.5" y="324" type="line"/>
      <point x="1504.5" y="303" type="line"/>
    </contour>
    <contour>
      <point x="848.5" y="568" type="curve" smooth="yes"/>
      <point x="848.5" y="589" type="line" smooth="yes"/>
      <point x="848.5" y="836.765"/>
      <point x="975.858" y="963"/>
      <point x="1232.5" y="963" type="curve" smooth="yes"/>
      <point x="1318.5" y="963"/>
      <point x="1398.5" y="951"/>
      <point x="1458.5" y="930" type="curve"/>
      <point x="1463.5" y="893" type="line"/>
      <point x="1395.56" y="917"/>
      <point x="1316.82" y="929"/>
      <point x="1232.5" y="929" type="curve" smooth="yes"/>
      <point x="995.765" y="929"/>
      <point x="884.5" y="814.842"/>
      <point x="884.5" y="587" type="curve" smooth="yes"/>
      <point x="884.5" y="571" type="line" smooth="yes"/>
      <point x="884.5" y="342.022"/>
      <point x="1013.22" y="235"/>
      <point x="1240.5" y="235" type="curve" smooth="yes"/>
      <point x="1448.37" y="235"/>
      <point x="1561.72" y="318"/>
      <point x="1606.5" y="476" type="curve"/>
      <point x="1609.5" y="417" type="line"/>
      <point x="1606.5" y="417" type="line"/>
      <point x="1575.67" y="297.548"/>
      <point x="1462.29" y="201"/>
      <point x="1240.5" y="201" type="curve" smooth="yes"/>
      <point x="989.215" y="201"/>
      <point x="848.5" y="319.105"/>
    </contour>
  </outline>
  <guideline angle="90" x="483" y="0"/>
  <guideline angle="90" x="1542" y="0"/>
  <guideline angle="0" x="0" y="9"/>
  <guideline angle="90" x="1547" y="0"/>
  <guideline angle="90" x="1530" y="0"/>
  <guideline angle="0" x="0" y="1262"/>
  <guideline angle="90" x="1565" y="0"/>
  <guideline angle="0" x="0" y="30"/>
</glyph>
<glyph name="BaBhaRa.dv" format="2">
  <advance width="1839"/>
  <anchor x="1596.5" y="9" name="bottom"/>
  <anchor x="1590.5" y="9" name="bottom2"/>
  <anchor x="1613.5" y="9" name="bottom3"/>
  <anchor x="1595.5" y="1241.5" name="top"/>
  <outline>
    <contour>
      <point x="-22" y="1221" type="line"/>
      <point x="-28" y="1251" type="line"/>
      <point x="722" y="1251" type="line"/>
      <point x="728" y="1221" type="line"/>
    </contour>
    <contour>
      <point x="264" y="877" type="line"/>
      <point x="296" y="891" type="line"/>
      <point x="833" y="314" type="line"/>
      <point x="807" y="293" type="line"/>
    </contour>
    <contour>
      <point x="140" y="568" type="curve" smooth="yes"/>
      <point x="140" y="589" type="line" smooth="yes"/>
      <point x="140" y="836.765"/>
      <point x="267.358" y="963"/>
      <point x="524" y="963" type="curve" smooth="yes"/>
      <point x="610" y="963"/>
      <point x="690" y="951"/>
      <point x="750" y="930" type="curve"/>
      <point x="755" y="893" type="line"/>
      <point x="687.059" y="917"/>
      <point x="608.324" y="929"/>
      <point x="524" y="929" type="curve" smooth="yes"/>
      <point x="287.265" y="929"/>
      <point x="176" y="814.842"/>
      <point x="176" y="587" type="curve" smooth="yes"/>
      <point x="176" y="571" type="line" smooth="yes"/>
      <point x="176" y="342.022"/>
      <point x="308.328" y="235"/>
      <point x="541.988" y="235" type="curve" smooth="yes"/>
      <point x="756.685" y="235"/>
      <point x="871.22" y="319"/>
      <point x="914" y="477" type="curve"/>
      <point x="920" y="417" type="line"/>
      <point x="917" y="417" type="line"/>
      <point x="882.167" y="292.548"/>
      <point x="761.828" y="201"/>
      <point x="542.243" y="201" type="curve" smooth="yes"/>
      <point x="284.392" y="201"/>
      <point x="140" y="319.105"/>
    </contour>
    <contour>
      <point x="1335" y="1221" type="line"/>
      <point x="1328" y="1250.5" type="line"/>
      <point x="1864.5" y="1250.5" type="line"/>
      <point x="1871.5" y="1221" type="line"/>
    </contour>
    <contour>
      <point x="1591.5" y="655.5" type="line"/>
      <point x="1591.5" y="624.5" type="line"/>
      <point x="957.5" y="624.5" type="line"/>
      <point x="957.5" y="655.5" type="line"/>
    </contour>
    <contour>
      <point x="956.5" y="-34.5" type="line"/>
      <point x="956.5" y="-27" type="line"/>
      <point x="1591" y="509.5" type="line"/>
      <point x="1591" y="469" type="line"/>
      <point x="1004.5" y="-34.5" type="line"/>
    </contour>
    <contour>
      <point x="1578" y="0" type="line"/>
      <point x="1578" y="475" type="line"/>
      <point x="1578" y="485" type="line"/>
      <point x="1578" y="1231.5" type="line"/>
      <point x="1613.5" y="1231.5" type="line"/>
      <point x="1613.5" y="0" type="line"/>
    </contour>
    <contour>
      <point x="932.5" y="242.5" type="line"/>
      <point x="913" y="390.115"/>
      <point x="902" y="473.385"/>
      <point x="882.5" y="621" type="curve"/>
      <point x="940.732" y="655" type="line"/>
      <point x="975.5" y="655" type="line"/>
      <point x="975.5" y="242.5" type="line"/>
    </contour>
    <contour>
      <point x="939" y="605" type="line"/>
      <point x="939" y="1013" type="line" smooth="yes"/>
      <point x="939" y="1167.5"/>
      <point x="901" y="1221"/>
      <point x="771.5" y="1221" type="curve" smooth="yes"/>
      <point x="677.5" y="1221" type="line"/>
      <point x="671" y="1250.5" type="line"/>
      <point x="773" y="1250.5" type="line" smooth="yes"/>
      <point x="924.5" y="1250.5"/>
      <point x="974" y="1182"/>
      <point x="974" y="1016" type="curve" smooth="yes"/>
      <point x="974" y="605" type="line"/>
    </contour>
  </outline>
  <guideline angle="90" x="1242.5" y="0"/>
</glyph>
<glyph name="BaHalant.dv" format="2">
  <advance width="727"/>
  <outline>
    <contour>
      <point x="-21.5" y="1221" type="line"/>
      <point x="-28" y="1250.5" type="line"/>
      <point x="935.5" y="1250.5" type="line"/>
      <point x="941.5" y="1221" type="line"/>
    </contour>
    <contour>
      <point x="264" y="877" type="line"/>
      <point x="296" y="891" type="line"/>
      <point x="822" y="324" type="line"/>
      <point x="796" y="303" type="line"/>
    </contour>
    <contour>
      <point x="140" y="568" type="curve" smooth="yes"/>
      <point x="140" y="589" type="line" smooth="yes"/>
      <point x="140" y="836.765"/>
      <point x="267.358" y="963"/>
      <point x="524" y="963" type="curve" smooth="yes"/>
      <point x="610" y="963"/>
      <point x="690" y="951"/>
      <point x="750" y="930" type="curve"/>
      <point x="755" y="893" type="line"/>
      <point x="687.059" y="917"/>
      <point x="608.324" y="929"/>
      <point x="524" y="929" type="curve" smooth="yes"/>
      <point x="287.265" y="929"/>
      <point x="176" y="814.842"/>
      <point x="176" y="587" type="curve" smooth="yes"/>
      <point x="176" y="571" type="line" smooth="yes"/>
      <point x="176" y="342.022"/>
      <point x="304.716" y="235"/>
      <point x="532" y="235" type="curve" smooth="yes"/>
      <point x="739.866" y="235"/>
      <point x="853.22" y="318"/>
      <point x="898" y="476" type="curve"/>
      <point x="898" y="417" type="line"/>
      <point x="861.167" y="293.548"/>
      <point x="747.79" y="201"/>
      <point x="532" y="201" type="curve" smooth="yes"/>
      <point x="280.715" y="201"/>
      <point x="140" y="319.105"/>
    </contour>
  </outline>
  <guideline angle="90" x="471" y="0"/>
</glyph>
<glyph name="BaLaYa.dv" format="2">
  <advance width="2900"/>
  <anchor x="2655.5" y="9" name="bottom"/>
  <anchor x="2650.5" y="9" name="bottom2"/>
  <anchor x="2673.5" y="9" name="bottom3"/>
  <anchor x="2655.5" y="30" name="bottom5"/>
  <anchor x="2655.5" y="1241.5" name="top"/>
  <outline>
    <contour>
      <point x="-22" y="1221" type="line"/>
      <point x="-28" y="1251" type="line"/>
      <point x="782" y="1251" type="line"/>
      <point x="788" y="1221" type="line"/>
    </contour>
    <contour>
      <point x="264" y="877" type="line"/>
      <point x="296" y="891" type="line"/>
      <point x="822" y="324" type="line"/>
      <point x="796" y="303" type="line"/>
    </contour>
    <contour>
      <point x="140" y="568" type="curve" smooth="yes"/>
      <point x="140" y="589" type="line" smooth="yes"/>
      <point x="140" y="836.765"/>
      <point x="267.358" y="963"/>
      <point x="524" y="963" type="curve" smooth="yes"/>
      <point x="610" y="963"/>
      <point x="690" y="951"/>
      <point x="750" y="930" type="curve"/>
      <point x="755" y="893" type="line"/>
      <point x="687.059" y="917"/>
      <point x="608.324" y="929"/>
      <point x="524" y="929" type="curve" smooth="yes"/>
      <point x="287.265" y="929"/>
      <point x="176" y="814.842"/>
      <point x="176" y="587" type="curve" smooth="yes"/>
      <point x="176" y="571" type="line" smooth="yes"/>
      <point x="176" y="342.022"/>
      <point x="304.716" y="235"/>
      <point x="532" y="235" type="curve" smooth="yes"/>
      <point x="726.277" y="235"/>
      <point x="836.526" y="309.281"/>
      <point x="885.956" y="439.61" type="curve"/>
      <point x="895" y="393.743" type="line"/>
      <point x="890.193" y="393.743" type="line"/>
      <point x="844.471" y="280.781"/>
      <point x="730.998" y="201"/>
      <point x="531.445" y="201" type="curve" smooth="yes"/>
      <point x="280.516" y="201"/>
      <point x="140" y="319.105"/>
    </contour>
    <contour>
      <point x="2673.5" y="1230" type="line"/>
      <point x="2673.5" y="0" type="line"/>
      <point x="2639" y="0" type="line"/>
      <point x="2639" y="1230" type="line"/>
    </contour>
    <contour>
      <point x="2501" y="1221" type="line"/>
      <point x="2494.5" y="1250.5" type="line"/>
      <point x="2926.5" y="1250.5" type="line"/>
      <point x="2933" y="1221" type="line"/>
    </contour>
    <contour>
      <point x="1665.5" y="1250.5" type="line"/>
      <point x="2825" y="1250.5" type="line"/>
      <point x="2831.5" y="1221" type="line"/>
      <point x="1672" y="1221" type="line"/>
    </contour>
    <contour>
      <point x="2111" y="1229.5" type="line"/>
      <point x="2171.5" y="1185.04"/>
      <point x="2204" y="1104.9"/>
      <point x="2204" y="994.96" type="curve" smooth="yes"/>
      <point x="2204" y="979.812" type="line" smooth="yes"/>
      <point x="2204" y="790.748"/>
      <point x="2103.62" y="714"/>
      <point x="1891.22" y="714" type="curve" smooth="yes"/>
      <point x="1839" y="714" type="line"/>
      <point x="1826" y="746" type="line"/>
      <point x="1884.18" y="746" type="line" smooth="yes"/>
      <point x="2071.88" y="746"/>
      <point x="2168" y="806.528"/>
      <point x="2168" y="980.676" type="curve" smooth="yes"/>
      <point x="2168" y="992.873" type="line" smooth="yes"/>
      <point x="2168" y="1105.58"/>
      <point x="2139.5" y="1174.37"/>
      <point x="2066.5" y="1229.5" type="curve"/>
    </contour>
    <contour>
      <point x="1821.5" y="642.591" type="line" smooth="yes"/>
      <point x="1821.5" y="670.849"/>
      <point x="1822.5" y="699.603"/>
      <point x="1825" y="746" type="curve"/>
      <point x="1857" y="732" type="line"/>
      <point x="1857" y="633.854" type="line" smooth="yes"/>
      <point x="1857" y="394.278"/>
      <point x="2003" y="278"/>
      <point x="2246" y="278" type="curve" smooth="yes"/>
      <point x="2469" y="278"/>
      <point x="2598" y="367"/>
      <point x="2642" y="533" type="curve"/>
      <point x="2646" y="473" type="line"/>
      <point x="2643" y="473" type="line"/>
      <point x="2607" y="339.5"/>
      <point x="2486" y="243.5"/>
      <point x="2246" y="243.5" type="curve" smooth="yes"/>
      <point x="1975.5" y="243.5"/>
      <point x="1821.5" y="376.916"/>
      <point x="1821.5" y="633.6" type="curve" smooth="yes"/>
    </contour>
    <contour>
      <point x="1629.91" y="867" type="curve" smooth="yes"/>
      <point x="1502.01" y="867"/>
      <point x="1419.68" y="782.503"/>
      <point x="1418.55" y="608" type="curve" smooth="yes"/>
      <point x="1416.5" y="291" type="line"/>
      <point x="1402" y="291" type="line"/>
      <point x="1402" y="694" type="line"/>
      <point x="1416.31" y="819"/>
      <point x="1493.22" y="900.5"/>
      <point x="1629.06" y="900.5" type="curve" smooth="yes"/>
      <point x="1752.45" y="900.5"/>
      <point x="1820.71" y="840.124"/>
      <point x="1856.52" y="727.562" type="curve"/>
      <point x="1828.99" y="710.819" type="line"/>
      <point x="1797.78" y="814.189"/>
      <point x="1732.51" y="867"/>
    </contour>
    <contour>
      <point x="682.5" y="1221" type="line"/>
      <point x="676" y="1250.5" type="line"/>
      <point x="1669.5" y="1250.5" type="line"/>
      <point x="1676" y="1221" type="line"/>
    </contour>
    <contour>
      <point x="1411.5" y="291" type="line"/>
      <point x="1384" y="291" type="line"/>
      <point x="1382.5" y="606.45" type="line" smooth="yes"/>
      <point x="1381.68" y="779.151"/>
      <point x="1300" y="865"/>
      <point x="1149.5" y="865" type="curve" smooth="yes"/>
      <point x="991.5" y="865"/>
      <point x="897" y="762.618"/>
      <point x="897" y="569.834" type="curve" smooth="yes"/>
      <point x="897" y="386.076"/>
      <point x="964.02" y="220.987"/>
      <point x="1114.5" y="2.879" type="curve"/>
      <point x="1114.5" y="0" type="line"/>
      <point x="1074.5" y="0" type="line"/>
      <point x="931.355" y="209.257"/>
      <point x="861" y="380.5"/>
      <point x="861" y="570" type="curve" smooth="yes"/>
      <point x="861" y="786.5"/>
      <point x="969.5" y="899.5"/>
      <point x="1149" y="899.5" type="curve" smooth="yes"/>
      <point x="1304.5" y="899.5"/>
      <point x="1384.5" y="819"/>
      <point x="1398.5" y="697" type="curve"/>
      <point x="1411.5" y="697" type="line"/>
    </contour>
  </outline>
  <guideline angle="90" x="254" y="0"/>
  <guideline angle="0" x="0" y="882"/>
  <guideline angle="0" x="0" y="900"/>
  <guideline angle="90" x="2576" y="0"/>
  <guideline angle="0" x="0" y="9"/>
  <guideline angle="90" x="2581" y="0"/>
  <guideline angle="90" x="2564" y="0"/>
  <guideline angle="0" x="0" y="1262"/>
  <guideline angle="90" x="2599" y="0"/>
  <guideline angle="0" x="0" y="30"/>
</glyph>
<glyph name="BaNa.dv" format="2">
  <advance width="1156"/>
  <anchor x="912.5" y="-35.5" name="bottom"/>
  <anchor x="906" y="-35.5" name="bottom2"/>
  <anchor x="929" y="-35.5" name="bottom3"/>
  <anchor x="912" y="1241.5" name="top"/>
  <outline>
    <contour>
      <point x="-21.5" y="1221" type="line"/>
      <point x="-28" y="1250.5" type="line"/>
      <point x="1182" y="1250.5" type="line"/>
      <point x="1188.5" y="1221" type="line"/>
    </contour>
    <contour>
      <point x="929.5" y="1231.5" type="line"/>
      <point x="929.5" y="895.5" type="line"/>
      <point x="894.5" y="895.5" type="line"/>
      <point x="894.5" y="1231.5" type="line"/>
    </contour>
    <contour>
      <point x="264" y="877" type="line"/>
      <point x="296" y="891" type="line"/>
      <point x="830" y="315" type="line"/>
      <point x="804" y="294" type="line"/>
    </contour>
    <contour>
      <point x="654" y="240.5" type="line"/>
      <point x="663" y="232" type="line"/>
      <point x="610.5" y="212"/>
      <point x="566" y="202.5"/>
      <point x="516.001" y="202.237" type="curve" smooth="yes"/>
      <point x="280.715" y="202"/>
      <point x="140" y="320.105"/>
      <point x="140" y="569" type="curve" smooth="yes"/>
      <point x="140" y="589" type="line" smooth="yes"/>
      <point x="140" y="836.765"/>
      <point x="267.358" y="963"/>
      <point x="524" y="963" type="curve" smooth="yes"/>
      <point x="610" y="963"/>
      <point x="690" y="951"/>
      <point x="750" y="930" type="curve"/>
      <point x="755" y="893" type="line"/>
      <point x="687.059" y="917"/>
      <point x="608.324" y="929"/>
      <point x="524" y="929" type="curve" smooth="yes"/>
      <point x="287.265" y="929"/>
      <point x="176" y="814.842"/>
      <point x="176" y="587" type="curve" smooth="yes"/>
      <point x="176" y="572" type="line" smooth="yes"/>
      <point x="176" y="343.022"/>
      <point x="301.716" y="233.5"/>
      <point x="521" y="233.5" type="curve" smooth="yes"/>
      <point x="617" y="233.5"/>
      <point x="688.246" y="258.137"/>
      <point x="779" y="297.5" type="curve" smooth="yes"/>
      <point x="903.5" y="351.5" type="line"/>
      <point x="903.5" y="316.5" type="line"/>
      <point x="215" y="20.5" type="line"/>
      <point x="242" y="52.5" type="line"/>
      <point x="348" y="-196.5" type="line"/>
      <point x="307" y="-217.5" type="line"/>
      <point x="254.74" y="-133.065"/>
      <point x="225.26" y="-85.435"/>
      <point x="173" y="-1" type="curve"/>
      <point x="197.5" y="52" type="line"/>
    </contour>
    <contour>
      <point x="929.5" y="965.5" type="line"/>
      <point x="929.5" y="-44.5" type="line"/>
      <point x="894.5" y="-44.5" type="line"/>
      <point x="894.5" y="965.5" type="line"/>
    </contour>
  </outline>
  <guideline angle="90" x="836.5" y="0"/>
</glyph>
<glyph name="BaSa.dv" format="2">
  <advance width="2048"/>
  <outline>
    <contour>
      <point x="1529.5" y="620" type="line"/>
      <point x="1801" y="620" type="line"/>
      <point x="1801" y="588" type="line"/>
      <point x="1529.5" y="588" type="line"/>
    </contour>
    <contour>
      <point x="1821.5" y="0" type="line"/>
      <point x="1787" y="0" type="line"/>
      <point x="1787" y="1230" type="line"/>
      <point x="1821.5" y="1230" type="line"/>
    </contour>
    <contour>
      <point x="2081" y="1221" type="line"/>
      <point x="1535" y="1221" type="line"/>
      <point x="1528.5" y="1250.5" type="line"/>
      <point x="2074.5" y="1250.5" type="line"/>
    </contour>
    <contour>
      <point x="-22" y="1221" type="line"/>
      <point x="-28" y="1250.5" type="line"/>
      <point x="1665" y="1250.5" type="line"/>
      <point x="1671" y="1221" type="line"/>
    </contour>
    <contour>
      <point x="264" y="930" type="line"/>
      <point x="296" y="944" type="line"/>
      <point x="784" y="389" type="line"/>
      <point x="758" y="368" type="line"/>
    </contour>
    <contour>
      <point x="1151" y="620" type="line"/>
      <point x="1681" y="620" type="line"/>
      <point x="1681" y="588" type="line"/>
      <point x="1162" y="588" type="line"/>
    </contour>
    <contour>
      <point x="1350" y="0" type="line"/>
      <point x="1309" y="0" type="line"/>
      <point x="950" y="567" type="line"/>
      <point x="851" y="571" type="line"/>
      <point x="851" y="603" type="line"/>
      <point x="977" y="594" type="line"/>
      <point x="977" y="585" type="line"/>
      <point x="1028.65" y="506"/>
      <point x="1065.88" y="449.477"/>
      <point x="1133" y="344" type="curve" smooth="yes"/>
      <point x="1350" y="3" type="line"/>
    </contour>
    <contour>
      <point x="1203" y="1229" type="line"/>
      <point x="1274" y="1172.12"/>
      <point x="1313" y="1078.89"/>
      <point x="1313" y="934" type="curve" smooth="yes"/>
      <point x="1313" y="924" type="line" smooth="yes"/>
      <point x="1313" y="666.89"/>
      <point x="1196" y="571"/>
      <point x="930" y="571" type="curve" smooth="yes"/>
      <point x="874" y="571" type="line"/>
      <point x="851" y="603" type="line"/>
      <point x="927" y="603" type="line" smooth="yes"/>
      <point x="1167" y="603"/>
      <point x="1277" y="683.84"/>
      <point x="1277" y="926" type="curve" smooth="yes"/>
      <point x="1277" y="934" type="line" smooth="yes"/>
      <point x="1277" y="1077.85"/>
      <point x="1240" y="1165.1"/>
      <point x="1156" y="1229" type="curve"/>
    </contour>
    <contour>
      <point x="140" y="626.187" type="curve" smooth="yes"/>
      <point x="140" y="646.911" type="line" smooth="yes"/>
      <point x="140" y="884.514"/>
      <point x="268.358" y="1016"/>
      <point x="510" y="1016" type="curve" smooth="yes"/>
      <point x="592.152" y="1016"/>
      <point x="665.349" y="1005.09"/>
      <point x="723.085" y="984.522" type="curve"/>
      <point x="728.848" y="948.733" type="line"/>
      <point x="664.939" y="970.911"/>
      <point x="591.319" y="982"/>
      <point x="510" y="982" type="curve" smooth="yes"/>
      <point x="289.265" y="982"/>
      <point x="176" y="862.588"/>
      <point x="176" y="644.928" type="curve" smooth="yes"/>
      <point x="176" y="629.158" type="line" smooth="yes"/>
      <point x="176" y="408.48"/>
      <point x="306.716" y="298.018"/>
      <point x="509.761" y="298.506" type="curve" smooth="yes"/>
      <point x="725.5" y="299.025"/>
      <point x="833.206" y="403.354"/>
      <point x="850.5" y="603" type="curve"/>
      <point x="881" y="594" type="line"/>
      <point x="862.16" y="379.65"/>
      <point x="746" y="264.52"/>
      <point x="509.761" y="264.52" type="curve" smooth="yes"/>
      <point x="282.715" y="264.52"/>
      <point x="140" y="385.561"/>
    </contour>
  </outline>
  <guideline angle="0" x="0" y="325"/>
</glyph>
<glyph name="BaSha.dv" format="2">
  <advance width="2168"/>
  <anchor x="1924.5" y="9" name="bottom"/>
  <anchor x="1918.5" y="9" name="bottom2"/>
  <anchor x="1941.5" y="9" name="bottom3"/>
  <anchor x="1923.5" y="30" name="bottom5"/>
  <anchor x="1923" y="1241.5" name="top"/>
  <outline>
    <contour>
      <point x="-22" y="1221" type="line"/>
      <point x="-28" y="1251" type="line"/>
      <point x="799" y="1251" type="line"/>
      <point x="805" y="1221" type="line"/>
    </contour>
    <contour>
      <point x="264" y="877" type="line"/>
      <point x="296" y="891" type="line"/>
      <point x="822" y="324" type="line"/>
      <point x="796" y="303" type="line"/>
    </contour>
    <contour>
      <point x="738.848" y="898.733" type="line"/>
      <point x="674.939" y="918.911"/>
      <point x="601.319" y="929"/>
      <point x="524" y="929" type="curve" smooth="yes"/>
      <point x="287.265" y="929"/>
      <point x="176" y="814.842"/>
      <point x="176" y="587" type="curve" smooth="yes"/>
      <point x="176" y="571" type="line" smooth="yes"/>
      <point x="176" y="342.022"/>
      <point x="304.716" y="235"/>
      <point x="532" y="235" type="curve" smooth="yes"/>
      <point x="745" y="235"/>
      <point x="853" y="324.5"/>
      <point x="885.5" y="489" type="curve"/>
      <point x="912.5" y="474" type="line"/>
      <point x="878" y="301"/>
      <point x="763.5" y="201"/>
      <point x="532" y="201" type="curve" smooth="yes"/>
      <point x="280.715" y="201"/>
      <point x="140" y="319.105"/>
      <point x="140" y="568" type="curve" smooth="yes"/>
      <point x="140" y="589" type="line" smooth="yes"/>
      <point x="140" y="836.765"/>
      <point x="267.358" y="963"/>
      <point x="524" y="963" type="curve" smooth="yes"/>
      <point x="602.152" y="963"/>
      <point x="675.349" y="953.09"/>
      <point x="733.085" y="934.522" type="curve"/>
    </contour>
    <contour>
      <point x="1941" y="1230" type="line"/>
      <point x="1941" y="0" type="line"/>
      <point x="1906.5" y="0" type="line"/>
      <point x="1906.5" y="1230" type="line"/>
    </contour>
    <contour>
      <point x="1768.5" y="1221" type="line"/>
      <point x="1762" y="1250.5" type="line"/>
      <point x="2194" y="1250.5" type="line"/>
      <point x="2200.5" y="1221" type="line"/>
    </contour>
    <contour>
      <point x="1692" y="1251" type="line"/>
      <point x="2093" y="1251" type="line"/>
      <point x="2100" y="1221" type="line"/>
      <point x="1699" y="1221" type="line"/>
    </contour>
    <contour>
      <point x="1502" y="0" type="line"/>
      <point x="1457" y="0" type="line"/>
      <point x="1015" y="448" type="line"/>
      <point x="886" y="456" type="line"/>
      <point x="886" y="489" type="line"/>
      <point x="1045" y="471" type="line"/>
      <point x="1045" y="464" type="line"/>
      <point x="1115.22" y="395.084"/>
      <point x="1158.93" y="351.926"/>
      <point x="1235.15" y="274.851" type="curve" smooth="yes"/>
      <point x="1502" y="5" type="line"/>
    </contour>
    <contour>
      <point x="1564" y="914" type="curve" smooth="yes"/>
      <point x="1564" y="870" type="line" smooth="yes"/>
      <point x="1564" y="566"/>
      <point x="1395" y="449"/>
      <point x="1080" y="449" type="curve" smooth="yes"/>
      <point x="1030" y="449"/>
      <point x="999" y="451"/>
      <point x="944" y="458" type="curve"/>
      <point x="886" y="489" type="line"/>
      <point x="960" y="484"/>
      <point x="1010" y="482"/>
      <point x="1077" y="482" type="curve" smooth="yes"/>
      <point x="1370" y="482"/>
      <point x="1528" y="585"/>
      <point x="1528" y="872" type="curve" smooth="yes"/>
      <point x="1528" y="912" type="line" smooth="yes"/>
      <point x="1528" y="1137.19"/>
      <point x="1433" y="1236"/>
      <point x="1252" y="1236" type="curve" smooth="yes"/>
      <point x="1077" y="1236"/>
      <point x="980" y="1149.65"/>
      <point x="980" y="977" type="curve" smooth="yes"/>
      <point x="980" y="969" type="line" smooth="yes"/>
      <point x="980" y="895.647"/>
      <point x="995.833" y="828.328"/>
      <point x="1052" y="752" type="curve"/>
      <point x="1012" y="752" type="line"/>
      <point x="964.379" y="818.309"/>
      <point x="944" y="893.637"/>
      <point x="944" y="969" type="curve" smooth="yes"/>
      <point x="944" y="978" type="line" smooth="yes"/>
      <point x="944" y="1166.64"/>
      <point x="1053" y="1269"/>
      <point x="1252" y="1269" type="curve" smooth="yes"/>
      <point x="1457" y="1269"/>
      <point x="1564" y="1157.01"/>
    </contour>
  </outline>
  <guideline angle="90" x="308" y="0"/>
  <guideline angle="90" x="1843.5" y="0"/>
  <guideline angle="0" x="0" y="9"/>
  <guideline angle="90" x="1848.5" y="0"/>
  <guideline angle="90" x="1831.5" y="0"/>
  <guideline angle="0" x="0" y="1262"/>
  <guideline angle="90" x="1866.5" y="0"/>
  <guideline angle="0" x="0" y="30"/>
</glyph>
<glyph name="BhaLa.dv" format="2">
  <advance width="2013"/>
  <anchor x="1770" y="9" name="bottom"/>
  <anchor x="1764" y="9" name="bottom2"/>
  <anchor x="1787" y="9" name="bottom3"/>
  <anchor x="1769" y="30" name="bottom5"/>
  <anchor x="1768.5" y="1241.5" name="top"/>
  <outline>
    <contour>
      <point x="1066.5" y="914.5" type="curve" smooth="yes"/>
      <point x="1216" y="914.5"/>
      <point x="1295" y="834"/>
      <point x="1309" y="712" type="curve"/>
      <point x="1313" y="712" type="line"/>
      <point x="1327" y="834"/>
      <point x="1412.5" y="914.5"/>
      <point x="1550" y="914.5" type="curve" smooth="yes"/>
      <point x="1659" y="914.5"/>
      <point x="1729" y="865"/>
      <point x="1763.5" y="791" type="curve"/>
      <point x="1757" y="754" type="line"/>
      <point x="1715.5" y="834"/>
      <point x="1650.5" y="881"/>
      <point x="1551" y="881" type="curve" smooth="yes"/>
      <point x="1417" y="881"/>
      <point x="1330.5" y="794.5"/>
      <point x="1329" y="622" type="curve" smooth="yes"/>
      <point x="1327" y="291" type="line"/>
      <point x="1294.5" y="291" type="line"/>
      <point x="1293" y="622" type="line" smooth="yes"/>
      <point x="1292" y="795"/>
      <point x="1211.5" y="881"/>
      <point x="1067" y="881" type="curve" smooth="yes"/>
      <point x="909" y="881"/>
      <point x="814.5" y="778.5"/>
      <point x="814.5" y="591.5" type="curve" smooth="yes"/>
      <point x="814.5" y="382.5"/>
      <point x="895" y="200.5"/>
      <point x="1057" y="3" type="curve"/>
      <point x="1057" y="0" type="line"/>
      <point x="1012" y="0" type="line"/>
      <point x="864" y="189"/>
      <point x="777.5" y="378.5"/>
      <point x="777.5" y="592" type="curve" smooth="yes"/>
      <point x="777.5" y="801.5"/>
      <point x="887" y="914.5"/>
    </contour>
    <contour>
      <point x="811" y="1221" type="line"/>
      <point x="804.5" y="1250.5" type="line"/>
      <point x="1938" y="1250.5" type="line"/>
      <point x="1945" y="1221" type="line"/>
    </contour>
    <contour>
      <point x="672.5" y="1221" type="line"/>
      <point x="666.5" y="1250.5" type="line"/>
      <point x="868.5" y="1250.5" type="line"/>
      <point x="875" y="1221" type="line"/>
    </contour>
    <contour>
      <point x="249.5" y="582.5" type="line"/>
      <point x="249.5" y="614" type="line"/>
      <point x="797" y="614" type="line"/>
      <point x="797" y="582.5" type="line"/>
    </contour>
    <contour>
      <point x="229" y="178.5" type="line"/>
      <point x="209.5" y="334.305"/>
      <point x="198.5" y="421.195"/>
      <point x="179" y="577" type="curve"/>
      <point x="237.232" y="611" type="line"/>
      <point x="272" y="611" type="line"/>
      <point x="272" y="178.5" type="line"/>
    </contour>
    <contour>
      <point x="236.5" y="512" type="line"/>
      <point x="235.5" y="1013" type="line" smooth="yes"/>
      <point x="235.192" y="1167.5"/>
      <point x="197.5" y="1221"/>
      <point x="68" y="1221" type="curve" smooth="yes"/>
      <point x="-26" y="1221" type="line"/>
      <point x="-32.5" y="1250.5" type="line"/>
      <point x="69.5" y="1250.5" type="line" smooth="yes"/>
      <point x="221" y="1250.5"/>
      <point x="270.171" y="1182"/>
      <point x="270.5" y="1016" type="curve" smooth="yes"/>
      <point x="271.5" y="512" type="line"/>
    </contour>
    <contour>
      <point x="1786.5" y="1230" type="line"/>
      <point x="1786.5" y="0" type="line"/>
      <point x="1752" y="0" type="line"/>
      <point x="1752" y="1230" type="line"/>
    </contour>
    <contour>
      <point x="1614" y="1221" type="line"/>
      <point x="1607.5" y="1250.5" type="line"/>
      <point x="2039.5" y="1250.5" type="line"/>
      <point x="2046" y="1221" type="line"/>
    </contour>
  </outline>
  <guideline angle="0" x="0" y="519"/>
  <guideline angle="90" x="1689" y="0"/>
  <guideline angle="0" x="0" y="9"/>
  <guideline angle="90" x="1694" y="0"/>
  <guideline angle="90" x="1677" y="0"/>
  <guideline angle="0" x="0" y="1262"/>
  <guideline angle="90" x="1712" y="0"/>
  <guideline angle="0" x="0" y="30"/>
</glyph>
<glyph name="Binduone.dv" format="2">
  <anchor x="-243" y="1241.5" name="_top"/>
  <outline>
    <contour>
      <point x="-148.76" y="1517.05" type="curve" smooth="yes"/>
      <point x="-181.281" y="1517.05"/>
      <point x="-194.291" y="1540.41"/>
      <point x="-194.291" y="1575.77" type="curve" smooth="yes"/>
      <point x="-194.291" y="1582.79" type="line" smooth="yes"/>
      <point x="-194.291" y="1619.24"/>
      <point x="-181.281" y="1641.15"/>
      <point x="-148.76" y="1641.15" type="curve" smooth="yes"/>
      <point x="-115.719" y="1641.15"/>
      <point x="-102.709" y="1619.24"/>
      <point x="-102.709" y="1582.79" type="curve" smooth="yes"/>
      <point x="-102.709" y="1575.77" type="line" smooth="yes"/>
      <point x="-102.709" y="1540.41"/>
      <point x="-115.719" y="1517.05"/>
    </contour>
  </outline>
  <guideline angle="90" x="79" y="0"/>
</glyph>
<glyph name="CaCha.dv" format="2">
  <advance width="2124"/>
  <anchor x="1496.5" y="13.5" name="bottom"/>
  <anchor x="1405.5" y="13.5" name="bottom2"/>
  <anchor x="1813" y="13.5" name="bottom3"/>
  <anchor x="1447" y="-100.5" name="bottom4"/>
  <anchor x="1453.5" y="35.5" name="bottom5"/>
  <anchor x="1767" y="1241.5" name="top"/>
  <outline>
    <contour>
      <point x="-27" y="1221" type="line"/>
      <point x="-33.5" y="1250.52" type="line"/>
      <point x="938" y="1250.52" type="line"/>
      <point x="944" y="1221" type="line"/>
    </contour>
    <contour>
      <point x="744.5" y="905.5" type="line"/>
      <point x="744.5" y="877.5" type="line"/>
      <point x="501" y="878" type="line"/>
      <point x="321" y="874" type="line"/>
      <point x="50.5" y="874" type="line"/>
      <point x="50.5" y="905.5" type="line"/>
    </contour>
    <contour>
      <point x="596" y="205.5" type="curve" smooth="yes"/>
      <point x="357" y="205.5"/>
      <point x="225" y="317.797"/>
      <point x="225" y="549.769" type="curve" smooth="yes"/>
      <point x="225" y="562.295" type="line" smooth="yes"/>
      <point x="225" y="760.714"/>
      <point x="305" y="855.691"/>
      <point x="466.5" y="879" type="curve"/>
      <point x="466.5" y="891.5" type="line"/>
      <point x="744.5" y="891.5" type="line"/>
      <point x="744.5" y="877.5" type="line"/>
      <point x="591.5" y="871.75" type="line" smooth="yes"/>
      <point x="366.964" y="863.312"/>
      <point x="262" y="787.547"/>
      <point x="262" y="561.267" type="curve" smooth="yes"/>
      <point x="262" y="552.266" type="line" smooth="yes"/>
      <point x="262" y="341.463"/>
      <point x="379" y="240"/>
      <point x="595.5" y="240" type="curve" smooth="yes"/>
      <point x="775.853" y="240"/>
      <point x="885.699" y="302.615"/>
      <point x="935.967" y="429.64" type="curve"/>
      <point x="937.456" y="373.993" type="line"/>
      <point x="932.443" y="374.426" type="line"/>
      <point x="892.433" y="275.224"/>
      <point x="783.428" y="205.5"/>
    </contour>
    <contour>
      <point x="1618" y="1221" type="line"/>
      <point x="1611.5" y="1250.5" type="line"/>
      <point x="1987" y="1250.5" type="line"/>
      <point x="1993.5" y="1221" type="line"/>
    </contour>
    <contour>
      <point x="1784" y="1230.5" type="line"/>
      <point x="1784" y="974.5" type="line"/>
      <point x="1750" y="974" type="line"/>
      <point x="1750" y="1230.5" type="line"/>
    </contour>
    <contour>
      <point x="2139" y="1251" type="line"/>
      <point x="2146" y="1221" type="line"/>
      <point x="723" y="1221" type="line"/>
      <point x="717" y="1251" type="line"/>
    </contour>
    <contour>
      <point x="1750" y="940" type="line"/>
      <point x="1750" y="1232" type="line"/>
      <point x="1785" y="1232" type="line"/>
      <point x="1785" y="940" type="line"/>
    </contour>
    <contour>
      <point x="1415.33" y="5" type="curve" smooth="yes"/>
      <point x="1096.81" y="5"/>
      <point x="922" y="134.827"/>
      <point x="922" y="379" type="curve" smooth="yes"/>
      <point x="922" y="390" type="line" smooth="yes"/>
      <point x="922" y="560.556"/>
      <point x="994" y="661.21"/>
      <point x="1196" y="676" type="curve"/>
      <point x="1196" y="679" type="line"/>
      <point x="997" y="701"/>
      <point x="927" y="808"/>
      <point x="927" y="977" type="curve" smooth="yes"/>
      <point x="927" y="992" type="line" smooth="yes"/>
      <point x="927" y="1092"/>
      <point x="954" y="1179"/>
      <point x="1016" y="1230" type="curve"/>
      <point x="1058" y="1230" type="line"/>
      <point x="985" y="1168"/>
      <point x="964" y="1084.99"/>
      <point x="964" y="990.981" type="curve" smooth="yes"/>
      <point x="964" y="977.981" type="line" smooth="yes"/>
      <point x="964" y="815.97"/>
      <point x="1026.71" y="707.092"/>
      <point x="1272.6" y="696.19" type="curve" smooth="yes"/>
      <point x="1322" y="694" type="line"/>
      <point x="1322" y="660" type="line"/>
      <point x="1269.6" y="657.823" type="line" smooth="yes"/>
      <point x="1025.71" y="647.692"/>
      <point x="959" y="559.42"/>
      <point x="959" y="389.012" type="curve" smooth="yes"/>
      <point x="959" y="381.012" type="line" smooth="yes"/>
      <point x="959" y="158.869"/>
      <point x="1119.79" y="39"/>
      <point x="1414.31" y="39" type="curve" smooth="yes"/>
      <point x="1768.09" y="39"/>
      <point x="1945" y="222"/>
      <point x="1945" y="526" type="curve" smooth="yes"/>
      <point x="1945" y="537" type="line"/>
      <point x="1945" y="549" type="line"/>
      <point x="1945" y="649" type="line" smooth="yes"/>
      <point x="1945" y="844.98"/>
      <point x="1872.03" y="929"/>
      <point x="1738" y="929" type="curve" smooth="yes"/>
      <point x="1599.97" y="929"/>
      <point x="1522" y="849.725"/>
      <point x="1522" y="683" type="curve" smooth="yes"/>
      <point x="1522" y="656" type="line" smooth="yes"/>
      <point x="1522" y="472.807"/>
      <point x="1602.97" y="417"/>
      <point x="1728" y="417" type="curve" smooth="yes"/>
      <point x="1835.04" y="417"/>
      <point x="1913" y="464"/>
      <point x="1947" y="570" type="curve"/>
      <point x="1952" y="522" type="line"/>
      <point x="1949" y="522" type="line"/>
      <point x="1921" y="435"/>
      <point x="1844.03" y="383"/>
      <point x="1728" y="383" type="curve" smooth="yes"/>
      <point x="1582.97" y="383"/>
      <point x="1486" y="450.885"/>
      <point x="1486" y="655" type="curve" smooth="yes"/>
      <point x="1486" y="685" type="line" smooth="yes"/>
      <point x="1486" y="870"/>
      <point x="1576.97" y="963"/>
      <point x="1737" y="963" type="curve" smooth="yes"/>
      <point x="1900.02" y="963"/>
      <point x="1981" y="864"/>
      <point x="1981" y="649" type="curve" smooth="yes"/>
      <point x="1981" y="531" type="line" smooth="yes"/>
      <point x="1981" y="194"/>
      <point x="1790.09" y="5"/>
    </contour>
  </outline>
  <guideline angle="0" x="0" y="94"/>
  <guideline angle="90" x="68" y="0"/>
  <guideline angle="0" x="0" y="1383"/>
  <guideline angle="0" x="0" y="20"/>
  <guideline angle="0" x="0" y="20"/>
  <guideline angle="0" x="0" y="41"/>
  <guideline angle="90" x="1981" y="0"/>
  <guideline angle="90" x="1692.5" y="0"/>
</glyph>
<glyph name="CaChaVa.dv" format="2">
  <advance width="2128"/>
  <anchor x="1738" y="-554.5" name="bottom"/>
  <anchor x="1733" y="-554.5" name="bottom2"/>
  <anchor x="1862" y="-554.5" name="bottom3"/>
  <anchor x="1772.5" y="1241.5" name="top"/>
  <outline>
    <contour>
      <point x="-27" y="1221" type="line"/>
      <point x="-33.5" y="1250.52" type="line"/>
      <point x="938" y="1250.52" type="line"/>
      <point x="944" y="1221" type="line"/>
    </contour>
    <contour>
      <point x="744.5" y="905.5" type="line"/>
      <point x="744.5" y="877.5" type="line"/>
      <point x="501" y="878" type="line"/>
      <point x="321" y="874" type="line"/>
      <point x="50.5" y="874" type="line"/>
      <point x="50.5" y="905.5" type="line"/>
    </contour>
    <contour>
      <point x="596" y="205.5" type="curve" smooth="yes"/>
      <point x="357" y="205.5"/>
      <point x="225" y="317.797"/>
      <point x="225" y="549.769" type="curve" smooth="yes"/>
      <point x="225" y="562.295" type="line" smooth="yes"/>
      <point x="225" y="760.714"/>
      <point x="305" y="855.691"/>
      <point x="466.5" y="879" type="curve"/>
      <point x="466.5" y="891.5" type="line"/>
      <point x="744.5" y="891.5" type="line"/>
      <point x="744.5" y="877.5" type="line"/>
      <point x="591.5" y="871.75" type="line" smooth="yes"/>
      <point x="366.964" y="863.312"/>
      <point x="262" y="787.547"/>
      <point x="262" y="561.267" type="curve" smooth="yes"/>
      <point x="262" y="552.266" type="line" smooth="yes"/>
      <point x="262" y="341.463"/>
      <point x="379" y="240"/>
      <point x="595.5" y="240" type="curve" smooth="yes"/>
      <point x="775.853" y="240"/>
      <point x="885.699" y="302.615"/>
      <point x="935.967" y="429.64" type="curve"/>
      <point x="937.456" y="373.993" type="line"/>
      <point x="932.443" y="374.426" type="line"/>
      <point x="892.433" y="275.224"/>
      <point x="783.428" y="205.5"/>
    </contour>
    <contour>
      <point x="1623.5" y="1221" type="line"/>
      <point x="1617" y="1250.5" type="line"/>
      <point x="1992.5" y="1250.5" type="line"/>
      <point x="1999" y="1221" type="line"/>
    </contour>
    <contour>
      <point x="1789.5" y="1230.5" type="line"/>
      <point x="1789.5" y="974.5" type="line"/>
      <point x="1755.5" y="974" type="line"/>
      <point x="1755.5" y="1230.5" type="line"/>
    </contour>
    <contour>
      <point x="2143.5" y="1250.5" type="line"/>
      <point x="2149.5" y="1221" type="line"/>
      <point x="725" y="1221" type="line"/>
      <point x="718.5" y="1250.5" type="line"/>
    </contour>
    <contour>
      <point x="1755" y="975" type="line"/>
      <point x="1755" y="1231.5" type="line"/>
      <point x="1790.5" y="1231.5" type="line"/>
      <point x="1790.5" y="975" type="line"/>
    </contour>
    <contour>
      <point x="1756" y="138.5" type="line"/>
      <point x="1756" y="-563.5" type="line"/>
      <point x="1721" y="-563.5" type="line"/>
      <point x="1721" y="138.5" type="line"/>
    </contour>
    <contour>
      <point x="1096" y="-139" type="curve" smooth="yes"/>
      <point x="1096" y="-128.5" type="line" smooth="yes"/>
      <point x="1096" y="-10"/>
      <point x="1149" y="75"/>
      <point x="1249.5" y="104" type="curve"/>
      <point x="1273" y="86" type="line"/>
      <point x="1176" y="54"/>
      <point x="1133" y="-19.5"/>
      <point x="1133" y="-128.5" type="curve" smooth="yes"/>
      <point x="1133" y="-137" type="line" smooth="yes"/>
      <point x="1133" y="-299"/>
      <point x="1237.5" y="-382"/>
      <point x="1418.5" y="-382" type="curve" smooth="yes"/>
      <point x="1586" y="-382"/>
      <point x="1694" y="-316.873"/>
      <point x="1724.5" y="-183" type="curve"/>
      <point x="1729" y="-239.5" type="line"/>
      <point x="1726.5" y="-239.5" type="line"/>
      <point x="1701.5" y="-343"/>
      <point x="1596.5" y="-416"/>
      <point x="1418.5" y="-416" type="curve" smooth="yes"/>
      <point x="1216.5" y="-416"/>
      <point x="1096" y="-321"/>
    </contour>
    <contour>
      <point x="1418.48" y="65" type="curve" smooth="yes"/>
      <point x="1094.92" y="65"/>
      <point x="923.5" y="187.652"/>
      <point x="923.5" y="417.503" type="curve" smooth="yes"/>
      <point x="923.5" y="429.69" type="line" smooth="yes"/>
      <point x="923.5" y="589"/>
      <point x="997.832" y="682"/>
      <point x="1202.5" y="694" type="curve"/>
      <point x="1202.5" y="697" type="line"/>
      <point x="999.801" y="719"/>
      <point x="928.5" y="823.387"/>
      <point x="928.5" y="991.375" type="curve" smooth="yes"/>
      <point x="928.5" y="1002.64" type="line" smooth="yes"/>
      <point x="928.5" y="1102.45"/>
      <point x="953.5" y="1183.21"/>
      <point x="1007.5" y="1230" type="curve"/>
      <point x="1050.5" y="1230" type="line"/>
      <point x="985.5" y="1171.67"/>
      <point x="965.5" y="1094.93"/>
      <point x="965.5" y="1001.85" type="curve" smooth="yes"/>
      <point x="965.5" y="992.52" type="line" smooth="yes"/>
      <point x="965.5" y="831.366"/>
      <point x="1030.37" y="724.512"/>
      <point x="1280.84" y="714" type="curve" smooth="yes"/>
      <point x="1328.5" y="712" type="line"/>
      <point x="1328.5" y="678" type="line"/>
      <point x="1277.81" y="676.145" type="line" smooth="yes"/>
      <point x="1029.43" y="667.055"/>
      <point x="960.5" y="587.984"/>
      <point x="960.5" y="429.091" type="curve" smooth="yes"/>
      <point x="960.5" y="419.766" type="line" smooth="yes"/>
      <point x="960.5" y="211.702"/>
      <point x="1117.88" y="99"/>
      <point x="1417.42" y="99" type="curve" smooth="yes"/>
      <point x="1770.78" y="99"/>
      <point x="1950.5" y="272.819"/>
      <point x="1950.5" y="561.569" type="curve" smooth="yes"/>
      <point x="1950.5" y="582.017" type="line"/>
      <point x="1950.5" y="593.415" type="line"/>
      <point x="1950.5" y="678.793" type="line" smooth="yes"/>
      <point x="1950.5" y="878.643"/>
      <point x="1875.5" y="951"/>
      <point x="1741.5" y="951" type="curve" smooth="yes"/>
      <point x="1605.5" y="951"/>
      <point x="1527.5" y="877.725"/>
      <point x="1527.5" y="712" type="curve" smooth="yes"/>
      <point x="1527.5" y="686" type="line" smooth="yes"/>
      <point x="1527.5" y="512.807"/>
      <point x="1604.5" y="448"/>
      <point x="1730.5" y="448" type="curve" smooth="yes"/>
      <point x="1837.5" y="448"/>
      <point x="1918.5" y="498"/>
      <point x="1952.5" y="604" type="curve"/>
      <point x="1957.5" y="557" type="line"/>
      <point x="1954.5" y="557" type="line"/>
      <point x="1926.5" y="470"/>
      <point x="1846.5" y="415"/>
      <point x="1730.5" y="415" type="curve" smooth="yes"/>
      <point x="1585.5" y="415"/>
      <point x="1491.5" y="490.885"/>
      <point x="1491.5" y="685" type="curve" smooth="yes"/>
      <point x="1491.5" y="714" type="line" smooth="yes"/>
      <point x="1491.5" y="898"/>
      <point x="1584.5" y="985"/>
      <point x="1741.5" y="985" type="curve" smooth="yes"/>
      <point x="1899.5" y="985"/>
      <point x="1986.5" y="901"/>
      <point x="1986.5" y="679.477" type="curve" smooth="yes"/>
      <point x="1986.5" y="576.471" type="line" smooth="yes"/>
      <point x="1986.5" y="244.233"/>
      <point x="1792.77" y="65"/>
    </contour>
  </outline>
  <guideline angle="0" x="0" y="-525"/>
  <guideline angle="90" x="1362.5" y="0"/>
  <guideline angle="90" x="1698" y="0"/>
</glyph>
<glyph name="CaMa.dv" format="2">
  <advance width="1897"/>
  <anchor x="1654" y="9" name="bottom"/>
  <anchor x="1648" y="9" name="bottom2"/>
  <anchor x="1671" y="9" name="bottom3"/>
  <anchor x="1653" y="30" name="bottom5"/>
  <anchor x="1652.5" y="1241.5" name="top"/>
  <outline>
    <contour>
      <point x="-27" y="1221" type="line"/>
      <point x="-33.5" y="1250.52" type="line"/>
      <point x="938" y="1250.52" type="line"/>
      <point x="944" y="1221" type="line"/>
    </contour>
    <contour>
      <point x="744.5" y="905.5" type="line"/>
      <point x="744.5" y="877.5" type="line"/>
      <point x="501" y="878" type="line"/>
      <point x="321" y="874" type="line"/>
      <point x="50.5" y="874" type="line"/>
      <point x="50.5" y="905.5" type="line"/>
    </contour>
    <contour>
      <point x="602.391" y="205.5" type="curve" smooth="yes"/>
      <point x="359.148" y="205.5"/>
      <point x="225" y="317.797"/>
      <point x="225" y="549.769" type="curve" smooth="yes"/>
      <point x="225" y="562.295" type="line" smooth="yes"/>
      <point x="225" y="760.714"/>
      <point x="305" y="855.691"/>
      <point x="466.5" y="879" type="curve"/>
      <point x="466.5" y="891.5" type="line"/>
      <point x="744.5" y="891.5" type="line"/>
      <point x="744.5" y="877.5" type="line"/>
      <point x="591.5" y="871.75" type="line" smooth="yes"/>
      <point x="366.964" y="863.312"/>
      <point x="262" y="787.547"/>
      <point x="262" y="561.267" type="curve" smooth="yes"/>
      <point x="262" y="552.266" type="line" smooth="yes"/>
      <point x="262" y="341.463"/>
      <point x="381.177" y="240"/>
      <point x="600.968" y="240" type="curve" smooth="yes"/>
      <point x="802.239" y="240"/>
      <point x="912.427" y="320.855"/>
      <point x="949.5" y="469" type="curve"/>
      <point x="955.5" y="410" type="line"/>
      <point x="953" y="410" type="line"/>
      <point x="923.17" y="298.453"/>
      <point x="814.76" y="205.5"/>
    </contour>
    <contour>
      <point x="1670.5" y="1230" type="line"/>
      <point x="1670.5" y="0" type="line"/>
      <point x="1636" y="0" type="line"/>
      <point x="1636" y="1230" type="line"/>
    </contour>
    <contour>
      <point x="1498" y="1221" type="line"/>
      <point x="1491.5" y="1250.5" type="line"/>
      <point x="1923.5" y="1250.5" type="line"/>
      <point x="1930" y="1221" type="line"/>
    </contour>
    <contour>
      <point x="1828.5" y="1221" type="line"/>
      <point x="719" y="1221" type="line"/>
      <point x="712.5" y="1250.5" type="line"/>
      <point x="1822" y="1250.5" type="line"/>
    </contour>
    <contour>
      <point x="1652" y="615" type="line"/>
      <point x="1652" y="583.5" type="line"/>
      <point x="999" y="583.5" type="line"/>
      <point x="999" y="615" type="line"/>
    </contour>
    <contour>
      <point x="1016" y="1231.5" type="line"/>
      <point x="1016" y="544.5" type="line"/>
      <point x="980.5" y="544.5" type="line"/>
      <point x="980.5" y="1231.5" type="line"/>
    </contour>
    <contour>
      <point x="973" y="178.5" type="line"/>
      <point x="953.5" y="334.305"/>
      <point x="942.5" y="421.195"/>
      <point x="923" y="577" type="curve"/>
      <point x="981.232" y="611" type="line"/>
      <point x="1016" y="611" type="line"/>
      <point x="1016" y="178.5" type="line"/>
    </contour>
  </outline>
  <guideline angle="0" x="0" y="94"/>
  <guideline angle="90" x="239" y="0"/>
  <guideline angle="90" color="0,1,1,1" name="Ma counter space" x="936" y="0"/>
  <guideline angle="90" x="1573" y="0"/>
  <guideline angle="0" x="0" y="9"/>
  <guideline angle="90" x="1578" y="0"/>
  <guideline angle="90" x="1561" y="0"/>
  <guideline angle="0" x="0" y="1262"/>
  <guideline angle="90" x="1596" y="0"/>
  <guideline angle="0" x="0" y="30"/>
</glyph>
<glyph name="CaYa.dv" format="2">
  <advance width="1995"/>
  <anchor x="1752" y="9" name="bottom"/>
  <anchor x="1746" y="9" name="bottom2"/>
  <anchor x="1769" y="9" name="bottom3"/>
  <anchor x="1751" y="30" name="bottom5"/>
  <anchor x="1750.5" y="1241.5" name="top"/>
  <outline>
    <contour>
      <point x="-27" y="1221" type="line"/>
      <point x="-33.5" y="1250.52" type="line"/>
      <point x="938" y="1250.52" type="line"/>
      <point x="944" y="1221" type="line"/>
    </contour>
    <contour>
      <point x="744.5" y="905.5" type="line"/>
      <point x="744.5" y="877.5" type="line"/>
      <point x="501" y="878" type="line"/>
      <point x="321" y="874" type="line"/>
      <point x="50.5" y="874" type="line"/>
      <point x="50.5" y="905.5" type="line"/>
    </contour>
    <contour>
      <point x="602" y="205.5" type="curve" smooth="yes"/>
      <point x="357" y="205.5"/>
      <point x="225" y="317.797"/>
      <point x="225" y="549.769" type="curve" smooth="yes"/>
      <point x="225" y="562.295" type="line" smooth="yes"/>
      <point x="225" y="760.714"/>
      <point x="305" y="855.691"/>
      <point x="466.5" y="879" type="curve"/>
      <point x="466.5" y="891.5" type="line"/>
      <point x="744.5" y="891.5" type="line"/>
      <point x="744.5" y="877.5" type="line"/>
      <point x="591.5" y="871.75" type="line" smooth="yes"/>
      <point x="366.964" y="863.312"/>
      <point x="262" y="787.547"/>
      <point x="262" y="561.267" type="curve" smooth="yes"/>
      <point x="262" y="552.266" type="line" smooth="yes"/>
      <point x="262" y="341.463"/>
      <point x="379" y="240"/>
      <point x="600.5" y="240" type="curve" smooth="yes"/>
      <point x="800" y="240"/>
      <point x="914" y="323"/>
      <point x="956.5" y="475" type="curve"/>
      <point x="970.348" y="429.715" type="line"/>
      <point x="967.848" y="429.715" type="line"/>
      <point x="927" y="299.05"/>
      <point x="815.5" y="205.5"/>
    </contour>
    <contour>
      <point x="1768.5" y="1230" type="line"/>
      <point x="1768.5" y="0" type="line"/>
      <point x="1734" y="0" type="line"/>
      <point x="1734" y="1230" type="line"/>
    </contour>
    <contour>
      <point x="1596" y="1221" type="line"/>
      <point x="1589.5" y="1250.5" type="line"/>
      <point x="2021.5" y="1250.5" type="line"/>
      <point x="2028" y="1221" type="line"/>
    </contour>
    <contour>
      <point x="760.5" y="1250.5" type="line"/>
      <point x="1920" y="1250.5" type="line"/>
      <point x="1926.5" y="1221" type="line"/>
      <point x="767" y="1221" type="line"/>
    </contour>
    <contour>
      <point x="1206" y="1229.5" type="line"/>
      <point x="1266.5" y="1185.04"/>
      <point x="1299" y="1104.9"/>
      <point x="1299" y="994.96" type="curve" smooth="yes"/>
      <point x="1299" y="979.812" type="line" smooth="yes"/>
      <point x="1299" y="790.748"/>
      <point x="1198.62" y="714"/>
      <point x="986.215" y="714" type="curve" smooth="yes"/>
      <point x="934" y="714" type="line"/>
      <point x="921" y="746" type="line"/>
      <point x="979.18" y="746" type="line" smooth="yes"/>
      <point x="1166.88" y="746"/>
      <point x="1263" y="806.528"/>
      <point x="1263" y="980.676" type="curve" smooth="yes"/>
      <point x="1263" y="992.873" type="line" smooth="yes"/>
      <point x="1263" y="1105.58"/>
      <point x="1234.5" y="1174.37"/>
      <point x="1161.5" y="1229.5" type="curve"/>
    </contour>
    <contour>
      <point x="916.5" y="642.591" type="line" smooth="yes"/>
      <point x="916.5" y="670.849"/>
      <point x="917.5" y="699.603"/>
      <point x="920" y="746" type="curve"/>
      <point x="952" y="732" type="line"/>
      <point x="952" y="633.854" type="line" smooth="yes"/>
      <point x="952" y="394.278"/>
      <point x="1098" y="278"/>
      <point x="1341" y="278" type="curve" smooth="yes"/>
      <point x="1564" y="278"/>
      <point x="1693" y="367"/>
      <point x="1737" y="533" type="curve"/>
      <point x="1741" y="473" type="line"/>
      <point x="1738" y="473" type="line"/>
      <point x="1702" y="339.5"/>
      <point x="1581" y="243.5"/>
      <point x="1341" y="243.5" type="curve" smooth="yes"/>
      <point x="1070.5" y="243.5"/>
      <point x="916.5" y="376.916"/>
      <point x="916.5" y="633.6" type="curve" smooth="yes"/>
    </contour>
  </outline>
  <guideline angle="90" x="915.5" y="0"/>
  <guideline angle="90" x="1671" y="0"/>
  <guideline angle="0" x="0" y="9"/>
  <guideline angle="90" x="1676" y="0"/>
  <guideline angle="90" x="1659" y="0"/>
  <guideline angle="0" x="0" y="1262"/>
  <guideline angle="90" x="1694" y="0"/>
  <guideline angle="0" x="0" y="30"/>
</glyph>
<glyph name="ChaYa.dv" format="2">
  <advance width="2458"/>
  <anchor x="2213" y="9" name="bottom"/>
  <anchor x="2208" y="9" name="bottom2"/>
  <anchor x="2231" y="9" name="bottom3"/>
  <anchor x="2213" y="30" name="bottom5"/>
  <anchor x="2213" y="1241.5" name="top"/>
  <outline>
    <contour>
      <point x="2231" y="1230" type="line"/>
      <point x="2231" y="0" type="line"/>
      <point x="2196.5" y="0" type="line"/>
      <point x="2196.5" y="1230" type="line"/>
    </contour>
    <contour>
      <point x="2058.5" y="1221" type="line"/>
      <point x="2052" y="1250.5" type="line"/>
      <point x="2484" y="1250.5" type="line"/>
      <point x="2490.5" y="1221" type="line"/>
    </contour>
    <contour>
      <point x="2382.5" y="1250.5" type="line"/>
      <point x="2388.5" y="1221" type="line"/>
      <point x="-38.5" y="1221" type="line"/>
      <point x="-45" y="1250.5" type="line"/>
    </contour>
    <contour>
      <point x="1530" y="931" type="line"/>
      <point x="983" y="931" type="line"/>
      <point x="974" y="963" type="line"/>
      <point x="1530" y="963" type="line"/>
    </contour>
    <contour>
      <point x="653.328" y="5" type="curve" smooth="yes"/>
      <point x="334.806" y="5"/>
      <point x="160" y="134.827"/>
      <point x="160" y="379" type="curve" smooth="yes"/>
      <point x="160" y="390" type="line" smooth="yes"/>
      <point x="160" y="560.556"/>
      <point x="232" y="661.21"/>
      <point x="434" y="676" type="curve"/>
      <point x="434" y="679" type="line"/>
      <point x="235" y="701"/>
      <point x="165" y="808"/>
      <point x="165" y="977" type="curve" smooth="yes"/>
      <point x="165" y="992" type="line" smooth="yes"/>
      <point x="165" y="1092"/>
      <point x="192" y="1179"/>
      <point x="254" y="1230" type="curve"/>
      <point x="296" y="1230" type="line"/>
      <point x="223" y="1168"/>
      <point x="202" y="1084.99"/>
      <point x="202" y="990.981" type="curve" smooth="yes"/>
      <point x="202" y="977.981" type="line" smooth="yes"/>
      <point x="202" y="815.97"/>
      <point x="264.708" y="707.092"/>
      <point x="510.604" y="696.19" type="curve" smooth="yes"/>
      <point x="560" y="694" type="line"/>
      <point x="560" y="660" type="line"/>
      <point x="507.601" y="657.823" type="line" smooth="yes"/>
      <point x="263.707" y="647.692"/>
      <point x="197" y="559.42"/>
      <point x="197" y="389.012" type="curve" smooth="yes"/>
      <point x="197" y="381.012" type="line" smooth="yes"/>
      <point x="197" y="158.869"/>
      <point x="357.795" y="39"/>
      <point x="652.308" y="39" type="curve" smooth="yes"/>
      <point x="1006.09" y="39"/>
      <point x="1183" y="222"/>
      <point x="1183" y="526" type="curve" smooth="yes"/>
      <point x="1183" y="537" type="line"/>
      <point x="1183" y="549" type="line"/>
      <point x="1183" y="649" type="line" smooth="yes"/>
      <point x="1183" y="844.98"/>
      <point x="1110.03" y="929"/>
      <point x="976" y="929" type="curve" smooth="yes"/>
      <point x="837.97" y="929"/>
      <point x="760" y="849.725"/>
      <point x="760" y="683" type="curve" smooth="yes"/>
      <point x="760" y="656" type="line" smooth="yes"/>
      <point x="760" y="472.807"/>
      <point x="840.968" y="417"/>
      <point x="966" y="417" type="curve" smooth="yes"/>
      <point x="1073.04" y="417"/>
      <point x="1151" y="464"/>
      <point x="1185" y="570" type="curve"/>
      <point x="1190" y="522" type="line"/>
      <point x="1187" y="522" type="line"/>
      <point x="1159" y="435"/>
      <point x="1082.03" y="383"/>
      <point x="966" y="383" type="curve" smooth="yes"/>
      <point x="820.972" y="383"/>
      <point x="724" y="450.885"/>
      <point x="724" y="655" type="curve" smooth="yes"/>
      <point x="724" y="685" type="line" smooth="yes"/>
      <point x="724" y="870"/>
      <point x="814.975" y="963"/>
      <point x="975" y="963" type="curve" smooth="yes"/>
      <point x="1128.02" y="963"/>
      <point x="1219" y="865"/>
      <point x="1219" y="649" type="curve" smooth="yes"/>
      <point x="1219" y="531" type="line" smooth="yes"/>
      <point x="1219" y="194"/>
      <point x="1028.09" y="5"/>
    </contour>
    <contour>
      <point x="1474" y="931" type="line"/>
      <point x="1474" y="963" type="line"/>
      <point x="1625.5" y="963" type="line" smooth="yes"/>
      <point x="1794" y="963"/>
      <point x="1874" y="895.5"/>
      <point x="1874" y="747" type="curve" smooth="yes"/>
      <point x="1874" y="738" type="line" smooth="yes"/>
      <point x="1874" y="587"/>
      <point x="1791" y="525.5"/>
      <point x="1608.5" y="525.5" type="curve" smooth="yes"/>
      <point x="1492" y="525.5" type="line"/>
      <point x="1478" y="557.5" type="line"/>
      <point x="1604.5" y="557.5" type="line" smooth="yes"/>
      <point x="1766.5" y="557.5"/>
      <point x="1837.5" y="606.5"/>
      <point x="1837.5" y="738" type="curve" smooth="yes"/>
      <point x="1837.5" y="747" type="line" smooth="yes"/>
      <point x="1837.5" y="876.5"/>
      <point x="1770.5" y="931"/>
      <point x="1623.5" y="931" type="curve" smooth="yes"/>
    </contour>
    <contour>
      <point x="1474" y="457.5" type="curve" smooth="yes"/>
      <point x="1474" y="462.5" type="line" smooth="yes"/>
      <point x="1474" y="491.5"/>
      <point x="1475" y="522.5"/>
      <point x="1478" y="557.5" type="curve"/>
      <point x="1509.5" y="546.5" type="line"/>
      <point x="1509.5" y="454.5" type="line" smooth="yes"/>
      <point x="1509.5" y="263.5"/>
      <point x="1620.5" y="168"/>
      <point x="1842" y="168" type="curve" smooth="yes"/>
      <point x="2053" y="168"/>
      <point x="2158" y="254.5"/>
      <point x="2199.5" y="413.5" type="curve"/>
      <point x="2204.5" y="356" type="line"/>
      <point x="2201.5" y="356" type="line"/>
      <point x="2171" y="231"/>
      <point x="2064" y="134.5"/>
      <point x="1842" y="134.5" type="curve" smooth="yes"/>
      <point x="1594.5" y="134.5"/>
      <point x="1474" y="243"/>
    </contour>
  </outline>
  <guideline angle="90" x="2133.5" y="0"/>
  <guideline angle="0" x="0" y="9"/>
  <guideline angle="90" x="2138.5" y="0"/>
  <guideline angle="90" x="2121.5" y="0"/>
  <guideline angle="0" x="0" y="1262"/>
  <guideline angle="90" x="2156.5" y="0"/>
  <guideline angle="0" x="0" y="30"/>
</glyph>
